solid ascii
  facet normal 9.961947e-001 8.715574e-002 9.523850e-018
    outer loop
      vertex   5.653485e-001 -3.255903e-002 7.000000e-001
      vertex   5.653485e-001 -3.255903e-002 5.000000e-001
      vertex   5.625000e-001 3.831510e-017 7.000000e-001
    endloop
  endfacet
  facet normal 9.659258e-001 2.588190e-001 3.085083e-017
    outer loop
      vertex   5.653485e-001 -3.255903e-002 7.000000e-001
      vertex   5.738076e-001 -6.412878e-002 5.000000e-001
      vertex   5.653485e-001 -3.255903e-002 5.000000e-001
    endloop
  endfacet
  facet normal 9.659258e-001 2.588190e-001 1.272698e-016
    outer loop
      vertex   5.653485e-001 -3.255903e-002 7.000000e-001
      vertex   5.738076e-001 -6.412878e-002 7.000000e-001
      vertex   5.738076e-001 -6.412878e-002 5.000000e-001
    endloop
  endfacet
  facet normal 9.063078e-001 4.226183e-001 2.078152e-016
    outer loop
      vertex   5.738076e-001 -6.412878e-002 5.000000e-001
      vertex   5.738076e-001 -6.412878e-002 7.000000e-001
      vertex   5.876202e-001 -9.375000e-002 5.000000e-001
    endloop
  endfacet
  facet normal 9.063078e-001 4.226183e-001 1.851050e-016
    outer loop
      vertex   5.876202e-001 -9.375000e-002 5.000000e-001
      vertex   5.738076e-001 -6.412878e-002 7.000000e-001
      vertex   5.876202e-001 -9.375000e-002 7.000000e-001
    endloop
  endfacet
  facet normal 8.191520e-001 5.735764e-001 6.170165e-017
    outer loop
      vertex   6.063667e-001 -1.205227e-001 5.000000e-001
      vertex   5.876202e-001 -9.375000e-002 7.000000e-001
      vertex   6.063667e-001 -1.205227e-001 7.000000e-001
    endloop
  endfacet
  facet normal 7.071068e-001 7.071068e-001 8.226887e-017
    outer loop
      vertex   6.294773e-001 -1.436333e-001 5.000000e-001
      vertex   6.063667e-001 -1.205227e-001 7.000000e-001
      vertex   6.294773e-001 -1.436333e-001 7.000000e-001
    endloop
  endfacet
  facet normal 5.735764e-001 8.191520e-001 9.255248e-017
    outer loop
      vertex   6.562500e-001 -1.623798e-001 5.000000e-001
      vertex   6.294773e-001 -1.436333e-001 7.000000e-001
      vertex   6.562500e-001 -1.623798e-001 7.000000e-001
    endloop
  endfacet
  facet normal 4.226183e-001 9.063078e-001 1.028361e-016
    outer loop
      vertex   6.858712e-001 -1.761924e-001 5.000000e-001
      vertex   6.562500e-001 -1.623798e-001 7.000000e-001
      vertex   6.858712e-001 -1.761924e-001 7.000000e-001
    endloop
  endfacet
  facet normal 2.588190e-001 9.659258e-001 3.187919e-016
    outer loop
      vertex   7.174410e-001 -1.846515e-001 5.000000e-001
      vertex   6.858712e-001 -1.761924e-001 7.000000e-001
      vertex   7.174410e-001 -1.846515e-001 7.000000e-001
    endloop
  endfacet
  facet normal 8.715574e-002 9.961947e-001 1.105488e-016
    outer loop
      vertex   7.500000e-001 -1.875000e-001 5.000000e-001
      vertex   7.174410e-001 -1.846515e-001 7.000000e-001
      vertex   7.500000e-001 -1.875000e-001 7.000000e-001
    endloop
  endfacet
  facet normal -8.715574e-002 9.961947e-001 2.879411e-016
    outer loop
      vertex   7.825590e-001 -1.846515e-001 5.000000e-001
      vertex   7.500000e-001 -1.875000e-001 7.000000e-001
      vertex   7.825590e-001 -1.846515e-001 7.000000e-001
    endloop
  endfacet
  facet normal -2.588190e-001 9.659258e-001 3.290755e-016
    outer loop
      vertex   8.141288e-001 -1.761924e-001 5.000000e-001
      vertex   7.825590e-001 -1.846515e-001 7.000000e-001
      vertex   8.141288e-001 -1.761924e-001 7.000000e-001
    endloop
  endfacet
  facet normal -4.226183e-001 9.063078e-001 2.673738e-016
    outer loop
      vertex   8.437500e-001 -1.623798e-001 5.000000e-001
      vertex   8.141288e-001 -1.761924e-001 7.000000e-001
      vertex   8.437500e-001 -1.623798e-001 7.000000e-001
    endloop
  endfacet
  facet normal -5.735764e-001 8.191520e-001 9.255248e-017
    outer loop
      vertex   8.705227e-001 -1.436333e-001 5.000000e-001
      vertex   8.437500e-001 -1.623798e-001 7.000000e-001
      vertex   8.705227e-001 -1.436333e-001 7.000000e-001
    endloop
  endfacet
  facet normal -7.071068e-001 7.071068e-001 7.198526e-017
    outer loop
      vertex   8.936333e-001 -1.205227e-001 5.000000e-001
      vertex   8.705227e-001 -1.436333e-001 7.000000e-001
      vertex   8.936333e-001 -1.205227e-001 7.000000e-001
    endloop
  endfacet
  facet normal -8.191520e-001 5.735764e-001 6.170165e-017
    outer loop
      vertex   9.123798e-001 -9.375000e-002 5.000000e-001
      vertex   8.936333e-001 -1.205227e-001 7.000000e-001
      vertex   9.123798e-001 -9.375000e-002 7.000000e-001
    endloop
  endfacet
  facet normal -9.063078e-001 4.226183e-001 5.141805e-017
    outer loop
      vertex   9.261924e-001 -6.412878e-002 5.000000e-001
      vertex   9.123798e-001 -9.375000e-002 7.000000e-001
      vertex   9.261924e-001 -6.412878e-002 7.000000e-001
    endloop
  endfacet
  facet normal -9.659258e-001 2.588190e-001 -8.226887e-017
    outer loop
      vertex   9.346515e-001 -3.255903e-002 5.000000e-001
      vertex   9.261924e-001 -6.412878e-002 7.000000e-001
      vertex   9.346515e-001 -3.255903e-002 7.000000e-001
    endloop
  endfacet
  facet normal -9.961947e-001 8.715574e-002 1.028361e-017
    outer loop
      vertex   9.375000e-001 3.720852e-017 5.000000e-001
      vertex   9.346515e-001 -3.255903e-002 7.000000e-001
      vertex   9.375000e-001 1.535373e-017 7.000000e-001
    endloop
  endfacet
  facet normal -9.961947e-001 -8.715574e-002 2.570902e-017
    outer loop
      vertex   9.346515e-001 3.255903e-002 5.000000e-001
      vertex   9.375000e-001 1.535373e-017 7.000000e-001
      vertex   9.346515e-001 3.255903e-002 7.000000e-001
    endloop
  endfacet
  facet normal -9.659258e-001 -2.588190e-001 -3.085083e-017
    outer loop
      vertex   9.261924e-001 6.412878e-002 5.000000e-001
      vertex   9.346515e-001 3.255903e-002 7.000000e-001
      vertex   9.261924e-001 6.412878e-002 7.000000e-001
    endloop
  endfacet
  facet normal -9.063078e-001 -4.226183e-001 -5.141805e-017
    outer loop
      vertex   9.123798e-001 9.375000e-002 5.000000e-001
      vertex   9.261924e-001 6.412878e-002 7.000000e-001
      vertex   9.123798e-001 9.375000e-002 7.000000e-001
    endloop
  endfacet
  facet normal -8.191520e-001 -5.735764e-001 -6.170165e-017
    outer loop
      vertex   8.936333e-001 1.205227e-001 5.000000e-001
      vertex   9.123798e-001 9.375000e-002 7.000000e-001
      vertex   8.936333e-001 1.205227e-001 7.000000e-001
    endloop
  endfacet
  facet normal -7.071068e-001 -7.071068e-001 -7.198526e-017
    outer loop
      vertex   8.705227e-001 1.436333e-001 5.000000e-001
      vertex   8.936333e-001 1.205227e-001 7.000000e-001
      vertex   8.705227e-001 1.436333e-001 7.000000e-001
    endloop
  endfacet
  facet normal -5.735764e-001 -8.191520e-001 -4.113444e-016
    outer loop
      vertex   8.437500e-001 1.623798e-001 5.000000e-001
      vertex   8.705227e-001 1.436333e-001 7.000000e-001
      vertex   8.437500e-001 1.623798e-001 7.000000e-001
    endloop
  endfacet
  facet normal -4.226183e-001 -9.063078e-001 -4.627624e-016
    outer loop
      vertex   8.141288e-001 1.761924e-001 5.000000e-001
      vertex   8.437500e-001 1.623798e-001 7.000000e-001
      vertex   8.141288e-001 1.761924e-001 7.000000e-001
    endloop
  endfacet
  facet normal -2.588190e-001 -9.659258e-001 -2.005304e-016
    outer loop
      vertex   7.825590e-001 1.846515e-001 5.000000e-001
      vertex   8.141288e-001 1.761924e-001 7.000000e-001
      vertex   7.825590e-001 1.846515e-001 7.000000e-001
    endloop
  endfacet
  facet normal -8.715574e-002 -9.961947e-001 -1.105488e-016
    outer loop
      vertex   7.500000e-001 1.875000e-001 5.000000e-001
      vertex   7.825590e-001 1.846515e-001 7.000000e-001
      vertex   7.500000e-001 1.875000e-001 7.000000e-001
    endloop
  endfacet
  facet normal 8.715574e-002 -9.961947e-001 -3.265046e-016
    outer loop
      vertex   7.174410e-001 1.846515e-001 5.000000e-001
      vertex   7.500000e-001 1.875000e-001 7.000000e-001
      vertex   7.174410e-001 1.846515e-001 7.000000e-001
    endloop
  endfacet
  facet normal 2.588190e-001 -9.659258e-001 -1.028361e-016
    outer loop
      vertex   6.858712e-001 1.761924e-001 5.000000e-001
      vertex   7.174410e-001 1.846515e-001 7.000000e-001
      vertex   6.858712e-001 1.761924e-001 7.000000e-001
    endloop
  endfacet
  facet normal 4.226183e-001 -9.063078e-001 -1.028361e-016
    outer loop
      vertex   6.562500e-001 1.623798e-001 5.000000e-001
      vertex   6.858712e-001 1.761924e-001 7.000000e-001
      vertex   6.562500e-001 1.623798e-001 7.000000e-001
    endloop
  endfacet
  facet normal 5.735764e-001 -8.191520e-001 -9.255248e-017
    outer loop
      vertex   6.294773e-001 1.436333e-001 5.000000e-001
      vertex   6.562500e-001 1.623798e-001 7.000000e-001
      vertex   6.294773e-001 1.436333e-001 7.000000e-001
    endloop
  endfacet
  facet normal 7.071068e-001 -7.071068e-001 -8.226887e-017
    outer loop
      vertex   6.063667e-001 1.205227e-001 5.000000e-001
      vertex   6.294773e-001 1.436333e-001 7.000000e-001
      vertex   6.063667e-001 1.205227e-001 7.000000e-001
    endloop
  endfacet
  facet normal 8.191520e-001 -5.735764e-001 -2.468066e-016
    outer loop
      vertex   5.876202e-001 9.375000e-002 5.000000e-001
      vertex   6.063667e-001 1.205227e-001 7.000000e-001
      vertex   5.876202e-001 9.375000e-002 7.000000e-001
    endloop
  endfacet
  facet normal 9.063078e-001 -4.226183e-001 -2.056722e-016
    outer loop
      vertex   5.738076e-001 6.412878e-002 5.000000e-001
      vertex   5.876202e-001 9.375000e-002 7.000000e-001
      vertex   5.738076e-001 6.412878e-002 7.000000e-001
    endloop
  endfacet
  facet normal 9.659258e-001 -2.588190e-001 -3.085083e-017
    outer loop
      vertex   5.653485e-001 3.255903e-002 5.000000e-001
      vertex   5.738076e-001 6.412878e-002 7.000000e-001
      vertex   5.653485e-001 3.255903e-002 7.000000e-001
    endloop
  endfacet
  facet normal 9.961947e-001 -8.715574e-002 1.028361e-017
    outer loop
      vertex   5.625000e-001 1.424715e-017 5.000000e-001
      vertex   5.653485e-001 3.255903e-002 7.000000e-001
      vertex   5.625000e-001 3.831510e-017 7.000000e-001
    endloop
  endfacet
  facet normal 9.961947e-001 8.715574e-002 -1.048830e-017
    outer loop
      vertex   5.653485e-001 -3.255903e-002 5.000000e-001
      vertex   5.625000e-001 1.424715e-017 5.000000e-001
      vertex   5.625000e-001 3.831510e-017 7.000000e-001
    endloop
  endfacet
  facet normal 9.961947e-001 -8.715574e-002 -9.523850e-018
    outer loop
      vertex   5.625000e-001 1.424715e-017 5.000000e-001
      vertex   5.653485e-001 3.255903e-002 5.000000e-001
      vertex   5.653485e-001 3.255903e-002 7.000000e-001
    endloop
  endfacet
  facet normal 9.659258e-001 -2.588190e-001 -1.272698e-016
    outer loop
      vertex   5.653485e-001 3.255903e-002 5.000000e-001
      vertex   5.738076e-001 6.412878e-002 5.000000e-001
      vertex   5.738076e-001 6.412878e-002 7.000000e-001
    endloop
  endfacet
  facet normal 9.063078e-001 -4.226183e-001 -1.847246e-016
    outer loop
      vertex   5.738076e-001 6.412878e-002 5.000000e-001
      vertex   5.876202e-001 9.375000e-002 5.000000e-001
      vertex   5.876202e-001 9.375000e-002 7.000000e-001
    endloop
  endfacet
  facet normal 8.191520e-001 -5.735764e-001 -6.267695e-017
    outer loop
      vertex   5.876202e-001 9.375000e-002 5.000000e-001
      vertex   6.063667e-001 1.205227e-001 5.000000e-001
      vertex   6.063667e-001 1.205227e-001 7.000000e-001
    endloop
  endfacet
  facet normal 7.071068e-001 -7.071068e-001 -7.726833e-017
    outer loop
      vertex   6.063667e-001 1.205227e-001 5.000000e-001
      vertex   6.294773e-001 1.436333e-001 5.000000e-001
      vertex   6.294773e-001 1.436333e-001 7.000000e-001
    endloop
  endfacet
  facet normal 5.735764e-001 -8.191520e-001 -8.951195e-017
    outer loop
      vertex   6.294773e-001 1.436333e-001 5.000000e-001
      vertex   6.562500e-001 1.623798e-001 5.000000e-001
      vertex   6.562500e-001 1.623798e-001 7.000000e-001
    endloop
  endfacet
  facet normal 4.226183e-001 -9.063078e-001 -9.903580e-017
    outer loop
      vertex   6.562500e-001 1.623798e-001 5.000000e-001
      vertex   6.858712e-001 1.761924e-001 5.000000e-001
      vertex   6.858712e-001 1.761924e-001 7.000000e-001
    endloop
  endfacet
  facet normal 2.588190e-001 -9.659258e-001 -3.166515e-016
    outer loop
      vertex   6.858712e-001 1.761924e-001 5.000000e-001
      vertex   7.174410e-001 1.846515e-001 5.000000e-001
      vertex   7.174410e-001 1.846515e-001 7.000000e-001
    endloop
  endfacet
  facet normal 8.715574e-002 -9.961947e-001 -1.088581e-016
    outer loop
      vertex   7.174410e-001 1.846515e-001 5.000000e-001
      vertex   7.500000e-001 1.875000e-001 5.000000e-001
      vertex   7.500000e-001 1.875000e-001 7.000000e-001
    endloop
  endfacet
  facet normal -8.715574e-002 -9.961947e-001 -2.884789e-016
    outer loop
      vertex   7.500000e-001 1.875000e-001 5.000000e-001
      vertex   7.825590e-001 1.846515e-001 5.000000e-001
      vertex   7.825590e-001 1.846515e-001 7.000000e-001
    endloop
  endfacet
  facet normal -2.588190e-001 -9.659258e-001 -3.318079e-016
    outer loop
      vertex   7.825590e-001 1.846515e-001 5.000000e-001
      vertex   8.141288e-001 1.761924e-001 5.000000e-001
      vertex   8.141288e-001 1.761924e-001 7.000000e-001
    endloop
  endfacet
  facet normal -4.226183e-001 -9.063078e-001 -2.704134e-016
    outer loop
      vertex   8.141288e-001 1.761924e-001 5.000000e-001
      vertex   8.437500e-001 1.623798e-001 5.000000e-001
      vertex   8.437500e-001 1.623798e-001 7.000000e-001
    endloop
  endfacet
  facet normal -5.735764e-001 -8.191520e-001 -8.951195e-017
    outer loop
      vertex   8.437500e-001 1.623798e-001 5.000000e-001
      vertex   8.705227e-001 1.436333e-001 5.000000e-001
      vertex   8.705227e-001 1.436333e-001 7.000000e-001
    endloop
  endfacet
  facet normal -7.071068e-001 -7.071068e-001 -7.726833e-017
    outer loop
      vertex   8.705227e-001 1.436333e-001 5.000000e-001
      vertex   8.936333e-001 1.205227e-001 5.000000e-001
      vertex   8.936333e-001 1.205227e-001 7.000000e-001
    endloop
  endfacet
  facet normal -8.191520e-001 -5.735764e-001 -6.267695e-017
    outer loop
      vertex   8.936333e-001 1.205227e-001 5.000000e-001
      vertex   9.123798e-001 9.375000e-002 5.000000e-001
      vertex   9.123798e-001 9.375000e-002 7.000000e-001
    endloop
  endfacet
  facet normal -9.063078e-001 -4.226183e-001 -4.618115e-017
    outer loop
      vertex   9.123798e-001 9.375000e-002 5.000000e-001
      vertex   9.261924e-001 6.412878e-002 5.000000e-001
      vertex   9.261924e-001 6.412878e-002 7.000000e-001
    endloop
  endfacet
  facet normal -9.659258e-001 -2.588190e-001 7.777597e-017
    outer loop
      vertex   9.261924e-001 6.412878e-002 5.000000e-001
      vertex   9.346515e-001 3.255903e-002 5.000000e-001
      vertex   9.346515e-001 3.255903e-002 7.000000e-001
    endloop
  endfacet
  facet normal -9.961947e-001 -8.715574e-002 -9.523850e-018
    outer loop
      vertex   9.346515e-001 3.255903e-002 5.000000e-001
      vertex   9.375000e-001 3.720852e-017 5.000000e-001
      vertex   9.375000e-001 1.535373e-017 7.000000e-001
    endloop
  endfacet
  facet normal -9.961947e-001 8.715574e-002 -2.619059e-017
    outer loop
      vertex   9.375000e-001 3.720852e-017 5.000000e-001
      vertex   9.346515e-001 -3.255903e-002 5.000000e-001
      vertex   9.346515e-001 -3.255903e-002 7.000000e-001
    endloop
  endfacet
  facet normal -9.659258e-001 2.588190e-001 2.828217e-017
    outer loop
      vertex   9.346515e-001 -3.255903e-002 5.000000e-001
      vertex   9.261924e-001 -6.412878e-002 5.000000e-001
      vertex   9.261924e-001 -6.412878e-002 7.000000e-001
    endloop
  endfacet
  facet normal -9.063078e-001 4.226183e-001 4.618115e-017
    outer loop
      vertex   9.261924e-001 -6.412878e-002 5.000000e-001
      vertex   9.123798e-001 -9.375000e-002 5.000000e-001
      vertex   9.123798e-001 -9.375000e-002 7.000000e-001
    endloop
  endfacet
  facet normal -8.191520e-001 5.735764e-001 6.267695e-017
    outer loop
      vertex   9.123798e-001 -9.375000e-002 5.000000e-001
      vertex   8.936333e-001 -1.205227e-001 5.000000e-001
      vertex   8.936333e-001 -1.205227e-001 7.000000e-001
    endloop
  endfacet
  facet normal -7.071068e-001 7.071068e-001 7.726833e-017
    outer loop
      vertex   8.936333e-001 -1.205227e-001 5.000000e-001
      vertex   8.705227e-001 -1.436333e-001 5.000000e-001
      vertex   8.705227e-001 -1.436333e-001 7.000000e-001
    endloop
  endfacet
  facet normal -5.735764e-001 8.191520e-001 4.119036e-016
    outer loop
      vertex   8.705227e-001 -1.436333e-001 5.000000e-001
      vertex   8.437500e-001 -1.623798e-001 5.000000e-001
      vertex   8.437500e-001 -1.623798e-001 7.000000e-001
    endloop
  endfacet
  facet normal -4.226183e-001 9.063078e-001 4.684850e-016
    outer loop
      vertex   8.437500e-001 -1.623798e-001 5.000000e-001
      vertex   8.141288e-001 -1.761924e-001 5.000000e-001
      vertex   8.141288e-001 -1.761924e-001 7.000000e-001
    endloop
  endfacet
  facet normal -2.588190e-001 9.659258e-001 2.035228e-016
    outer loop
      vertex   8.141288e-001 -1.761924e-001 5.000000e-001
      vertex   7.825590e-001 -1.846515e-001 5.000000e-001
      vertex   7.825590e-001 -1.846515e-001 7.000000e-001
    endloop
  endfacet
  facet normal -8.715574e-002 9.961947e-001 1.088581e-016
    outer loop
      vertex   7.825590e-001 -1.846515e-001 5.000000e-001
      vertex   7.500000e-001 -1.875000e-001 5.000000e-001
      vertex   7.500000e-001 -1.875000e-001 7.000000e-001
    endloop
  endfacet
  facet normal 8.715574e-002 9.961947e-001 3.265743e-016
    outer loop
      vertex   7.500000e-001 -1.875000e-001 5.000000e-001
      vertex   7.174410e-001 -1.846515e-001 5.000000e-001
      vertex   7.174410e-001 -1.846515e-001 7.000000e-001
    endloop
  endfacet
  facet normal 2.588190e-001 9.659258e-001 1.055505e-016
    outer loop
      vertex   7.174410e-001 -1.846515e-001 5.000000e-001
      vertex   6.858712e-001 -1.761924e-001 5.000000e-001
      vertex   6.858712e-001 -1.761924e-001 7.000000e-001
    endloop
  endfacet
  facet normal 4.226183e-001 9.063078e-001 9.903580e-017
    outer loop
      vertex   6.858712e-001 -1.761924e-001 5.000000e-001
      vertex   6.562500e-001 -1.623798e-001 5.000000e-001
      vertex   6.562500e-001 -1.623798e-001 7.000000e-001
    endloop
  endfacet
  facet normal 5.735764e-001 8.191520e-001 8.951195e-017
    outer loop
      vertex   6.562500e-001 -1.623798e-001 5.000000e-001
      vertex   6.294773e-001 -1.436333e-001 5.000000e-001
      vertex   6.294773e-001 -1.436333e-001 7.000000e-001
    endloop
  endfacet
  facet normal 7.071068e-001 7.071068e-001 7.726833e-017
    outer loop
      vertex   6.294773e-001 -1.436333e-001 5.000000e-001
      vertex   6.063667e-001 -1.205227e-001 5.000000e-001
      vertex   6.063667e-001 -1.205227e-001 7.000000e-001
    endloop
  endfacet
  facet normal 8.191520e-001 5.735764e-001 2.507078e-016
    outer loop
      vertex   6.063667e-001 -1.205227e-001 5.000000e-001
      vertex   5.876202e-001 -9.375000e-002 5.000000e-001
      vertex   5.876202e-001 -9.375000e-002 7.000000e-001
    endloop
  endfacet
  facet normal 3.283404e-016 2.872606e-017 -1.000000e+000
    outer loop
      vertex   5.653485e-001 -3.255903e-002 5.000000e-001
      vertex   1.000000e-001 -8.000000e-001 5.000000e-001
      vertex   5.625000e-001 1.424715e-017 5.000000e-001
    endloop
  endfacet
  facet normal 2.605701e-016 6.981954e-017 -1.000000e+000
    outer loop
      vertex   5.653485e-001 -3.255903e-002 5.000000e-001
      vertex   5.738076e-001 -6.412878e-002 5.000000e-001
      vertex   1.000000e-001 -8.000000e-001 5.000000e-001
    endloop
  endfacet
  facet normal 2.140134e-016 9.979610e-017 -1.000000e+000
    outer loop
      vertex   1.000000e-001 -8.000000e-001 5.000000e-001
      vertex   5.738076e-001 -6.412878e-002 5.000000e-001
      vertex   5.876202e-001 -9.375000e-002 5.000000e-001
    endloop
  endfacet
  facet normal 1.780173e-016 1.246491e-016 -1.000000e+000
    outer loop
      vertex   6.063667e-001 -1.205227e-001 5.000000e-001
      vertex   1.000000e-001 -8.000000e-001 5.000000e-001
      vertex   5.876202e-001 -9.375000e-002 5.000000e-001
    endloop
  endfacet
  facet normal 1.474378e-016 1.474378e-016 -1.000000e+000
    outer loop
      vertex   6.063667e-001 -1.205227e-001 5.000000e-001
      vertex   6.294773e-001 -1.436333e-001 5.000000e-001
      vertex   1.000000e-001 -8.000000e-001 5.000000e-001
    endloop
  endfacet
  facet normal -1.754929e-017 2.805295e-016 -1.000000e+000
    outer loop
      vertex   1.000000e-001 -8.000000e-001 5.000000e-001
      vertex   6.294773e-001 -1.436333e-001 5.000000e-001
      vertex   6.427876e-001 -7.660444e-001 5.000000e-001
    endloop
  endfacet
  facet normal 0.000000e+000 0.000000e+000 -1.000000e+000
    outer loop
      vertex   5.000000e-001 -8.660254e-001 5.000000e-001
      vertex   1.000000e-001 -8.000000e-001 5.000000e-001
      vertex   6.427876e-001 -7.660444e-001 5.000000e-001
    endloop
  endfacet
  facet normal 0.000000e+000 0.000000e+000 -1.000000e+000
    outer loop
      vertex   5.000000e-001 -8.660254e-001 5.000000e-001
      vertex   3.420201e-001 -9.396926e-001 5.000000e-001
      vertex   1.000000e-001 -8.000000e-001 5.000000e-001
    endloop
  endfacet
  facet normal 0.000000e+000 0.000000e+000 -1.000000e+000
    outer loop
      vertex   1.000000e-001 -8.000000e-001 5.000000e-001
      vertex   3.420201e-001 -9.396926e-001 5.000000e-001
      vertex   1.736482e-001 -9.848078e-001 5.000000e-001
    endloop
  endfacet
  facet normal 0.000000e+000 0.000000e+000 -1.000000e+000
    outer loop
      vertex   -1.836910e-016 -1.000000e+000 5.000000e-001
      vertex   1.000000e-001 -8.000000e-001 5.000000e-001
      vertex   1.736482e-001 -9.848078e-001 5.000000e-001
    endloop
  endfacet
  facet normal 0.000000e+000 0.000000e+000 -1.000000e+000
    outer loop
      vertex   -1.836910e-016 -1.000000e+000 5.000000e-001
      vertex   -1.000000e-001 -8.000000e-001 5.000000e-001
      vertex   1.000000e-001 -8.000000e-001 5.000000e-001
    endloop
  endfacet
  facet normal 0.000000e+000 0.000000e+000 -1.000000e+000
    outer loop
      vertex   -1.836910e-016 -1.000000e+000 5.000000e-001
      vertex   -1.736482e-001 -9.848078e-001 5.000000e-001
      vertex   -1.000000e-001 -8.000000e-001 5.000000e-001
    endloop
  endfacet
  facet normal 0.000000e+000 0.000000e+000 -1.000000e+000
    outer loop
      vertex   -1.000000e-001 -8.000000e-001 5.000000e-001
      vertex   -1.736482e-001 -9.848078e-001 5.000000e-001
      vertex   -3.420201e-001 -9.396926e-001 5.000000e-001
    endloop
  endfacet
  facet normal 0.000000e+000 0.000000e+000 -1.000000e+000
    outer loop
      vertex   -5.000000e-001 -8.660254e-001 5.000000e-001
      vertex   -1.000000e-001 -8.000000e-001 5.000000e-001
      vertex   -3.420201e-001 -9.396926e-001 5.000000e-001
    endloop
  endfacet
  facet normal 0.000000e+000 0.000000e+000 -1.000000e+000
    outer loop
      vertex   -5.000000e-001 -8.660254e-001 5.000000e-001
      vertex   -6.427876e-001 -7.660444e-001 5.000000e-001
      vertex   -1.000000e-001 -8.000000e-001 5.000000e-001
    endloop
  endfacet
  facet normal 0.000000e+000 0.000000e+000 -1.000000e+000
    outer loop
      vertex   -1.000000e-001 -8.000000e-001 5.000000e-001
      vertex   -6.427876e-001 -7.660444e-001 5.000000e-001
      vertex   -7.660444e-001 -6.427876e-001 5.000000e-001
    endloop
  endfacet
  facet normal 0.000000e+000 0.000000e+000 -1.000000e+000
    outer loop
      vertex   -8.660254e-001 -5.000000e-001 5.000000e-001
      vertex   -1.000000e-001 -8.000000e-001 5.000000e-001
      vertex   -7.660444e-001 -6.427876e-001 5.000000e-001
    endloop
  endfacet
  facet normal 2.651303e-016 6.769885e-016 -1.000000e+000
    outer loop
      vertex   -8.660254e-001 -5.000000e-001 5.000000e-001
      vertex   -9.396926e-001 -3.420201e-001 5.000000e-001
      vertex   -1.000000e-001 -8.000000e-001 5.000000e-001
    endloop
  endfacet
  facet normal -1.219273e-016 -3.267033e-017 -1.000000e+000
    outer loop
      vertex   -1.000000e-001 -8.000000e-001 5.000000e-001
      vertex   -9.396926e-001 -3.420201e-001 5.000000e-001
      vertex   -9.848078e-001 -1.736482e-001 5.000000e-001
    endloop
  endfacet
  facet normal -1.053231e-016 -9.214578e-018 -1.000000e+000
    outer loop
      vertex   -1.000000e+000 6.782368e-017 5.000000e-001
      vertex   -1.000000e-001 -8.000000e-001 5.000000e-001
      vertex   -9.848078e-001 -1.736482e-001 5.000000e-001
    endloop
  endfacet
  facet normal -9.012366e-017 7.884799e-018 -1.000000e+000
    outer loop
      vertex   -1.000000e+000 6.782368e-017 5.000000e-001
      vertex   -9.848078e-001 1.736482e-001 5.000000e-001
      vertex   -1.000000e-001 -8.000000e-001 5.000000e-001
    endloop
  endfacet
  facet normal 2.144558e-017 1.092739e-016 -1.000000e+000
    outer loop
      vertex   -1.000000e-001 -8.000000e-001 5.000000e-001
      vertex   -9.848078e-001 1.736482e-001 5.000000e-001
      vertex   -1.000000e-001 8.000000e-001 5.000000e-001
    endloop
  endfacet
  facet normal 1.219273e-016 -3.267033e-017 -1.000000e+000
    outer loop
      vertex   -1.000000e-001 8.000000e-001 5.000000e-001
      vertex   -9.848078e-001 1.736482e-001 5.000000e-001
      vertex   -9.396926e-001 3.420201e-001 5.000000e-001
    endloop
  endfacet
  facet normal -2.651303e-016 6.769885e-016 -1.000000e+000
    outer loop
      vertex   -8.660254e-001 5.000000e-001 5.000000e-001
      vertex   -1.000000e-001 8.000000e-001 5.000000e-001
      vertex   -9.396926e-001 3.420201e-001 5.000000e-001
    endloop
  endfacet
  facet normal 0.000000e+000 0.000000e+000 -1.000000e+000
    outer loop
      vertex   -8.660254e-001 5.000000e-001 5.000000e-001
      vertex   -7.660444e-001 6.427876e-001 5.000000e-001
      vertex   -1.000000e-001 8.000000e-001 5.000000e-001
    endloop
  endfacet
  facet normal 0.000000e+000 0.000000e+000 -1.000000e+000
    outer loop
      vertex   -1.000000e-001 8.000000e-001 5.000000e-001
      vertex   -7.660444e-001 6.427876e-001 5.000000e-001
      vertex   -6.427876e-001 7.660444e-001 5.000000e-001
    endloop
  endfacet
  facet normal 0.000000e+000 0.000000e+000 -1.000000e+000
    outer loop
      vertex   -5.000000e-001 8.660254e-001 5.000000e-001
      vertex   -1.000000e-001 8.000000e-001 5.000000e-001
      vertex   -6.427876e-001 7.660444e-001 5.000000e-001
    endloop
  endfacet
  facet normal 0.000000e+000 0.000000e+000 -1.000000e+000
    outer loop
      vertex   -5.000000e-001 8.660254e-001 5.000000e-001
      vertex   -3.420201e-001 9.396926e-001 5.000000e-001
      vertex   -1.000000e-001 8.000000e-001 5.000000e-001
    endloop
  endfacet
  facet normal 0.000000e+000 0.000000e+000 -1.000000e+000
    outer loop
      vertex   -1.000000e-001 8.000000e-001 5.000000e-001
      vertex   -3.420201e-001 9.396926e-001 5.000000e-001
      vertex   -1.736482e-001 9.848078e-001 5.000000e-001
    endloop
  endfacet
  facet normal 0.000000e+000 0.000000e+000 -1.000000e+000
    outer loop
      vertex   6.123032e-017 1.000000e+000 5.000000e-001
      vertex   -1.000000e-001 8.000000e-001 5.000000e-001
      vertex   -1.736482e-001 9.848078e-001 5.000000e-001
    endloop
  endfacet
  facet normal 0.000000e+000 0.000000e+000 -1.000000e+000
    outer loop
      vertex   6.123032e-017 1.000000e+000 5.000000e-001
      vertex   1.000000e-001 8.000000e-001 5.000000e-001
      vertex   -1.000000e-001 8.000000e-001 5.000000e-001
    endloop
  endfacet
  facet normal 0.000000e+000 0.000000e+000 -1.000000e+000
    outer loop
      vertex   6.123032e-017 1.000000e+000 5.000000e-001
      vertex   1.736482e-001 9.848078e-001 5.000000e-001
      vertex   1.000000e-001 8.000000e-001 5.000000e-001
    endloop
  endfacet
  facet normal 0.000000e+000 0.000000e+000 -1.000000e+000
    outer loop
      vertex   1.000000e-001 8.000000e-001 5.000000e-001
      vertex   1.736482e-001 9.848078e-001 5.000000e-001
      vertex   3.420201e-001 9.396926e-001 5.000000e-001
    endloop
  endfacet
  facet normal 0.000000e+000 0.000000e+000 -1.000000e+000
    outer loop
      vertex   5.000000e-001 8.660254e-001 5.000000e-001
      vertex   1.000000e-001 8.000000e-001 5.000000e-001
      vertex   3.420201e-001 9.396926e-001 5.000000e-001
    endloop
  endfacet
  facet normal 0.000000e+000 0.000000e+000 -1.000000e+000
    outer loop
      vertex   5.000000e-001 8.660254e-001 5.000000e-001
      vertex   6.427876e-001 7.660444e-001 5.000000e-001
      vertex   1.000000e-001 8.000000e-001 5.000000e-001
    endloop
  endfacet
  facet normal 0.000000e+000 0.000000e+000 -1.000000e+000
    outer loop
      vertex   1.000000e-001 8.000000e-001 5.000000e-001
      vertex   6.427876e-001 7.660444e-001 5.000000e-001
      vertex   6.294773e-001 1.436333e-001 5.000000e-001
    endloop
  endfacet
  facet normal 0.000000e+000 0.000000e+000 -1.000000e+000
    outer loop
      vertex   6.063667e-001 1.205227e-001 5.000000e-001
      vertex   1.000000e-001 8.000000e-001 5.000000e-001
      vertex   6.294773e-001 1.436333e-001 5.000000e-001
    endloop
  endfacet
  facet normal 0.000000e+000 0.000000e+000 -1.000000e+000
    outer loop
      vertex   6.063667e-001 1.205227e-001 5.000000e-001
      vertex   5.876202e-001 9.375000e-002 5.000000e-001
      vertex   1.000000e-001 8.000000e-001 5.000000e-001
    endloop
  endfacet
  facet normal 0.000000e+000 0.000000e+000 -1.000000e+000
    outer loop
      vertex   1.000000e-001 8.000000e-001 5.000000e-001
      vertex   5.876202e-001 9.375000e-002 5.000000e-001
      vertex   5.738076e-001 6.412878e-002 5.000000e-001
    endloop
  endfacet
  facet normal 0.000000e+000 0.000000e+000 -1.000000e+000
    outer loop
      vertex   5.653485e-001 3.255903e-002 5.000000e-001
      vertex   1.000000e-001 8.000000e-001 5.000000e-001
      vertex   5.738076e-001 6.412878e-002 5.000000e-001
    endloop
  endfacet
  facet normal 0.000000e+000 0.000000e+000 -1.000000e+000
    outer loop
      vertex   5.653485e-001 3.255903e-002 5.000000e-001
      vertex   5.625000e-001 1.424715e-017 5.000000e-001
      vertex   1.000000e-001 8.000000e-001 5.000000e-001
    endloop
  endfacet
  facet normal 1.890143e-016 1.092739e-016 -1.000000e+000
    outer loop
      vertex   1.000000e-001 8.000000e-001 5.000000e-001
      vertex   5.625000e-001 1.424715e-017 5.000000e-001
      vertex   1.000000e-001 -8.000000e-001 5.000000e-001
    endloop
  endfacet
  facet normal -2.750234e-016 2.750234e-016 -1.000000e+000
    outer loop
      vertex   6.427876e-001 -7.660444e-001 5.000000e-001
      vertex   6.294773e-001 -1.436333e-001 5.000000e-001
      vertex   7.660444e-001 -6.427876e-001 5.000000e-001
    endloop
  endfacet
  facet normal 3.033811e-016 4.332732e-016 -1.000000e+000
    outer loop
      vertex   7.660444e-001 -6.427876e-001 5.000000e-001
      vertex   6.294773e-001 -1.436333e-001 5.000000e-001
      vertex   6.562500e-001 -1.623798e-001 5.000000e-001
    endloop
  endfacet
  facet normal 1.899500e-016 4.073492e-016 -1.000000e+000
    outer loop
      vertex   6.858712e-001 -1.761924e-001 5.000000e-001
      vertex   7.660444e-001 -6.427876e-001 5.000000e-001
      vertex   6.562500e-001 -1.623798e-001 5.000000e-001
    endloop
  endfacet
  facet normal -4.296977e-016 3.008775e-016 -1.000000e+000
    outer loop
      vertex   6.858712e-001 -1.761924e-001 5.000000e-001
      vertex   8.660254e-001 -5.000000e-001 5.000000e-001
      vertex   7.660444e-001 -6.427876e-001 5.000000e-001
    endloop
  endfacet
  facet normal 1.700245e-016 6.345400e-016 -1.000000e+000
    outer loop
      vertex   6.858712e-001 -1.761924e-001 5.000000e-001
      vertex   7.174410e-001 -1.846515e-001 5.000000e-001
      vertex   8.660254e-001 -5.000000e-001 5.000000e-001
    endloop
  endfacet
  facet normal 5.059174e-017 5.782662e-016 -1.000000e+000
    outer loop
      vertex   8.660254e-001 -5.000000e-001 5.000000e-001
      vertex   7.174410e-001 -1.846515e-001 5.000000e-001
      vertex   7.500000e-001 -1.875000e-001 5.000000e-001
    endloop
  endfacet
  facet normal -4.469587e-017 5.108762e-016 -1.000000e+000
    outer loop
      vertex   9.396926e-001 -3.420201e-001 5.000000e-001
      vertex   7.500000e-001 -1.875000e-001 5.000000e-001
      vertex   7.825590e-001 -1.846515e-001 5.000000e-001
    endloop
  endfacet
  facet normal -1.174291e-016 4.382516e-016 -1.000000e+000
    outer loop
      vertex   8.141288e-001 -1.761924e-001 5.000000e-001
      vertex   9.396926e-001 -3.420201e-001 5.000000e-001
      vertex   7.825590e-001 -1.846515e-001 5.000000e-001
    endloop
  endfacet
  facet normal -1.816756e-016 3.896045e-016 -1.000000e+000
    outer loop
      vertex   8.141288e-001 -1.761924e-001 5.000000e-001
      vertex   8.437500e-001 -1.623798e-001 5.000000e-001
      vertex   9.396926e-001 -3.420201e-001 5.000000e-001
    endloop
  endfacet
  facet normal -6.067524e-016 1.625788e-016 -1.000000e+000
    outer loop
      vertex   9.396926e-001 -3.420201e-001 5.000000e-001
      vertex   8.437500e-001 -1.623798e-001 5.000000e-001
      vertex   9.848078e-001 -1.736482e-001 5.000000e-001
    endloop
  endfacet
  facet normal -5.562758e-016 7.944441e-016 -1.000000e+000
    outer loop
      vertex   9.848078e-001 -1.736482e-001 5.000000e-001
      vertex   8.437500e-001 -1.623798e-001 5.000000e-001
      vertex   8.705227e-001 -1.436333e-001 5.000000e-001
    endloop
  endfacet
  facet normal -6.058155e-016 6.058155e-016 -1.000000e+000
    outer loop
      vertex   8.936333e-001 -1.205227e-001 5.000000e-001
      vertex   9.848078e-001 -1.736482e-001 5.000000e-001
      vertex   8.705227e-001 -1.436333e-001 5.000000e-001
    endloop
  endfacet
  facet normal -6.809760e-016 4.768245e-016 -1.000000e+000
    outer loop
      vertex   8.936333e-001 -1.205227e-001 5.000000e-001
      vertex   9.123798e-001 -9.375000e-002 5.000000e-001
      vertex   9.848078e-001 -1.736482e-001 5.000000e-001
    endloop
  endfacet
  facet normal -7.970009e-016 3.716476e-016 -1.000000e+000
    outer loop
      vertex   9.848078e-001 -1.736482e-001 5.000000e-001
      vertex   9.123798e-001 -9.375000e-002 5.000000e-001
      vertex   9.261924e-001 -6.412878e-002 5.000000e-001
    endloop
  endfacet
  facet normal -1.543843e-015 4.136714e-016 -1.000000e+000
    outer loop
      vertex   1.000000e+000 -5.463696e-017 5.000000e-001
      vertex   9.261924e-001 -6.412878e-002 5.000000e-001
      vertex   9.346515e-001 -3.255903e-002 5.000000e-001
    endloop
  endfacet
  facet normal -1.398706e-015 1.223709e-016 -1.000000e+000
    outer loop
      vertex   9.375000e-001 3.720852e-017 5.000000e-001
      vertex   1.000000e+000 -5.463696e-017 5.000000e-001
      vertex   9.346515e-001 -3.255903e-002 5.000000e-001
    endloop
  endfacet
  facet normal -1.398706e-015 -1.223709e-016 -1.000000e+000
    outer loop
      vertex   9.375000e-001 3.720852e-017 5.000000e-001
      vertex   9.346515e-001 3.255903e-002 5.000000e-001
      vertex   1.000000e+000 -5.463696e-017 5.000000e-001
    endloop
  endfacet
  facet normal -1.543843e-015 -4.136714e-016 -1.000000e+000
    outer loop
      vertex   1.000000e+000 -5.463696e-017 5.000000e-001
      vertex   9.346515e-001 3.255903e-002 5.000000e-001
      vertex   9.261924e-001 6.412878e-002 5.000000e-001
    endloop
  endfacet
  facet normal -7.970009e-016 -3.716476e-016 -1.000000e+000
    outer loop
      vertex   9.848078e-001 1.736482e-001 5.000000e-001
      vertex   9.261924e-001 6.412878e-002 5.000000e-001
      vertex   9.123798e-001 9.375000e-002 5.000000e-001
    endloop
  endfacet
  facet normal -6.809760e-016 -4.768245e-016 -1.000000e+000
    outer loop
      vertex   8.936333e-001 1.205227e-001 5.000000e-001
      vertex   9.848078e-001 1.736482e-001 5.000000e-001
      vertex   9.123798e-001 9.375000e-002 5.000000e-001
    endloop
  endfacet
  facet normal -6.058155e-016 -6.058155e-016 -1.000000e+000
    outer loop
      vertex   8.936333e-001 1.205227e-001 5.000000e-001
      vertex   8.705227e-001 1.436333e-001 5.000000e-001
      vertex   9.848078e-001 1.736482e-001 5.000000e-001
    endloop
  endfacet
  facet normal -5.562758e-016 -7.944441e-016 -1.000000e+000
    outer loop
      vertex   9.848078e-001 1.736482e-001 5.000000e-001
      vertex   8.705227e-001 1.436333e-001 5.000000e-001
      vertex   8.437500e-001 1.623798e-001 5.000000e-001
    endloop
  endfacet
  facet normal -1.816756e-016 -3.896045e-016 -1.000000e+000
    outer loop
      vertex   9.396926e-001 3.420201e-001 5.000000e-001
      vertex   8.437500e-001 1.623798e-001 5.000000e-001
      vertex   8.141288e-001 1.761924e-001 5.000000e-001
    endloop
  endfacet
  facet normal -1.174291e-016 -4.382516e-016 -1.000000e+000
    outer loop
      vertex   7.825590e-001 1.846515e-001 5.000000e-001
      vertex   9.396926e-001 3.420201e-001 5.000000e-001
      vertex   8.141288e-001 1.761924e-001 5.000000e-001
    endloop
  endfacet
  facet normal -4.469587e-017 -5.108762e-016 -1.000000e+000
    outer loop
      vertex   7.825590e-001 1.846515e-001 5.000000e-001
      vertex   7.500000e-001 1.875000e-001 5.000000e-001
      vertex   9.396926e-001 3.420201e-001 5.000000e-001
    endloop
  endfacet
  facet normal -6.606537e-016 2.452883e-016 -1.000000e+000
    outer loop
      vertex   9.396926e-001 3.420201e-001 5.000000e-001
      vertex   7.500000e-001 1.875000e-001 5.000000e-001
      vertex   8.660254e-001 5.000000e-001 5.000000e-001
    endloop
  endfacet
  facet normal 0.000000e+000 0.000000e+000 -1.000000e+000
    outer loop
      vertex   8.660254e-001 5.000000e-001 5.000000e-001
      vertex   7.500000e-001 1.875000e-001 5.000000e-001
      vertex   7.174410e-001 1.846515e-001 5.000000e-001
    endloop
  endfacet
  facet normal 0.000000e+000 0.000000e+000 -1.000000e+000
    outer loop
      vertex   6.858712e-001 1.761924e-001 5.000000e-001
      vertex   8.660254e-001 5.000000e-001 5.000000e-001
      vertex   7.174410e-001 1.846515e-001 5.000000e-001
    endloop
  endfacet
  facet normal 0.000000e+000 0.000000e+000 -1.000000e+000
    outer loop
      vertex   6.858712e-001 1.761924e-001 5.000000e-001
      vertex   7.660444e-001 6.427876e-001 5.000000e-001
      vertex   8.660254e-001 5.000000e-001 5.000000e-001
    endloop
  endfacet
  facet normal 0.000000e+000 0.000000e+000 -1.000000e+000
    outer loop
      vertex   6.858712e-001 1.761924e-001 5.000000e-001
      vertex   6.562500e-001 1.623798e-001 5.000000e-001
      vertex   7.660444e-001 6.427876e-001 5.000000e-001
    endloop
  endfacet
  facet normal 0.000000e+000 0.000000e+000 -1.000000e+000
    outer loop
      vertex   7.660444e-001 6.427876e-001 5.000000e-001
      vertex   6.562500e-001 1.623798e-001 5.000000e-001
      vertex   6.294773e-001 1.436333e-001 5.000000e-001
    endloop
  endfacet
  facet normal 0.000000e+000 0.000000e+000 -1.000000e+000
    outer loop
      vertex   6.427876e-001 7.660444e-001 5.000000e-001
      vertex   7.660444e-001 6.427876e-001 5.000000e-001
      vertex   6.294773e-001 1.436333e-001 5.000000e-001
    endloop
  endfacet
  facet normal -1.281860e-015 1.121482e-016 -1.000000e+000
    outer loop
      vertex   1.000000e+000 -5.463696e-017 5.000000e-001
      vertex   9.848078e-001 -1.736482e-001 5.000000e-001
      vertex   9.261924e-001 -6.412878e-002 5.000000e-001
    endloop
  endfacet
  facet normal -7.314151e-018 5.567669e-016 -1.000000e+000
    outer loop
      vertex   9.396926e-001 -3.420201e-001 5.000000e-001
      vertex   8.660254e-001 -5.000000e-001 5.000000e-001
      vertex   7.500000e-001 -1.875000e-001 5.000000e-001
    endloop
  endfacet
  facet normal -6.067524e-016 -1.625788e-016 -1.000000e+000
    outer loop
      vertex   9.396926e-001 3.420201e-001 5.000000e-001
      vertex   9.848078e-001 1.736482e-001 5.000000e-001
      vertex   8.437500e-001 1.623798e-001 5.000000e-001
    endloop
  endfacet
  facet normal -1.281860e-015 -1.121482e-016 -1.000000e+000
    outer loop
      vertex   9.848078e-001 1.736482e-001 5.000000e-001
      vertex   1.000000e+000 -5.463696e-017 5.000000e-001
      vertex   9.261924e-001 6.412878e-002 5.000000e-001
    endloop
  endfacet
  facet normal 9.961947e-001 -8.715574e-002 9.523850e-018
    outer loop
      vertex   9.848078e-001 -1.736482e-001 7.000000e-001
      vertex   9.848078e-001 -1.736482e-001 5.000000e-001
      vertex   1.000000e+000 -7.649174e-017 7.000000e-001
    endloop
  endfacet
  facet normal 9.659258e-001 -2.588190e-001 3.085083e-017
    outer loop
      vertex   9.848078e-001 -1.736482e-001 7.000000e-001
      vertex   9.396926e-001 -3.420201e-001 5.000000e-001
      vertex   9.848078e-001 -1.736482e-001 5.000000e-001
    endloop
  endfacet
  facet normal 9.659258e-001 -2.588190e-001 -1.571618e-015
    outer loop
      vertex   9.848078e-001 -1.736482e-001 7.000000e-001
      vertex   9.396926e-001 -3.420201e-001 7.000000e-001
      vertex   9.396926e-001 -3.420201e-001 5.000000e-001
    endloop
  endfacet
  facet normal 9.063078e-001 -4.226183e-001 -8.067001e-016
    outer loop
      vertex   9.396926e-001 -3.420201e-001 5.000000e-001
      vertex   9.396926e-001 -3.420201e-001 7.000000e-001
      vertex   8.660254e-001 -5.000000e-001 5.000000e-001
    endloop
  endfacet
  facet normal 9.063078e-001 -4.226183e-001 3.085083e-016
    outer loop
      vertex   8.660254e-001 -5.000000e-001 5.000000e-001
      vertex   9.396926e-001 -3.420201e-001 7.000000e-001
      vertex   8.660254e-001 -5.000000e-001 7.000000e-001
    endloop
  endfacet
  facet normal 8.191520e-001 -5.735764e-001 -5.553149e-016
    outer loop
      vertex   7.660444e-001 -6.427876e-001 5.000000e-001
      vertex   8.660254e-001 -5.000000e-001 7.000000e-001
      vertex   7.660444e-001 -6.427876e-001 7.000000e-001
    endloop
  endfacet
  facet normal 7.071068e-001 -7.071068e-001 6.170165e-016
    outer loop
      vertex   6.427876e-001 -7.660444e-001 5.000000e-001
      vertex   7.660444e-001 -6.427876e-001 7.000000e-001
      vertex   6.427876e-001 -7.660444e-001 7.000000e-001
    endloop
  endfacet
  facet normal 5.735764e-001 -8.191520e-001 0.000000e+000
    outer loop
      vertex   5.000000e-001 -8.660254e-001 5.000000e-001
      vertex   6.427876e-001 -7.660444e-001 7.000000e-001
      vertex   5.000000e-001 -8.660254e-001 7.000000e-001
    endloop
  endfacet
  facet normal 4.226183e-001 -9.063078e-001 -6.170165e-016
    outer loop
      vertex   3.420201e-001 -9.396926e-001 5.000000e-001
      vertex   5.000000e-001 -8.660254e-001 7.000000e-001
      vertex   3.420201e-001 -9.396926e-001 7.000000e-001
    endloop
  endfacet
  facet normal 2.588190e-001 -9.659258e-001 2.468066e-016
    outer loop
      vertex   1.736482e-001 -9.848078e-001 5.000000e-001
      vertex   3.420201e-001 -9.396926e-001 7.000000e-001
      vertex   1.736482e-001 -9.848078e-001 7.000000e-001
    endloop
  endfacet
  facet normal 8.715574e-002 -9.961947e-001 -1.079779e-016
    outer loop
      vertex   -1.836910e-016 -1.000000e+000 5.000000e-001
      vertex   1.736482e-001 -9.848078e-001 7.000000e-001
      vertex   6.123032e-017 -1.000000e+000 7.000000e-001
    endloop
  endfacet
  facet normal -8.715574e-002 -9.961947e-001 0.000000e+000
    outer loop
      vertex   -1.736482e-001 -9.848078e-001 5.000000e-001
      vertex   6.123032e-017 -1.000000e+000 7.000000e-001
      vertex   -1.736482e-001 -9.848078e-001 7.000000e-001
    endloop
  endfacet
  facet normal -2.588190e-001 -9.659258e-001 0.000000e+000
    outer loop
      vertex   -3.420201e-001 -9.396926e-001 5.000000e-001
      vertex   -1.736482e-001 -9.848078e-001 7.000000e-001
      vertex   -3.420201e-001 -9.396926e-001 7.000000e-001
    endloop
  endfacet
  facet normal -4.226183e-001 -9.063078e-001 6.787182e-016
    outer loop
      vertex   -5.000000e-001 -8.660254e-001 5.000000e-001
      vertex   -3.420201e-001 -9.396926e-001 7.000000e-001
      vertex   -5.000000e-001 -8.660254e-001 7.000000e-001
    endloop
  endfacet
  facet normal -5.735764e-001 -8.191520e-001 4.936132e-016
    outer loop
      vertex   -6.427876e-001 -7.660444e-001 5.000000e-001
      vertex   -5.000000e-001 -8.660254e-001 7.000000e-001
      vertex   -6.427876e-001 -7.660444e-001 7.000000e-001
    endloop
  endfacet
  facet normal -7.071068e-001 -7.071068e-001 -6.170165e-016
    outer loop
      vertex   -7.660444e-001 -6.427876e-001 5.000000e-001
      vertex   -6.427876e-001 -7.660444e-001 7.000000e-001
      vertex   -7.660444e-001 -6.427876e-001 7.000000e-001
    endloop
  endfacet
  facet normal -8.191520e-001 -5.735764e-001 0.000000e+000
    outer loop
      vertex   -8.660254e-001 -5.000000e-001 5.000000e-001
      vertex   -7.660444e-001 -6.427876e-001 7.000000e-001
      vertex   -8.660254e-001 -5.000000e-001 7.000000e-001
    endloop
  endfacet
  facet normal -9.063078e-001 -4.226183e-001 2.468066e-016
    outer loop
      vertex   -9.396926e-001 -3.420201e-001 5.000000e-001
      vertex   -8.660254e-001 -5.000000e-001 7.000000e-001
      vertex   -9.396926e-001 -3.420201e-001 7.000000e-001
    endloop
  endfacet
  facet normal -9.659258e-001 -2.588190e-001 -3.085083e-017
    outer loop
      vertex   -9.848078e-001 -1.736482e-001 5.000000e-001
      vertex   -9.396926e-001 -3.420201e-001 7.000000e-001
      vertex   -9.848078e-001 -1.736482e-001 7.000000e-001
    endloop
  endfacet
  facet normal -9.961947e-001 -8.715574e-002 -1.234033e-016
    outer loop
      vertex   -1.000000e+000 6.782368e-017 5.000000e-001
      vertex   -9.848078e-001 -1.736482e-001 7.000000e-001
      vertex   -1.000000e+000 -1.989524e-016 7.000000e-001
    endloop
  endfacet
  facet normal -9.961947e-001 8.715574e-002 -5.707403e-016
    outer loop
      vertex   -9.848078e-001 1.736482e-001 5.000000e-001
      vertex   -1.000000e+000 -1.989524e-016 7.000000e-001
      vertex   -9.848078e-001 1.736482e-001 7.000000e-001
    endloop
  endfacet
  facet normal -9.659258e-001 2.588190e-001 -4.936132e-016
    outer loop
      vertex   -9.396926e-001 3.420201e-001 5.000000e-001
      vertex   -9.848078e-001 1.736482e-001 7.000000e-001
      vertex   -9.396926e-001 3.420201e-001 7.000000e-001
    endloop
  endfacet
  facet normal -9.063078e-001 4.226183e-001 -1.851050e-016
    outer loop
      vertex   -8.660254e-001 5.000000e-001 5.000000e-001
      vertex   -9.396926e-001 3.420201e-001 7.000000e-001
      vertex   -8.660254e-001 5.000000e-001 7.000000e-001
    endloop
  endfacet
  facet normal -8.191520e-001 5.735764e-001 4.936132e-016
    outer loop
      vertex   -7.660444e-001 6.427876e-001 5.000000e-001
      vertex   -8.660254e-001 5.000000e-001 7.000000e-001
      vertex   -7.660444e-001 6.427876e-001 7.000000e-001
    endloop
  endfacet
  facet normal -7.071068e-001 7.071068e-001 -6.170165e-016
    outer loop
      vertex   -6.427876e-001 7.660444e-001 5.000000e-001
      vertex   -7.660444e-001 6.427876e-001 7.000000e-001
      vertex   -6.427876e-001 7.660444e-001 7.000000e-001
    endloop
  endfacet
  facet normal -5.735764e-001 8.191520e-001 -1.295735e-015
    outer loop
      vertex   -5.000000e-001 8.660254e-001 5.000000e-001
      vertex   -6.427876e-001 7.660444e-001 7.000000e-001
      vertex   -5.000000e-001 8.660254e-001 7.000000e-001
    endloop
  endfacet
  facet normal -4.226183e-001 9.063078e-001 -5.553149e-016
    outer loop
      vertex   -3.420201e-001 9.396926e-001 5.000000e-001
      vertex   -5.000000e-001 8.660254e-001 7.000000e-001
      vertex   -3.420201e-001 9.396926e-001 7.000000e-001
    endloop
  endfacet
  facet normal -2.588190e-001 9.659258e-001 0.000000e+000
    outer loop
      vertex   -1.736482e-001 9.848078e-001 5.000000e-001
      vertex   -3.420201e-001 9.396926e-001 7.000000e-001
      vertex   -1.736482e-001 9.848078e-001 7.000000e-001
    endloop
  endfacet
  facet normal -8.715574e-002 9.961947e-001 -1.079779e-016
    outer loop
      vertex   6.123032e-017 1.000000e+000 5.000000e-001
      vertex   -1.736482e-001 9.848078e-001 7.000000e-001
      vertex   -1.836910e-016 1.000000e+000 7.000000e-001
    endloop
  endfacet
  facet normal 8.715574e-002 9.961947e-001 -6.632928e-016
    outer loop
      vertex   1.736482e-001 9.848078e-001 5.000000e-001
      vertex   -1.836910e-016 1.000000e+000 7.000000e-001
      vertex   1.736482e-001 9.848078e-001 7.000000e-001
    endloop
  endfacet
  facet normal 2.588190e-001 9.659258e-001 0.000000e+000
    outer loop
      vertex   3.420201e-001 9.396926e-001 5.000000e-001
      vertex   1.736482e-001 9.848078e-001 7.000000e-001
      vertex   3.420201e-001 9.396926e-001 7.000000e-001
    endloop
  endfacet
  facet normal 4.226183e-001 9.063078e-001 0.000000e+000
    outer loop
      vertex   5.000000e-001 8.660254e-001 5.000000e-001
      vertex   3.420201e-001 9.396926e-001 7.000000e-001
      vertex   5.000000e-001 8.660254e-001 7.000000e-001
    endloop
  endfacet
  facet normal 5.735764e-001 8.191520e-001 -7.404199e-016
    outer loop
      vertex   6.427876e-001 7.660444e-001 5.000000e-001
      vertex   5.000000e-001 8.660254e-001 7.000000e-001
      vertex   6.427876e-001 7.660444e-001 7.000000e-001
    endloop
  endfacet
  facet normal 7.071068e-001 7.071068e-001 3.085083e-016
    outer loop
      vertex   7.660444e-001 6.427876e-001 5.000000e-001
      vertex   6.427876e-001 7.660444e-001 7.000000e-001
      vertex   7.660444e-001 6.427876e-001 7.000000e-001
    endloop
  endfacet
  facet normal 8.191520e-001 5.735764e-001 -8.021215e-016
    outer loop
      vertex   8.660254e-001 5.000000e-001 5.000000e-001
      vertex   7.660444e-001 6.427876e-001 7.000000e-001
      vertex   8.660254e-001 5.000000e-001 7.000000e-001
    endloop
  endfacet
  facet normal 9.063078e-001 4.226183e-001 8.021215e-016
    outer loop
      vertex   9.396926e-001 3.420201e-001 5.000000e-001
      vertex   8.660254e-001 5.000000e-001 7.000000e-001
      vertex   9.396926e-001 3.420201e-001 7.000000e-001
    endloop
  endfacet
  facet normal 9.659258e-001 2.588190e-001 -3.085083e-017
    outer loop
      vertex   9.848078e-001 1.736482e-001 5.000000e-001
      vertex   9.396926e-001 3.420201e-001 7.000000e-001
      vertex   9.848078e-001 1.736482e-001 7.000000e-001
    endloop
  endfacet
  facet normal 9.961947e-001 8.715574e-002 0.000000e+000
    outer loop
      vertex   1.000000e+000 -5.463696e-017 5.000000e-001
      vertex   9.848078e-001 1.736482e-001 7.000000e-001
      vertex   1.000000e+000 -7.649174e-017 7.000000e-001
    endloop
  endfacet
  facet normal 9.961947e-001 -8.715574e-002 -9.523850e-018
    outer loop
      vertex   9.848078e-001 -1.736482e-001 5.000000e-001
      vertex   1.000000e+000 -5.463696e-017 5.000000e-001
      vertex   1.000000e+000 -7.649174e-017 7.000000e-001
    endloop
  endfacet
  facet normal 9.961947e-001 8.715574e-002 -9.523850e-018
    outer loop
      vertex   1.000000e+000 -5.463696e-017 5.000000e-001
      vertex   9.848078e-001 1.736482e-001 5.000000e-001
      vertex   9.848078e-001 1.736482e-001 7.000000e-001
    endloop
  endfacet
  facet normal 9.659258e-001 2.588190e-001 1.571618e-015
    outer loop
      vertex   9.848078e-001 1.736482e-001 5.000000e-001
      vertex   9.396926e-001 3.420201e-001 5.000000e-001
      vertex   9.396926e-001 3.420201e-001 7.000000e-001
    endloop
  endfacet
  facet normal 9.063078e-001 4.226183e-001 -3.160613e-016
    outer loop
      vertex   9.396926e-001 3.420201e-001 5.000000e-001
      vertex   8.660254e-001 5.000000e-001 5.000000e-001
      vertex   8.660254e-001 5.000000e-001 7.000000e-001
    endloop
  endfacet
  facet normal 8.191520e-001 5.735764e-001 5.727279e-016
    outer loop
      vertex   8.660254e-001 5.000000e-001 5.000000e-001
      vertex   7.660444e-001 6.427876e-001 5.000000e-001
      vertex   7.660444e-001 6.427876e-001 7.000000e-001
    endloop
  endfacet
  facet normal 7.071068e-001 7.071068e-001 -6.181466e-016
    outer loop
      vertex   7.660444e-001 6.427876e-001 5.000000e-001
      vertex   6.427876e-001 7.660444e-001 5.000000e-001
      vertex   6.427876e-001 7.660444e-001 7.000000e-001
    endloop
  endfacet
  facet normal 5.735764e-001 8.191520e-001 0.000000e+000
    outer loop
      vertex   6.427876e-001 7.660444e-001 5.000000e-001
      vertex   5.000000e-001 8.660254e-001 5.000000e-001
      vertex   5.000000e-001 8.660254e-001 7.000000e-001
    endloop
  endfacet
  facet normal 4.226183e-001 9.063078e-001 5.931482e-016
    outer loop
      vertex   5.000000e-001 8.660254e-001 5.000000e-001
      vertex   3.420201e-001 9.396926e-001 5.000000e-001
      vertex   3.420201e-001 9.396926e-001 7.000000e-001
    endloop
  endfacet
  facet normal 2.588190e-001 9.659258e-001 -2.504784e-016
    outer loop
      vertex   3.420201e-001 9.396926e-001 5.000000e-001
      vertex   1.736482e-001 9.848078e-001 5.000000e-001
      vertex   1.736482e-001 9.848078e-001 7.000000e-001
    endloop
  endfacet
  facet normal 8.715574e-002 9.961947e-001 1.067315e-016
    outer loop
      vertex   1.736482e-001 9.848078e-001 5.000000e-001
      vertex   6.123032e-017 1.000000e+000 5.000000e-001
      vertex   -1.836910e-016 1.000000e+000 7.000000e-001
    endloop
  endfacet
  facet normal -8.715574e-002 9.961947e-001 0.000000e+000
    outer loop
      vertex   6.123032e-017 1.000000e+000 5.000000e-001
      vertex   -1.736482e-001 9.848078e-001 5.000000e-001
      vertex   -1.736482e-001 9.848078e-001 7.000000e-001
    endloop
  endfacet
  facet normal -2.588190e-001 9.659258e-001 -4.061137e-018
    outer loop
      vertex   -1.736482e-001 9.848078e-001 5.000000e-001
      vertex   -3.420201e-001 9.396926e-001 5.000000e-001
      vertex   -3.420201e-001 9.396926e-001 7.000000e-001
    endloop
  endfacet
  facet normal -4.226183e-001 9.063078e-001 -6.855105e-016
    outer loop
      vertex   -3.420201e-001 9.396926e-001 5.000000e-001
      vertex   -5.000000e-001 8.660254e-001 5.000000e-001
      vertex   -5.000000e-001 8.660254e-001 7.000000e-001
    endloop
  endfacet
  facet normal -5.735764e-001 8.191520e-001 -5.014156e-016
    outer loop
      vertex   -5.000000e-001 8.660254e-001 5.000000e-001
      vertex   -6.427876e-001 7.660444e-001 5.000000e-001
      vertex   -6.427876e-001 7.660444e-001 7.000000e-001
    endloop
  endfacet
  facet normal -7.071068e-001 7.071068e-001 6.181466e-016
    outer loop
      vertex   -6.427876e-001 7.660444e-001 5.000000e-001
      vertex   -7.660444e-001 6.427876e-001 5.000000e-001
      vertex   -7.660444e-001 6.427876e-001 7.000000e-001
    endloop
  endfacet
  facet normal -8.191520e-001 5.735764e-001 3.602771e-017
    outer loop
      vertex   -7.660444e-001 6.427876e-001 5.000000e-001
      vertex   -8.660254e-001 5.000000e-001 5.000000e-001
      vertex   -8.660254e-001 5.000000e-001 7.000000e-001
    endloop
  endfacet
  facet normal -9.063078e-001 4.226183e-001 -2.381126e-016
    outer loop
      vertex   -8.660254e-001 5.000000e-001 5.000000e-001
      vertex   -9.396926e-001 3.420201e-001 5.000000e-001
      vertex   -9.396926e-001 3.420201e-001 7.000000e-001
    endloop
  endfacet
  facet normal -9.659258e-001 2.588190e-001 3.234331e-017
    outer loop
      vertex   -9.396926e-001 3.420201e-001 5.000000e-001
      vertex   -9.848078e-001 1.736482e-001 5.000000e-001
      vertex   -9.848078e-001 1.736482e-001 7.000000e-001
    endloop
  endfacet
  facet normal -9.961947e-001 8.715574e-002 1.162553e-016
    outer loop
      vertex   -9.848078e-001 1.736482e-001 5.000000e-001
      vertex   -1.000000e+000 6.782368e-017 5.000000e-001
      vertex   -1.000000e+000 -1.989524e-016 7.000000e-001
    endloop
  endfacet
  facet normal -9.961947e-001 -8.715574e-002 5.756255e-016
    outer loop
      vertex   -1.000000e+000 6.782368e-017 5.000000e-001
      vertex   -9.848078e-001 -1.736482e-001 5.000000e-001
      vertex   -9.848078e-001 -1.736482e-001 7.000000e-001
    endloop
  endfacet
  facet normal -9.659258e-001 -2.588190e-001 5.050180e-016
    outer loop
      vertex   -9.848078e-001 -1.736482e-001 5.000000e-001
      vertex   -9.396926e-001 -3.420201e-001 5.000000e-001
      vertex   -9.396926e-001 -3.420201e-001 7.000000e-001
    endloop
  endfacet
  facet normal -9.063078e-001 -4.226183e-001 2.381126e-016
    outer loop
      vertex   -9.396926e-001 -3.420201e-001 5.000000e-001
      vertex   -8.660254e-001 -5.000000e-001 5.000000e-001
      vertex   -8.660254e-001 -5.000000e-001 7.000000e-001
    endloop
  endfacet
  facet normal -8.191520e-001 -5.735764e-001 -5.014156e-016
    outer loop
      vertex   -8.660254e-001 -5.000000e-001 5.000000e-001
      vertex   -7.660444e-001 -6.427876e-001 5.000000e-001
      vertex   -7.660444e-001 -6.427876e-001 7.000000e-001
    endloop
  endfacet
  facet normal -7.071068e-001 -7.071068e-001 6.181466e-016
    outer loop
      vertex   -7.660444e-001 -6.427876e-001 5.000000e-001
      vertex   -6.427876e-001 -7.660444e-001 5.000000e-001
      vertex   -6.427876e-001 -7.660444e-001 7.000000e-001
    endloop
  endfacet
  facet normal -5.735764e-001 -8.191520e-001 1.289567e-015
    outer loop
      vertex   -6.427876e-001 -7.660444e-001 5.000000e-001
      vertex   -5.000000e-001 -8.660254e-001 5.000000e-001
      vertex   -5.000000e-001 -8.660254e-001 7.000000e-001
    endloop
  endfacet
  facet normal -4.226183e-001 -9.063078e-001 5.931482e-016
    outer loop
      vertex   -5.000000e-001 -8.660254e-001 5.000000e-001
      vertex   -3.420201e-001 -9.396926e-001 5.000000e-001
      vertex   -3.420201e-001 -9.396926e-001 7.000000e-001
    endloop
  endfacet
  facet normal -2.588190e-001 -9.659258e-001 0.000000e+000
    outer loop
      vertex   -3.420201e-001 -9.396926e-001 5.000000e-001
      vertex   -1.736482e-001 -9.848078e-001 5.000000e-001
      vertex   -1.736482e-001 -9.848078e-001 7.000000e-001
    endloop
  endfacet
  facet normal -8.715574e-002 -9.961947e-001 1.067315e-016
    outer loop
      vertex   -1.736482e-001 -9.848078e-001 5.000000e-001
      vertex   -1.836910e-016 -1.000000e+000 5.000000e-001
      vertex   6.123032e-017 -1.000000e+000 7.000000e-001
    endloop
  endfacet
  facet normal 8.715574e-002 -9.961947e-001 6.708640e-016
    outer loop
      vertex   -1.836910e-016 -1.000000e+000 5.000000e-001
      vertex   1.736482e-001 -9.848078e-001 5.000000e-001
      vertex   1.736482e-001 -9.848078e-001 7.000000e-001
    endloop
  endfacet
  facet normal 2.588190e-001 -9.659258e-001 -4.061137e-018
    outer loop
      vertex   1.736482e-001 -9.848078e-001 5.000000e-001
      vertex   3.420201e-001 -9.396926e-001 5.000000e-001
      vertex   3.420201e-001 -9.396926e-001 7.000000e-001
    endloop
  endfacet
  facet normal 4.226183e-001 -9.063078e-001 0.000000e+000
    outer loop
      vertex   3.420201e-001 -9.396926e-001 5.000000e-001
      vertex   5.000000e-001 -8.660254e-001 5.000000e-001
      vertex   5.000000e-001 -8.660254e-001 7.000000e-001
    endloop
  endfacet
  facet normal 5.735764e-001 -8.191520e-001 7.160956e-016
    outer loop
      vertex   5.000000e-001 -8.660254e-001 5.000000e-001
      vertex   6.427876e-001 -7.660444e-001 5.000000e-001
      vertex   6.427876e-001 -7.660444e-001 7.000000e-001
    endloop
  endfacet
  facet normal 7.071068e-001 -7.071068e-001 -3.090733e-016
    outer loop
      vertex   6.427876e-001 -7.660444e-001 5.000000e-001
      vertex   7.660444e-001 -6.427876e-001 5.000000e-001
      vertex   7.660444e-001 -6.427876e-001 7.000000e-001
    endloop
  endfacet
  facet normal 8.191520e-001 -5.735764e-001 7.881511e-016
    outer loop
      vertex   7.660444e-001 -6.427876e-001 5.000000e-001
      vertex   8.660254e-001 -5.000000e-001 5.000000e-001
      vertex   8.660254e-001 -5.000000e-001 7.000000e-001
    endloop
  endfacet
  facet normal -5.594825e-017 -4.894837e-018 1.000000e+000
    outer loop
      vertex   5.653485e-001 -3.255903e-002 7.000000e-001
      vertex   5.625000e-001 3.831510e-017 7.000000e-001
      vertex   -1.000000e+000 -1.989524e-016 7.000000e-001
    endloop
  endfacet
  facet normal -5.594825e-017 -4.894837e-018 1.000000e+000
    outer loop
      vertex   -9.848078e-001 -1.736482e-001 7.000000e-001
      vertex   5.653485e-001 -3.255903e-002 7.000000e-001
      vertex   -1.000000e+000 -1.989524e-016 7.000000e-001
    endloop
  endfacet
  facet normal -5.505118e-017 -1.475092e-017 1.000000e+000
    outer loop
      vertex   -9.848078e-001 -1.736482e-001 7.000000e-001
      vertex   5.738076e-001 -6.412878e-002 7.000000e-001
      vertex   5.653485e-001 -3.255903e-002 7.000000e-001
    endloop
  endfacet
  facet normal -5.505118e-017 -1.475092e-017 1.000000e+000
    outer loop
      vertex   -9.848078e-001 -1.736482e-001 7.000000e-001
      vertex   -9.396926e-001 -3.420201e-001 7.000000e-001
      vertex   5.738076e-001 -6.412878e-002 7.000000e-001
    endloop
  endfacet
  facet normal -5.320433e-017 -2.480959e-017 1.000000e+000
    outer loop
      vertex   5.738076e-001 -6.412878e-002 7.000000e-001
      vertex   -9.396926e-001 -3.420201e-001 7.000000e-001
      vertex   5.876202e-001 -9.375000e-002 7.000000e-001
    endloop
  endfacet
  facet normal 3.040789e-017 -5.391768e-016 1.000000e+000
    outer loop
      vertex   5.876202e-001 -9.375000e-002 7.000000e-001
      vertex   -9.396926e-001 -3.420201e-001 7.000000e-001
      vertex   -8.660254e-001 -5.000000e-001 7.000000e-001
    endloop
  endfacet
  facet normal -1.005913e-016 -7.043480e-017 1.000000e+000
    outer loop
      vertex   -7.660444e-001 -6.427876e-001 7.000000e-001
      vertex   5.876202e-001 -9.375000e-002 7.000000e-001
      vertex   -8.660254e-001 -5.000000e-001 7.000000e-001
    endloop
  endfacet
  facet normal -9.188945e-017 -9.188945e-017 1.000000e+000
    outer loop
      vertex   -7.660444e-001 -6.427876e-001 7.000000e-001
      vertex   -6.427876e-001 -7.660444e-001 7.000000e-001
      vertex   5.876202e-001 -9.375000e-002 7.000000e-001
    endloop
  endfacet
  facet normal -7.981501e-017 -1.139876e-016 1.000000e+000
    outer loop
      vertex   5.876202e-001 -9.375000e-002 7.000000e-001
      vertex   -6.427876e-001 -7.660444e-001 7.000000e-001
      vertex   -5.000000e-001 -8.660254e-001 7.000000e-001
    endloop
  endfacet
  facet normal -6.372191e-017 -1.366521e-016 1.000000e+000
    outer loop
      vertex   -3.420201e-001 -9.396926e-001 7.000000e-001
      vertex   5.876202e-001 -9.375000e-002 7.000000e-001
      vertex   -5.000000e-001 -8.660254e-001 7.000000e-001
    endloop
  endfacet
  facet normal -4.278183e-017 -1.596640e-016 1.000000e+000
    outer loop
      vertex   -3.420201e-001 -9.396926e-001 7.000000e-001
      vertex   -1.736482e-001 -9.848078e-001 7.000000e-001
      vertex   5.876202e-001 -9.375000e-002 7.000000e-001
    endloop
  endfacet
  facet normal -1.597265e-017 -1.825682e-016 1.000000e+000
    outer loop
      vertex   5.876202e-001 -9.375000e-002 7.000000e-001
      vertex   -1.736482e-001 -9.848078e-001 7.000000e-001
      vertex   6.123032e-017 -1.000000e+000 7.000000e-001
    endloop
  endfacet
  facet normal 1.789384e-017 -2.045275e-016 1.000000e+000
    outer loop
      vertex   1.736482e-001 -9.848078e-001 7.000000e-001
      vertex   5.876202e-001 -9.375000e-002 7.000000e-001
      vertex   6.123032e-017 -1.000000e+000 7.000000e-001
    endloop
  endfacet
  facet normal 6.005091e-017 -2.241131e-016 1.000000e+000
    outer loop
      vertex   1.736482e-001 -9.848078e-001 7.000000e-001
      vertex   3.420201e-001 -9.396926e-001 7.000000e-001
      vertex   5.876202e-001 -9.375000e-002 7.000000e-001
    endloop
  endfacet
  facet normal 1.114663e-016 -2.390403e-016 1.000000e+000
    outer loop
      vertex   5.876202e-001 -9.375000e-002 7.000000e-001
      vertex   3.420201e-001 -9.396926e-001 7.000000e-001
      vertex   5.000000e-001 -8.660254e-001 7.000000e-001
    endloop
  endfacet
  facet normal 1.824422e-016 -2.605544e-016 1.000000e+000
    outer loop
      vertex   6.063667e-001 -1.205227e-001 7.000000e-001
      vertex   5.000000e-001 -8.660254e-001 7.000000e-001
      vertex   6.427876e-001 -7.660444e-001 7.000000e-001
    endloop
  endfacet
  facet normal 2.750234e-016 -2.750234e-016 1.000000e+000
    outer loop
      vertex   6.294773e-001 -1.436333e-001 7.000000e-001
      vertex   6.427876e-001 -7.660444e-001 7.000000e-001
      vertex   7.660444e-001 -6.427876e-001 7.000000e-001
    endloop
  endfacet
  facet normal -1.899500e-016 -4.073492e-016 1.000000e+000
    outer loop
      vertex   6.562500e-001 -1.623798e-001 7.000000e-001
      vertex   7.660444e-001 -6.427876e-001 7.000000e-001
      vertex   6.858712e-001 -1.761924e-001 7.000000e-001
    endloop
  endfacet
  facet normal -3.033811e-016 -4.332732e-016 1.000000e+000
    outer loop
      vertex   6.562500e-001 -1.623798e-001 7.000000e-001
      vertex   6.294773e-001 -1.436333e-001 7.000000e-001
      vertex   7.660444e-001 -6.427876e-001 7.000000e-001
    endloop
  endfacet
  facet normal -5.594825e-017 4.894837e-018 1.000000e+000
    outer loop
      vertex   5.625000e-001 3.831510e-017 7.000000e-001
      vertex   5.653485e-001 3.255903e-002 7.000000e-001
      vertex   -1.000000e+000 -1.989524e-016 7.000000e-001
    endloop
  endfacet
  facet normal -5.615943e-017 1.504787e-017 1.000000e+000
    outer loop
      vertex   -1.000000e+000 -1.989524e-016 7.000000e-001
      vertex   5.653485e-001 3.255903e-002 7.000000e-001
      vertex   5.738076e-001 6.412878e-002 7.000000e-001
    endloop
  endfacet
  facet normal -5.505118e-017 1.475092e-017 1.000000e+000
    outer loop
      vertex   -9.848078e-001 1.736482e-001 7.000000e-001
      vertex   5.738076e-001 6.412878e-002 7.000000e-001
      vertex   -9.396926e-001 3.420201e-001 7.000000e-001
    endloop
  endfacet
  facet normal -5.574499e-017 4.877055e-018 1.000000e+000
    outer loop
      vertex   -9.848078e-001 1.736482e-001 7.000000e-001
      vertex   -1.000000e+000 -1.989524e-016 7.000000e-001
      vertex   5.738076e-001 6.412878e-002 7.000000e-001
    endloop
  endfacet
  facet normal -5.320433e-017 2.480959e-017 1.000000e+000
    outer loop
      vertex   5.738076e-001 6.412878e-002 7.000000e-001
      vertex   5.876202e-001 9.375000e-002 7.000000e-001
      vertex   -9.396926e-001 3.420201e-001 7.000000e-001
    endloop
  endfacet
  facet normal -1.368165e-016 -4.895576e-016 1.000000e+000
    outer loop
      vertex   -9.396926e-001 3.420201e-001 7.000000e-001
      vertex   5.876202e-001 9.375000e-002 7.000000e-001
      vertex   -8.660254e-001 5.000000e-001 7.000000e-001
    endloop
  endfacet
  facet normal 0.000000e+000 0.000000e+000 1.000000e+000
    outer loop
      vertex   -8.660254e-001 5.000000e-001 7.000000e-001
      vertex   5.876202e-001 9.375000e-002 7.000000e-001
      vertex   -7.660444e-001 6.427876e-001 7.000000e-001
    endloop
  endfacet
  facet normal 0.000000e+000 0.000000e+000 1.000000e+000
    outer loop
      vertex   -7.660444e-001 6.427876e-001 7.000000e-001
      vertex   5.876202e-001 9.375000e-002 7.000000e-001
      vertex   -6.427876e-001 7.660444e-001 7.000000e-001
    endloop
  endfacet
  facet normal 0.000000e+000 0.000000e+000 1.000000e+000
    outer loop
      vertex   -6.427876e-001 7.660444e-001 7.000000e-001
      vertex   5.876202e-001 9.375000e-002 7.000000e-001
      vertex   -5.000000e-001 8.660254e-001 7.000000e-001
    endloop
  endfacet
  facet normal 0.000000e+000 0.000000e+000 1.000000e+000
    outer loop
      vertex   -5.000000e-001 8.660254e-001 7.000000e-001
      vertex   5.876202e-001 9.375000e-002 7.000000e-001
      vertex   -3.420201e-001 9.396926e-001 7.000000e-001
    endloop
  endfacet
  facet normal 0.000000e+000 0.000000e+000 1.000000e+000
    outer loop
      vertex   -3.420201e-001 9.396926e-001 7.000000e-001
      vertex   5.876202e-001 9.375000e-002 7.000000e-001
      vertex   -1.736482e-001 9.848078e-001 7.000000e-001
    endloop
  endfacet
  facet normal 0.000000e+000 0.000000e+000 1.000000e+000
    outer loop
      vertex   -1.736482e-001 9.848078e-001 7.000000e-001
      vertex   5.876202e-001 9.375000e-002 7.000000e-001
      vertex   6.063667e-001 1.205227e-001 7.000000e-001
    endloop
  endfacet
  facet normal 0.000000e+000 0.000000e+000 1.000000e+000
    outer loop
      vertex   -1.836910e-016 1.000000e+000 7.000000e-001
      vertex   6.063667e-001 1.205227e-001 7.000000e-001
      vertex   1.736482e-001 9.848078e-001 7.000000e-001
    endloop
  endfacet
  facet normal 0.000000e+000 0.000000e+000 1.000000e+000
    outer loop
      vertex   -1.836910e-016 1.000000e+000 7.000000e-001
      vertex   -1.736482e-001 9.848078e-001 7.000000e-001
      vertex   6.063667e-001 1.205227e-001 7.000000e-001
    endloop
  endfacet
  facet normal 0.000000e+000 0.000000e+000 1.000000e+000
    outer loop
      vertex   1.736482e-001 9.848078e-001 7.000000e-001
      vertex   6.063667e-001 1.205227e-001 7.000000e-001
      vertex   3.420201e-001 9.396926e-001 7.000000e-001
    endloop
  endfacet
  facet normal 0.000000e+000 0.000000e+000 1.000000e+000
    outer loop
      vertex   3.420201e-001 9.396926e-001 7.000000e-001
      vertex   6.063667e-001 1.205227e-001 7.000000e-001
      vertex   6.294773e-001 1.436333e-001 7.000000e-001
    endloop
  endfacet
  facet normal 0.000000e+000 0.000000e+000 1.000000e+000
    outer loop
      vertex   5.000000e-001 8.660254e-001 7.000000e-001
      vertex   6.294773e-001 1.436333e-001 7.000000e-001
      vertex   6.427876e-001 7.660444e-001 7.000000e-001
    endloop
  endfacet
  facet normal 0.000000e+000 0.000000e+000 1.000000e+000
    outer loop
      vertex   5.000000e-001 8.660254e-001 7.000000e-001
      vertex   3.420201e-001 9.396926e-001 7.000000e-001
      vertex   6.294773e-001 1.436333e-001 7.000000e-001
    endloop
  endfacet
  facet normal 0.000000e+000 0.000000e+000 1.000000e+000
    outer loop
      vertex   6.294773e-001 1.436333e-001 7.000000e-001
      vertex   6.562500e-001 1.623798e-001 7.000000e-001
      vertex   6.427876e-001 7.660444e-001 7.000000e-001
    endloop
  endfacet
  facet normal 0.000000e+000 0.000000e+000 1.000000e+000
    outer loop
      vertex   6.427876e-001 7.660444e-001 7.000000e-001
      vertex   6.562500e-001 1.623798e-001 7.000000e-001
      vertex   7.660444e-001 6.427876e-001 7.000000e-001
    endloop
  endfacet
  facet normal 0.000000e+000 0.000000e+000 1.000000e+000
    outer loop
      vertex   7.660444e-001 6.427876e-001 7.000000e-001
      vertex   6.562500e-001 1.623798e-001 7.000000e-001
      vertex   6.858712e-001 1.761924e-001 7.000000e-001
    endloop
  endfacet
  facet normal 0.000000e+000 0.000000e+000 1.000000e+000
    outer loop
      vertex   7.174410e-001 1.846515e-001 7.000000e-001
      vertex   7.660444e-001 6.427876e-001 7.000000e-001
      vertex   6.858712e-001 1.761924e-001 7.000000e-001
    endloop
  endfacet
  facet normal 0.000000e+000 0.000000e+000 1.000000e+000
    outer loop
      vertex   7.174410e-001 1.846515e-001 7.000000e-001
      vertex   8.660254e-001 5.000000e-001 7.000000e-001
      vertex   7.660444e-001 6.427876e-001 7.000000e-001
    endloop
  endfacet
  facet normal 0.000000e+000 0.000000e+000 1.000000e+000
    outer loop
      vertex   7.174410e-001 1.846515e-001 7.000000e-001
      vertex   7.500000e-001 1.875000e-001 7.000000e-001
      vertex   8.660254e-001 5.000000e-001 7.000000e-001
    endloop
  endfacet
  facet normal 6.606537e-016 -2.452883e-016 1.000000e+000
    outer loop
      vertex   8.660254e-001 5.000000e-001 7.000000e-001
      vertex   7.500000e-001 1.875000e-001 7.000000e-001
      vertex   9.396926e-001 3.420201e-001 7.000000e-001
    endloop
  endfacet
  facet normal 4.469587e-017 5.108762e-016 1.000000e+000
    outer loop
      vertex   9.396926e-001 3.420201e-001 7.000000e-001
      vertex   7.500000e-001 1.875000e-001 7.000000e-001
      vertex   7.825590e-001 1.846515e-001 7.000000e-001
    endloop
  endfacet
  facet normal 1.174291e-016 4.382516e-016 1.000000e+000
    outer loop
      vertex   8.141288e-001 1.761924e-001 7.000000e-001
      vertex   9.396926e-001 3.420201e-001 7.000000e-001
      vertex   7.825590e-001 1.846515e-001 7.000000e-001
    endloop
  endfacet
  facet normal 1.816756e-016 3.896045e-016 1.000000e+000
    outer loop
      vertex   8.141288e-001 1.761924e-001 7.000000e-001
      vertex   8.437500e-001 1.623798e-001 7.000000e-001
      vertex   9.396926e-001 3.420201e-001 7.000000e-001
    endloop
  endfacet
  facet normal 6.067524e-016 1.625788e-016 1.000000e+000
    outer loop
      vertex   9.396926e-001 3.420201e-001 7.000000e-001
      vertex   8.437500e-001 1.623798e-001 7.000000e-001
      vertex   9.848078e-001 1.736482e-001 7.000000e-001
    endloop
  endfacet
  facet normal 5.562758e-016 7.944441e-016 1.000000e+000
    outer loop
      vertex   9.848078e-001 1.736482e-001 7.000000e-001
      vertex   8.437500e-001 1.623798e-001 7.000000e-001
      vertex   8.705227e-001 1.436333e-001 7.000000e-001
    endloop
  endfacet
  facet normal 6.058155e-016 6.058155e-016 1.000000e+000
    outer loop
      vertex   8.936333e-001 1.205227e-001 7.000000e-001
      vertex   9.848078e-001 1.736482e-001 7.000000e-001
      vertex   8.705227e-001 1.436333e-001 7.000000e-001
    endloop
  endfacet
  facet normal 6.809760e-016 4.768245e-016 1.000000e+000
    outer loop
      vertex   8.936333e-001 1.205227e-001 7.000000e-001
      vertex   9.123798e-001 9.375000e-002 7.000000e-001
      vertex   9.848078e-001 1.736482e-001 7.000000e-001
    endloop
  endfacet
  facet normal 7.970009e-016 3.716476e-016 1.000000e+000
    outer loop
      vertex   9.848078e-001 1.736482e-001 7.000000e-001
      vertex   9.123798e-001 9.375000e-002 7.000000e-001
      vertex   9.261924e-001 6.412878e-002 7.000000e-001
    endloop
  endfacet
  facet normal 1.543843e-015 4.136714e-016 1.000000e+000
    outer loop
      vertex   1.000000e+000 -7.649174e-017 7.000000e-001
      vertex   9.261924e-001 6.412878e-002 7.000000e-001
      vertex   9.346515e-001 3.255903e-002 7.000000e-001
    endloop
  endfacet
  facet normal 1.398706e-015 1.223709e-016 1.000000e+000
    outer loop
      vertex   9.375000e-001 1.535373e-017 7.000000e-001
      vertex   1.000000e+000 -7.649174e-017 7.000000e-001
      vertex   9.346515e-001 3.255903e-002 7.000000e-001
    endloop
  endfacet
  facet normal 1.398706e-015 -1.223709e-016 1.000000e+000
    outer loop
      vertex   9.375000e-001 1.535373e-017 7.000000e-001
      vertex   9.346515e-001 -3.255903e-002 7.000000e-001
      vertex   1.000000e+000 -7.649174e-017 7.000000e-001
    endloop
  endfacet
  facet normal 1.543843e-015 -4.136714e-016 1.000000e+000
    outer loop
      vertex   1.000000e+000 -7.649174e-017 7.000000e-001
      vertex   9.346515e-001 -3.255903e-002 7.000000e-001
      vertex   9.261924e-001 -6.412878e-002 7.000000e-001
    endloop
  endfacet
  facet normal 7.970009e-016 -3.716476e-016 1.000000e+000
    outer loop
      vertex   9.848078e-001 -1.736482e-001 7.000000e-001
      vertex   9.261924e-001 -6.412878e-002 7.000000e-001
      vertex   9.123798e-001 -9.375000e-002 7.000000e-001
    endloop
  endfacet
  facet normal 6.809760e-016 -4.768245e-016 1.000000e+000
    outer loop
      vertex   8.936333e-001 -1.205227e-001 7.000000e-001
      vertex   9.848078e-001 -1.736482e-001 7.000000e-001
      vertex   9.123798e-001 -9.375000e-002 7.000000e-001
    endloop
  endfacet
  facet normal 6.058155e-016 -6.058155e-016 1.000000e+000
    outer loop
      vertex   8.936333e-001 -1.205227e-001 7.000000e-001
      vertex   8.705227e-001 -1.436333e-001 7.000000e-001
      vertex   9.848078e-001 -1.736482e-001 7.000000e-001
    endloop
  endfacet
  facet normal 5.562758e-016 -7.944441e-016 1.000000e+000
    outer loop
      vertex   9.848078e-001 -1.736482e-001 7.000000e-001
      vertex   8.705227e-001 -1.436333e-001 7.000000e-001
      vertex   8.437500e-001 -1.623798e-001 7.000000e-001
    endloop
  endfacet
  facet normal 1.816756e-016 -3.896045e-016 1.000000e+000
    outer loop
      vertex   9.396926e-001 -3.420201e-001 7.000000e-001
      vertex   8.437500e-001 -1.623798e-001 7.000000e-001
      vertex   8.141288e-001 -1.761924e-001 7.000000e-001
    endloop
  endfacet
  facet normal 1.174291e-016 -4.382516e-016 1.000000e+000
    outer loop
      vertex   7.825590e-001 -1.846515e-001 7.000000e-001
      vertex   9.396926e-001 -3.420201e-001 7.000000e-001
      vertex   8.141288e-001 -1.761924e-001 7.000000e-001
    endloop
  endfacet
  facet normal 4.469587e-017 -5.108762e-016 1.000000e+000
    outer loop
      vertex   7.825590e-001 -1.846515e-001 7.000000e-001
      vertex   7.500000e-001 -1.875000e-001 7.000000e-001
      vertex   9.396926e-001 -3.420201e-001 7.000000e-001
    endloop
  endfacet
  facet normal 7.314151e-018 -5.567669e-016 1.000000e+000
    outer loop
      vertex   9.396926e-001 -3.420201e-001 7.000000e-001
      vertex   7.500000e-001 -1.875000e-001 7.000000e-001
      vertex   8.660254e-001 -5.000000e-001 7.000000e-001
    endloop
  endfacet
  facet normal -5.059174e-017 -5.782662e-016 1.000000e+000
    outer loop
      vertex   8.660254e-001 -5.000000e-001 7.000000e-001
      vertex   7.500000e-001 -1.875000e-001 7.000000e-001
      vertex   7.174410e-001 -1.846515e-001 7.000000e-001
    endloop
  endfacet
  facet normal -1.700245e-016 -6.345400e-016 1.000000e+000
    outer loop
      vertex   6.858712e-001 -1.761924e-001 7.000000e-001
      vertex   8.660254e-001 -5.000000e-001 7.000000e-001
      vertex   7.174410e-001 -1.846515e-001 7.000000e-001
    endloop
  endfacet
  facet normal 4.296977e-016 -3.008775e-016 1.000000e+000
    outer loop
      vertex   6.858712e-001 -1.761924e-001 7.000000e-001
      vertex   7.660444e-001 -6.427876e-001 7.000000e-001
      vertex   8.660254e-001 -5.000000e-001 7.000000e-001
    endloop
  endfacet
  facet normal -2.870432e-016 -2.870432e-016 1.000000e+000
    outer loop
      vertex   6.294773e-001 -1.436333e-001 7.000000e-001
      vertex   6.063667e-001 -1.205227e-001 7.000000e-001
      vertex   6.427876e-001 -7.660444e-001 7.000000e-001
    endloop
  endfacet
  facet normal -2.782395e-016 -1.948254e-016 1.000000e+000
    outer loop
      vertex   6.063667e-001 -1.205227e-001 7.000000e-001
      vertex   5.876202e-001 -9.375000e-002 7.000000e-001
      vertex   5.000000e-001 -8.660254e-001 7.000000e-001
    endloop
  endfacet
  facet normal 1.281860e-015 1.121482e-016 1.000000e+000
    outer loop
      vertex   1.000000e+000 -7.649174e-017 7.000000e-001
      vertex   9.848078e-001 1.736482e-001 7.000000e-001
      vertex   9.261924e-001 6.412878e-002 7.000000e-001
    endloop
  endfacet
  facet normal 6.067524e-016 -1.625788e-016 1.000000e+000
    outer loop
      vertex   9.396926e-001 -3.420201e-001 7.000000e-001
      vertex   9.848078e-001 -1.736482e-001 7.000000e-001
      vertex   8.437500e-001 -1.623798e-001 7.000000e-001
    endloop
  endfacet
  facet normal 1.281860e-015 -1.121482e-016 1.000000e+000
    outer loop
      vertex   9.848078e-001 -1.736482e-001 7.000000e-001
      vertex   1.000000e+000 -7.649174e-017 7.000000e-001
      vertex   9.261924e-001 -6.412878e-002 7.000000e-001
    endloop
  endfacet
  facet normal -7.071068e-001 0.000000e+000 -7.071068e-001
    outer loop
      vertex   -1.000000e-002 -8.000000e-001 0.000000e+000
      vertex   -1.000000e-001 -8.000000e-001 9.000000e-002
      vertex   -1.000000e-002 8.000000e-001 0.000000e+000
    endloop
  endfacet
  facet normal -7.071068e-001 -9.658541e-018 -7.071068e-001
    outer loop
      vertex   -1.000000e-002 8.000000e-001 0.000000e+000
      vertex   -1.000000e-001 -8.000000e-001 9.000000e-002
      vertex   -1.000000e-001 8.000000e-001 9.000000e-002
    endloop
  endfacet
  facet normal 0.000000e+000 0.000000e+000 -1.000000e+000
    outer loop
      vertex   -1.000000e-002 -8.000000e-001 0.000000e+000
      vertex   -1.000000e-002 8.000000e-001 0.000000e+000
      vertex   1.000000e-002 -8.000000e-001 0.000000e+000
    endloop
  endfacet
  facet normal 0.000000e+000 0.000000e+000 -1.000000e+000
    outer loop
      vertex   1.000000e-002 -8.000000e-001 0.000000e+000
      vertex   -1.000000e-002 8.000000e-001 0.000000e+000
      vertex   1.000000e-002 8.000000e-001 0.000000e+000
    endloop
  endfacet
  facet normal 0.000000e+000 1.000000e+000 0.000000e+000
    outer loop
      vertex   -1.000000e-001 8.000000e-001 9.000000e-002
      vertex   -1.000000e-001 8.000000e-001 5.000000e-001
      vertex   -1.000000e-002 8.000000e-001 0.000000e+000
    endloop
  endfacet
  facet normal 0.000000e+000 1.000000e+000 0.000000e+000
    outer loop
      vertex   -1.000000e-002 8.000000e-001 0.000000e+000
      vertex   -1.000000e-001 8.000000e-001 5.000000e-001
      vertex   1.000000e-002 8.000000e-001 0.000000e+000
    endloop
  endfacet
  facet normal 0.000000e+000 1.000000e+000 0.000000e+000
    outer loop
      vertex   1.000000e-002 8.000000e-001 0.000000e+000
      vertex   -1.000000e-001 8.000000e-001 5.000000e-001
      vertex   1.000000e-001 8.000000e-001 9.000000e-002
    endloop
  endfacet
  facet normal 0.000000e+000 1.000000e+000 0.000000e+000
    outer loop
      vertex   1.000000e-001 8.000000e-001 9.000000e-002
      vertex   -1.000000e-001 8.000000e-001 5.000000e-001
      vertex   1.000000e-001 8.000000e-001 5.000000e-001
    endloop
  endfacet
  facet normal 7.071068e-001 -5.281355e-018 -7.071068e-001
    outer loop
      vertex   1.000000e-001 -8.000000e-001 9.000000e-002
      vertex   1.000000e-002 -8.000000e-001 0.000000e+000
      vertex   1.000000e-001 8.000000e-001 9.000000e-002
    endloop
  endfacet
  facet normal 7.071068e-001 0.000000e+000 -7.071068e-001
    outer loop
      vertex   1.000000e-001 8.000000e-001 9.000000e-002
      vertex   1.000000e-002 -8.000000e-001 0.000000e+000
      vertex   1.000000e-002 8.000000e-001 0.000000e+000
    endloop
  endfacet
  facet normal 1.000000e+000 0.000000e+000 0.000000e+000
    outer loop
      vertex   1.000000e-001 8.000000e-001 9.000000e-002
      vertex   1.000000e-001 8.000000e-001 5.000000e-001
      vertex   1.000000e-001 -8.000000e-001 9.000000e-002
    endloop
  endfacet
  facet normal 1.000000e+000 0.000000e+000 0.000000e+000
    outer loop
      vertex   1.000000e-001 -8.000000e-001 9.000000e-002
      vertex   1.000000e-001 8.000000e-001 5.000000e-001
      vertex   1.000000e-001 -8.000000e-001 5.000000e-001
    endloop
  endfacet
  facet normal 0.000000e+000 -1.000000e+000 0.000000e+000
    outer loop
      vertex   -1.000000e-001 -8.000000e-001 9.000000e-002
      vertex   -1.000000e-002 -8.000000e-001 0.000000e+000
      vertex   -1.000000e-001 -8.000000e-001 5.000000e-001
    endloop
  endfacet
  facet normal 0.000000e+000 -1.000000e+000 0.000000e+000
    outer loop
      vertex   -1.000000e-001 -8.000000e-001 5.000000e-001
      vertex   -1.000000e-002 -8.000000e-001 0.000000e+000
      vertex   1.000000e-002 -8.000000e-001 0.000000e+000
    endloop
  endfacet
  facet normal 0.000000e+000 -1.000000e+000 0.000000e+000
    outer loop
      vertex   1.000000e-001 -8.000000e-001 5.000000e-001
      vertex   1.000000e-002 -8.000000e-001 0.000000e+000
      vertex   1.000000e-001 -8.000000e-001 9.000000e-002
    endloop
  endfacet
  facet normal 0.000000e+000 -1.000000e+000 0.000000e+000
    outer loop
      vertex   1.000000e-001 -8.000000e-001 5.000000e-001
      vertex   -1.000000e-001 -8.000000e-001 5.000000e-001
      vertex   1.000000e-002 -8.000000e-001 0.000000e+000
    endloop
  endfacet
  facet normal -1.000000e+000 0.000000e+000 0.000000e+000
    outer loop
      vertex   -1.000000e-001 -8.000000e-001 9.000000e-002
      vertex   -1.000000e-001 -8.000000e-001 5.000000e-001
      vertex   -1.000000e-001 8.000000e-001 9.000000e-002
    endloop
  endfacet
  facet normal -1.000000e+000 0.000000e+000 0.000000e+000
    outer loop
      vertex   -1.000000e-001 8.000000e-001 9.000000e-002
      vertex   -1.000000e-001 -8.000000e-001 5.000000e-001
      vertex   -1.000000e-001 8.000000e-001 5.000000e-001
    endloop
  endfacet
endsolid
