solid ascii
  facet normal 9.961947e-001 -8.715574e-002 0.000000e+000
    outer loop
      vertex   6.268990e-001 2.170602e-002 -7.000000e-001
      vertex   6.268990e-001 2.170602e-002 -5.000000e-001
      vertex   6.250000e-001 9.292899e-017 -7.000000e-001
    endloop
  endfacet
  facet normal 9.659258e-001 -2.588190e-001 0.000000e+000
    outer loop
      vertex   6.268990e-001 2.170602e-002 -7.000000e-001
      vertex   6.325384e-001 4.275252e-002 -5.000000e-001
      vertex   6.268990e-001 2.170602e-002 -5.000000e-001
    endloop
  endfacet
  facet normal 9.659258e-001 -2.588190e-001 -7.070543e-017
    outer loop
      vertex   6.268990e-001 2.170602e-002 -7.000000e-001
      vertex   6.325384e-001 4.275252e-002 -7.000000e-001
      vertex   6.325384e-001 4.275252e-002 -5.000000e-001
    endloop
  endfacet
  facet normal 9.063078e-001 -4.226183e-001 -1.154529e-016
    outer loop
      vertex   6.325384e-001 4.275252e-002 -5.000000e-001
      vertex   6.325384e-001 4.275252e-002 -7.000000e-001
      vertex   6.417468e-001 6.250000e-002 -5.000000e-001
    endloop
  endfacet
  facet normal 9.063078e-001 -4.226183e-001 -9.255248e-017
    outer loop
      vertex   6.417468e-001 6.250000e-002 -5.000000e-001
      vertex   6.325384e-001 4.275252e-002 -7.000000e-001
      vertex   6.417468e-001 6.250000e-002 -7.000000e-001
    endloop
  endfacet
  facet normal 8.191520e-001 -5.735764e-001 0.000000e+000
    outer loop
      vertex   6.542444e-001 8.034845e-002 -5.000000e-001
      vertex   6.417468e-001 6.250000e-002 -7.000000e-001
      vertex   6.542444e-001 8.034845e-002 -7.000000e-001
    endloop
  endfacet
  facet normal 7.071068e-001 -7.071068e-001 0.000000e+000
    outer loop
      vertex   6.696515e-001 9.575556e-002 -5.000000e-001
      vertex   6.542444e-001 8.034845e-002 -7.000000e-001
      vertex   6.696515e-001 9.575556e-002 -7.000000e-001
    endloop
  endfacet
  facet normal 5.735764e-001 -8.191520e-001 0.000000e+000
    outer loop
      vertex   6.875000e-001 1.082532e-001 -5.000000e-001
      vertex   6.696515e-001 9.575556e-002 -7.000000e-001
      vertex   6.875000e-001 1.082532e-001 -7.000000e-001
    endloop
  endfacet
  facet normal 4.226183e-001 -9.063078e-001 0.000000e+000
    outer loop
      vertex   7.072475e-001 1.174616e-001 -5.000000e-001
      vertex   6.875000e-001 1.082532e-001 -7.000000e-001
      vertex   7.072475e-001 1.174616e-001 -7.000000e-001
    endloop
  endfacet
  facet normal 2.588190e-001 -9.659258e-001 -1.041215e-016
    outer loop
      vertex   7.282940e-001 1.231010e-001 -5.000000e-001
      vertex   7.072475e-001 1.174616e-001 -7.000000e-001
      vertex   7.282940e-001 1.231010e-001 -7.000000e-001
    endloop
  endfacet
  facet normal 8.715574e-002 -9.961947e-001 0.000000e+000
    outer loop
      vertex   7.500000e-001 1.250000e-001 -5.000000e-001
      vertex   7.282940e-001 1.231010e-001 -7.000000e-001
      vertex   7.500000e-001 1.250000e-001 -7.000000e-001
    endloop
  endfacet
  facet normal -8.715574e-002 -9.961947e-001 -1.079779e-016
    outer loop
      vertex   7.717060e-001 1.231010e-001 -5.000000e-001
      vertex   7.500000e-001 1.250000e-001 -7.000000e-001
      vertex   7.717060e-001 1.231010e-001 -7.000000e-001
    endloop
  endfacet
  facet normal -2.588190e-001 -9.659258e-001 -2.275249e-016
    outer loop
      vertex   7.927525e-001 1.174616e-001 -5.000000e-001
      vertex   7.717060e-001 1.231010e-001 -7.000000e-001
      vertex   7.927525e-001 1.174616e-001 -7.000000e-001
    endloop
  endfacet
  facet normal -4.226183e-001 -9.063078e-001 9.255248e-017
    outer loop
      vertex   8.125000e-001 1.082532e-001 -5.000000e-001
      vertex   7.927525e-001 1.174616e-001 -7.000000e-001
      vertex   8.125000e-001 1.082532e-001 -7.000000e-001
    endloop
  endfacet
  facet normal -5.735764e-001 -8.191520e-001 0.000000e+000
    outer loop
      vertex   8.303485e-001 9.575556e-002 -5.000000e-001
      vertex   8.125000e-001 1.082532e-001 -7.000000e-001
      vertex   8.303485e-001 9.575556e-002 -7.000000e-001
    endloop
  endfacet
  facet normal -7.071068e-001 -7.071068e-001 0.000000e+000
    outer loop
      vertex   8.457556e-001 8.034845e-002 -5.000000e-001
      vertex   8.303485e-001 9.575556e-002 -7.000000e-001
      vertex   8.457556e-001 8.034845e-002 -7.000000e-001
    endloop
  endfacet
  facet normal -8.191520e-001 -5.735764e-001 0.000000e+000
    outer loop
      vertex   8.582532e-001 6.250000e-002 -5.000000e-001
      vertex   8.457556e-001 8.034845e-002 -7.000000e-001
      vertex   8.582532e-001 6.250000e-002 -7.000000e-001
    endloop
  endfacet
  facet normal -9.063078e-001 -4.226183e-001 0.000000e+000
    outer loop
      vertex   8.674616e-001 4.275252e-002 -5.000000e-001
      vertex   8.582532e-001 6.250000e-002 -7.000000e-001
      vertex   8.674616e-001 4.275252e-002 -7.000000e-001
    endloop
  endfacet
  facet normal -9.659258e-001 -2.588190e-001 7.712707e-017
    outer loop
      vertex   8.731010e-001 2.170602e-002 -5.000000e-001
      vertex   8.674616e-001 4.275252e-002 -7.000000e-001
      vertex   8.731010e-001 2.170602e-002 -7.000000e-001
    endloop
  endfacet
  facet normal -9.961947e-001 -8.715574e-002 0.000000e+000
    outer loop
      vertex   8.750000e-001 1.082366e-016 -5.000000e-001
      vertex   8.731010e-001 2.170602e-002 -7.000000e-001
      vertex   8.750000e-001 1.082366e-016 -7.000000e-001
    endloop
  endfacet
  facet normal -9.961947e-001 8.715574e-002 -2.506630e-017
    outer loop
      vertex   8.731010e-001 -2.170602e-002 -5.000000e-001
      vertex   8.750000e-001 1.082366e-016 -7.000000e-001
      vertex   8.731010e-001 -2.170602e-002 -7.000000e-001
    endloop
  endfacet
  facet normal -9.659258e-001 2.588190e-001 0.000000e+000
    outer loop
      vertex   8.674616e-001 -4.275252e-002 -5.000000e-001
      vertex   8.731010e-001 -2.170602e-002 -7.000000e-001
      vertex   8.674616e-001 -4.275252e-002 -7.000000e-001
    endloop
  endfacet
  facet normal -9.063078e-001 4.226183e-001 0.000000e+000
    outer loop
      vertex   8.582532e-001 -6.250000e-002 -5.000000e-001
      vertex   8.674616e-001 -4.275252e-002 -7.000000e-001
      vertex   8.582532e-001 -6.250000e-002 -7.000000e-001
    endloop
  endfacet
  facet normal -8.191520e-001 5.735764e-001 0.000000e+000
    outer loop
      vertex   8.457556e-001 -8.034845e-002 -5.000000e-001
      vertex   8.582532e-001 -6.250000e-002 -7.000000e-001
      vertex   8.457556e-001 -8.034845e-002 -7.000000e-001
    endloop
  endfacet
  facet normal -7.071068e-001 7.071068e-001 0.000000e+000
    outer loop
      vertex   8.303485e-001 -9.575556e-002 -5.000000e-001
      vertex   8.457556e-001 -8.034845e-002 -7.000000e-001
      vertex   8.303485e-001 -9.575556e-002 -7.000000e-001
    endloop
  endfacet
  facet normal -5.735764e-001 8.191520e-001 -8.483978e-017
    outer loop
      vertex   8.125000e-001 -1.082532e-001 -5.000000e-001
      vertex   8.303485e-001 -9.575556e-002 -7.000000e-001
      vertex   8.125000e-001 -1.082532e-001 -7.000000e-001
    endloop
  endfacet
  facet normal -4.226183e-001 9.063078e-001 3.702099e-016
    outer loop
      vertex   7.927525e-001 -1.174616e-001 -5.000000e-001
      vertex   8.125000e-001 -1.082532e-001 -7.000000e-001
      vertex   7.927525e-001 -1.174616e-001 -7.000000e-001
    endloop
  endfacet
  facet normal -2.588190e-001 9.659258e-001 1.041215e-016
    outer loop
      vertex   7.717060e-001 -1.231010e-001 -5.000000e-001
      vertex   7.927525e-001 -1.174616e-001 -7.000000e-001
      vertex   7.717060e-001 -1.231010e-001 -7.000000e-001
    endloop
  endfacet
  facet normal -8.715574e-002 9.961947e-001 0.000000e+000
    outer loop
      vertex   7.500000e-001 -1.250000e-001 -5.000000e-001
      vertex   7.717060e-001 -1.231010e-001 -7.000000e-001
      vertex   7.500000e-001 -1.250000e-001 -7.000000e-001
    endloop
  endfacet
  facet normal 8.715574e-002 9.961947e-001 1.079779e-016
    outer loop
      vertex   7.282940e-001 -1.231010e-001 -5.000000e-001
      vertex   7.500000e-001 -1.250000e-001 -7.000000e-001
      vertex   7.282940e-001 -1.231010e-001 -7.000000e-001
    endloop
  endfacet
  facet normal 2.588190e-001 9.659258e-001 0.000000e+000
    outer loop
      vertex   7.072475e-001 -1.174616e-001 -5.000000e-001
      vertex   7.282940e-001 -1.231010e-001 -7.000000e-001
      vertex   7.072475e-001 -1.174616e-001 -7.000000e-001
    endloop
  endfacet
  facet normal 4.226183e-001 9.063078e-001 0.000000e+000
    outer loop
      vertex   6.875000e-001 -1.082532e-001 -5.000000e-001
      vertex   7.072475e-001 -1.174616e-001 -7.000000e-001
      vertex   6.875000e-001 -1.082532e-001 -7.000000e-001
    endloop
  endfacet
  facet normal 5.735764e-001 8.191520e-001 0.000000e+000
    outer loop
      vertex   6.696515e-001 -9.575556e-002 -5.000000e-001
      vertex   6.875000e-001 -1.082532e-001 -7.000000e-001
      vertex   6.696515e-001 -9.575556e-002 -7.000000e-001
    endloop
  endfacet
  facet normal 7.071068e-001 7.071068e-001 0.000000e+000
    outer loop
      vertex   6.542444e-001 -8.034845e-002 -5.000000e-001
      vertex   6.696515e-001 -9.575556e-002 -7.000000e-001
      vertex   6.542444e-001 -8.034845e-002 -7.000000e-001
    endloop
  endfacet
  facet normal 8.191520e-001 5.735764e-001 1.311160e-016
    outer loop
      vertex   6.417468e-001 -6.250000e-002 -5.000000e-001
      vertex   6.542444e-001 -8.034845e-002 -7.000000e-001
      vertex   6.417468e-001 -6.250000e-002 -7.000000e-001
    endloop
  endfacet
  facet normal 9.063078e-001 4.226183e-001 1.156906e-016
    outer loop
      vertex   6.325384e-001 -4.275252e-002 -5.000000e-001
      vertex   6.417468e-001 -6.250000e-002 -7.000000e-001
      vertex   6.325384e-001 -4.275252e-002 -7.000000e-001
    endloop
  endfacet
  facet normal 9.659258e-001 2.588190e-001 0.000000e+000
    outer loop
      vertex   6.268990e-001 -2.170602e-002 -5.000000e-001
      vertex   6.325384e-001 -4.275252e-002 -7.000000e-001
      vertex   6.268990e-001 -2.170602e-002 -7.000000e-001
    endloop
  endfacet
  facet normal 9.961947e-001 8.715574e-002 -1.349724e-017
    outer loop
      vertex   6.250000e-001 1.235441e-016 -5.000000e-001
      vertex   6.268990e-001 -2.170602e-002 -7.000000e-001
      vertex   6.250000e-001 9.292899e-017 -7.000000e-001
    endloop
  endfacet
  facet normal 9.961947e-001 -8.715574e-002 1.334143e-017
    outer loop
      vertex   6.268990e-001 2.170602e-002 -5.000000e-001
      vertex   6.250000e-001 1.235441e-016 -5.000000e-001
      vertex   6.250000e-001 9.292899e-017 -7.000000e-001
    endloop
  endfacet
  facet normal 9.961947e-001 8.715574e-002 0.000000e+000
    outer loop
      vertex   6.250000e-001 1.235441e-016 -5.000000e-001
      vertex   6.268990e-001 -2.170602e-002 -5.000000e-001
      vertex   6.268990e-001 -2.170602e-002 -7.000000e-001
    endloop
  endfacet
  facet normal 9.659258e-001 2.588190e-001 7.070543e-017
    outer loop
      vertex   6.268990e-001 -2.170602e-002 -5.000000e-001
      vertex   6.325384e-001 -4.275252e-002 -5.000000e-001
      vertex   6.325384e-001 -4.275252e-002 -7.000000e-001
    endloop
  endfacet
  facet normal 9.063078e-001 4.226183e-001 9.236231e-017
    outer loop
      vertex   6.325384e-001 -4.275252e-002 -5.000000e-001
      vertex   6.417468e-001 -6.250000e-002 -5.000000e-001
      vertex   6.417468e-001 -6.250000e-002 -7.000000e-001
    endloop
  endfacet
  facet normal 8.191520e-001 5.735764e-001 0.000000e+000
    outer loop
      vertex   6.417468e-001 -6.250000e-002 -5.000000e-001
      vertex   6.542444e-001 -8.034845e-002 -5.000000e-001
      vertex   6.542444e-001 -8.034845e-002 -7.000000e-001
    endloop
  endfacet
  facet normal 7.071068e-001 7.071068e-001 0.000000e+000
    outer loop
      vertex   6.542444e-001 -8.034845e-002 -5.000000e-001
      vertex   6.696515e-001 -9.575556e-002 -5.000000e-001
      vertex   6.696515e-001 -9.575556e-002 -7.000000e-001
    endloop
  endfacet
  facet normal 5.735764e-001 8.191520e-001 0.000000e+000
    outer loop
      vertex   6.696515e-001 -9.575556e-002 -5.000000e-001
      vertex   6.875000e-001 -1.082532e-001 -5.000000e-001
      vertex   6.875000e-001 -1.082532e-001 -7.000000e-001
    endloop
  endfacet
  facet normal 4.226183e-001 9.063078e-001 0.000000e+000
    outer loop
      vertex   6.875000e-001 -1.082532e-001 -5.000000e-001
      vertex   7.072475e-001 -1.174616e-001 -5.000000e-001
      vertex   7.072475e-001 -1.174616e-001 -7.000000e-001
    endloop
  endfacet
  facet normal 2.588190e-001 9.659258e-001 1.055505e-016
    outer loop
      vertex   7.072475e-001 -1.174616e-001 -5.000000e-001
      vertex   7.282940e-001 -1.231010e-001 -5.000000e-001
      vertex   7.282940e-001 -1.231010e-001 -7.000000e-001
    endloop
  endfacet
  facet normal 8.715574e-002 9.961947e-001 0.000000e+000
    outer loop
      vertex   7.282940e-001 -1.231010e-001 -5.000000e-001
      vertex   7.500000e-001 -1.250000e-001 -5.000000e-001
      vertex   7.500000e-001 -1.250000e-001 -7.000000e-001
    endloop
  endfacet
  facet normal -8.715574e-002 9.961947e-001 1.088581e-016
    outer loop
      vertex   7.500000e-001 -1.250000e-001 -5.000000e-001
      vertex   7.717060e-001 -1.231010e-001 -5.000000e-001
      vertex   7.717060e-001 -1.231010e-001 -7.000000e-001
    endloop
  endfacet
  facet normal -2.588190e-001 9.659258e-001 2.262574e-016
    outer loop
      vertex   7.717060e-001 -1.231010e-001 -5.000000e-001
      vertex   7.927525e-001 -1.174616e-001 -5.000000e-001
      vertex   7.927525e-001 -1.174616e-001 -7.000000e-001
    endloop
  endfacet
  facet normal -4.226183e-001 9.063078e-001 -9.903580e-017
    outer loop
      vertex   7.927525e-001 -1.174616e-001 -5.000000e-001
      vertex   8.125000e-001 -1.082532e-001 -5.000000e-001
      vertex   8.125000e-001 -1.082532e-001 -7.000000e-001
    endloop
  endfacet
  facet normal -5.735764e-001 8.191520e-001 0.000000e+000
    outer loop
      vertex   8.125000e-001 -1.082532e-001 -5.000000e-001
      vertex   8.303485e-001 -9.575556e-002 -5.000000e-001
      vertex   8.303485e-001 -9.575556e-002 -7.000000e-001
    endloop
  endfacet
  facet normal -7.071068e-001 7.071068e-001 0.000000e+000
    outer loop
      vertex   8.303485e-001 -9.575556e-002 -5.000000e-001
      vertex   8.457556e-001 -8.034845e-002 -5.000000e-001
      vertex   8.457556e-001 -8.034845e-002 -7.000000e-001
    endloop
  endfacet
  facet normal -8.191520e-001 5.735764e-001 0.000000e+000
    outer loop
      vertex   8.457556e-001 -8.034845e-002 -5.000000e-001
      vertex   8.582532e-001 -6.250000e-002 -5.000000e-001
      vertex   8.582532e-001 -6.250000e-002 -7.000000e-001
    endloop
  endfacet
  facet normal -9.063078e-001 4.226183e-001 0.000000e+000
    outer loop
      vertex   8.582532e-001 -6.250000e-002 -5.000000e-001
      vertex   8.674616e-001 -4.275252e-002 -5.000000e-001
      vertex   8.674616e-001 -4.275252e-002 -7.000000e-001
    endloop
  endfacet
  facet normal -9.659258e-001 2.588190e-001 -7.424070e-017
    outer loop
      vertex   8.674616e-001 -4.275252e-002 -5.000000e-001
      vertex   8.731010e-001 -2.170602e-002 -5.000000e-001
      vertex   8.731010e-001 -2.170602e-002 -7.000000e-001
    endloop
  endfacet
  facet normal -9.961947e-001 8.715574e-002 0.000000e+000
    outer loop
      vertex   8.731010e-001 -2.170602e-002 -5.000000e-001
      vertex   8.750000e-001 1.082366e-016 -5.000000e-001
      vertex   8.750000e-001 1.082366e-016 -7.000000e-001
    endloop
  endfacet
  facet normal -9.961947e-001 -8.715574e-002 2.500011e-017
    outer loop
      vertex   8.750000e-001 1.082366e-016 -5.000000e-001
      vertex   8.731010e-001 2.170602e-002 -5.000000e-001
      vertex   8.731010e-001 2.170602e-002 -7.000000e-001
    endloop
  endfacet
  facet normal -9.659258e-001 -2.588190e-001 0.000000e+000
    outer loop
      vertex   8.731010e-001 2.170602e-002 -5.000000e-001
      vertex   8.674616e-001 4.275252e-002 -5.000000e-001
      vertex   8.674616e-001 4.275252e-002 -7.000000e-001
    endloop
  endfacet
  facet normal -9.063078e-001 -4.226183e-001 0.000000e+000
    outer loop
      vertex   8.674616e-001 4.275252e-002 -5.000000e-001
      vertex   8.582532e-001 6.250000e-002 -5.000000e-001
      vertex   8.582532e-001 6.250000e-002 -7.000000e-001
    endloop
  endfacet
  facet normal -8.191520e-001 -5.735764e-001 0.000000e+000
    outer loop
      vertex   8.582532e-001 6.250000e-002 -5.000000e-001
      vertex   8.457556e-001 8.034845e-002 -5.000000e-001
      vertex   8.457556e-001 8.034845e-002 -7.000000e-001
    endloop
  endfacet
  facet normal -7.071068e-001 -7.071068e-001 0.000000e+000
    outer loop
      vertex   8.457556e-001 8.034845e-002 -5.000000e-001
      vertex   8.303485e-001 9.575556e-002 -5.000000e-001
      vertex   8.303485e-001 9.575556e-002 -7.000000e-001
    endloop
  endfacet
  facet normal -5.735764e-001 -8.191520e-001 8.951195e-017
    outer loop
      vertex   8.303485e-001 9.575556e-002 -5.000000e-001
      vertex   8.125000e-001 1.082532e-001 -5.000000e-001
      vertex   8.125000e-001 1.082532e-001 -7.000000e-001
    endloop
  endfacet
  facet normal -4.226183e-001 -9.063078e-001 -3.694492e-016
    outer loop
      vertex   8.125000e-001 1.082532e-001 -5.000000e-001
      vertex   7.927525e-001 1.174616e-001 -5.000000e-001
      vertex   7.927525e-001 1.174616e-001 -7.000000e-001
    endloop
  endfacet
  facet normal -2.588190e-001 -9.659258e-001 -1.055505e-016
    outer loop
      vertex   7.927525e-001 1.174616e-001 -5.000000e-001
      vertex   7.717060e-001 1.231010e-001 -5.000000e-001
      vertex   7.717060e-001 1.231010e-001 -7.000000e-001
    endloop
  endfacet
  facet normal -8.715574e-002 -9.961947e-001 0.000000e+000
    outer loop
      vertex   7.717060e-001 1.231010e-001 -5.000000e-001
      vertex   7.500000e-001 1.250000e-001 -5.000000e-001
      vertex   7.500000e-001 1.250000e-001 -7.000000e-001
    endloop
  endfacet
  facet normal 8.715574e-002 -9.961947e-001 -1.088581e-016
    outer loop
      vertex   7.500000e-001 1.250000e-001 -5.000000e-001
      vertex   7.282940e-001 1.231010e-001 -5.000000e-001
      vertex   7.282940e-001 1.231010e-001 -7.000000e-001
    endloop
  endfacet
  facet normal 2.588190e-001 -9.659258e-001 0.000000e+000
    outer loop
      vertex   7.282940e-001 1.231010e-001 -5.000000e-001
      vertex   7.072475e-001 1.174616e-001 -5.000000e-001
      vertex   7.072475e-001 1.174616e-001 -7.000000e-001
    endloop
  endfacet
  facet normal 4.226183e-001 -9.063078e-001 0.000000e+000
    outer loop
      vertex   7.072475e-001 1.174616e-001 -5.000000e-001
      vertex   6.875000e-001 1.082532e-001 -5.000000e-001
      vertex   6.875000e-001 1.082532e-001 -7.000000e-001
    endloop
  endfacet
  facet normal 5.735764e-001 -8.191520e-001 0.000000e+000
    outer loop
      vertex   6.875000e-001 1.082532e-001 -5.000000e-001
      vertex   6.696515e-001 9.575556e-002 -5.000000e-001
      vertex   6.696515e-001 9.575556e-002 -7.000000e-001
    endloop
  endfacet
  facet normal 7.071068e-001 -7.071068e-001 0.000000e+000
    outer loop
      vertex   6.696515e-001 9.575556e-002 -5.000000e-001
      vertex   6.542444e-001 8.034845e-002 -5.000000e-001
      vertex   6.542444e-001 8.034845e-002 -7.000000e-001
    endloop
  endfacet
  facet normal 8.191520e-001 -5.735764e-001 -1.253539e-016
    outer loop
      vertex   6.542444e-001 8.034845e-002 -5.000000e-001
      vertex   6.417468e-001 6.250000e-002 -5.000000e-001
      vertex   6.417468e-001 6.250000e-002 -7.000000e-001
    endloop
  endfacet
  facet normal 7.071068e-001 0.000000e+000 7.071068e-001
    outer loop
      vertex   1.000000e-002 -8.000000e-001 0.000000e+000
      vertex   1.000000e-001 -8.000000e-001 -9.000000e-002
      vertex   1.000000e-002 8.000000e-001 0.000000e+000
    endloop
  endfacet
  facet normal 7.071068e-001 0.000000e+000 7.071068e-001
    outer loop
      vertex   1.000000e-002 8.000000e-001 0.000000e+000
      vertex   1.000000e-001 -8.000000e-001 -9.000000e-002
      vertex   1.000000e-001 8.000000e-001 -9.000000e-002
    endloop
  endfacet
  facet normal 1.000000e+000 0.000000e+000 0.000000e+000
    outer loop
      vertex   1.000000e-001 8.000000e-001 -9.000000e-002
      vertex   1.000000e-001 -8.000000e-001 -9.000000e-002
      vertex   1.000000e-001 8.000000e-001 -5.000000e-001
    endloop
  endfacet
  facet normal 1.000000e+000 0.000000e+000 0.000000e+000
    outer loop
      vertex   1.000000e-001 8.000000e-001 -5.000000e-001
      vertex   1.000000e-001 -8.000000e-001 -9.000000e-002
      vertex   1.000000e-001 -8.000000e-001 -5.000000e-001
    endloop
  endfacet
  facet normal 0.000000e+000 -1.000000e+000 0.000000e+000
    outer loop
      vertex   1.000000e-001 -8.000000e-001 -9.000000e-002
      vertex   1.000000e-002 -8.000000e-001 0.000000e+000
      vertex   1.000000e-001 -8.000000e-001 -5.000000e-001
    endloop
  endfacet
  facet normal 0.000000e+000 -1.000000e+000 0.000000e+000
    outer loop
      vertex   1.000000e-001 -8.000000e-001 -5.000000e-001
      vertex   1.000000e-002 -8.000000e-001 0.000000e+000
      vertex   -1.000000e-002 -8.000000e-001 0.000000e+000
    endloop
  endfacet
  facet normal 0.000000e+000 -1.000000e+000 0.000000e+000
    outer loop
      vertex   -1.000000e-001 -8.000000e-001 -9.000000e-002
      vertex   1.000000e-001 -8.000000e-001 -5.000000e-001
      vertex   -1.000000e-002 -8.000000e-001 0.000000e+000
    endloop
  endfacet
  facet normal 0.000000e+000 -1.000000e+000 0.000000e+000
    outer loop
      vertex   -1.000000e-001 -8.000000e-001 -9.000000e-002
      vertex   -1.000000e-001 -8.000000e-001 -5.000000e-001
      vertex   1.000000e-001 -8.000000e-001 -5.000000e-001
    endloop
  endfacet
  facet normal -7.071068e-001 -3.696948e-017 7.071068e-001
    outer loop
      vertex   -1.000000e-002 8.000000e-001 0.000000e+000
      vertex   -1.000000e-001 8.000000e-001 -9.000000e-002
      vertex   -1.000000e-002 -8.000000e-001 0.000000e+000
    endloop
  endfacet
  facet normal -7.071068e-001 -3.863416e-017 7.071068e-001
    outer loop
      vertex   -1.000000e-002 -8.000000e-001 0.000000e+000
      vertex   -1.000000e-001 8.000000e-001 -9.000000e-002
      vertex   -1.000000e-001 -8.000000e-001 -9.000000e-002
    endloop
  endfacet
  facet normal -1.000000e+000 -5.463696e-017 0.000000e+000
    outer loop
      vertex   -1.000000e-001 -8.000000e-001 -9.000000e-002
      vertex   -1.000000e-001 8.000000e-001 -9.000000e-002
      vertex   -1.000000e-001 -8.000000e-001 -5.000000e-001
    endloop
  endfacet
  facet normal -1.000000e+000 -5.463696e-017 0.000000e+000
    outer loop
      vertex   -1.000000e-001 -8.000000e-001 -5.000000e-001
      vertex   -1.000000e-001 8.000000e-001 -9.000000e-002
      vertex   -1.000000e-001 8.000000e-001 -5.000000e-001
    endloop
  endfacet
  facet normal 0.000000e+000 1.000000e+000 0.000000e+000
    outer loop
      vertex   -1.000000e-002 8.000000e-001 0.000000e+000
      vertex   1.000000e-002 8.000000e-001 0.000000e+000
      vertex   -1.000000e-001 8.000000e-001 -5.000000e-001
    endloop
  endfacet
  facet normal 0.000000e+000 1.000000e+000 0.000000e+000
    outer loop
      vertex   -1.000000e-001 8.000000e-001 -9.000000e-002
      vertex   -1.000000e-002 8.000000e-001 0.000000e+000
      vertex   -1.000000e-001 8.000000e-001 -5.000000e-001
    endloop
  endfacet
  facet normal 0.000000e+000 1.000000e+000 0.000000e+000
    outer loop
      vertex   1.000000e-001 8.000000e-001 -5.000000e-001
      vertex   -1.000000e-001 8.000000e-001 -5.000000e-001
      vertex   1.000000e-001 8.000000e-001 -9.000000e-002
    endloop
  endfacet
  facet normal 0.000000e+000 1.000000e+000 0.000000e+000
    outer loop
      vertex   1.000000e-001 8.000000e-001 -9.000000e-002
      vertex   -1.000000e-001 8.000000e-001 -5.000000e-001
      vertex   1.000000e-002 8.000000e-001 0.000000e+000
    endloop
  endfacet
  facet normal -2.938503e-016 2.570857e-017 1.000000e+000
    outer loop
      vertex   6.268990e-001 2.170602e-002 -5.000000e-001
      vertex   1.000000e-001 8.000000e-001 -5.000000e-001
      vertex   6.250000e-001 1.235441e-016 -5.000000e-001
    endloop
  endfacet
  facet normal -2.377321e-016 6.370014e-017 1.000000e+000
    outer loop
      vertex   6.268990e-001 2.170602e-002 -5.000000e-001
      vertex   6.325384e-001 4.275252e-002 -5.000000e-001
      vertex   1.000000e-001 8.000000e-001 -5.000000e-001
    endloop
  endfacet
  facet normal -1.974127e-016 9.205504e-017 1.000000e+000
    outer loop
      vertex   1.000000e-001 8.000000e-001 -5.000000e-001
      vertex   6.325384e-001 4.275252e-002 -5.000000e-001
      vertex   6.417468e-001 6.250000e-002 -5.000000e-001
    endloop
  endfacet
  facet normal -1.652302e-016 1.156954e-016 1.000000e+000
    outer loop
      vertex   6.542444e-001 8.034845e-002 -5.000000e-001
      vertex   1.000000e-001 8.000000e-001 -5.000000e-001
      vertex   6.417468e-001 6.250000e-002 -5.000000e-001
    endloop
  endfacet
  facet normal 1.596761e-017 2.552461e-016 1.000000e+000
    outer loop
      vertex   6.542444e-001 8.034845e-002 -5.000000e-001
      vertex   6.427876e-001 7.660444e-001 -5.000000e-001
      vertex   1.000000e-001 8.000000e-001 -5.000000e-001
    endloop
  endfacet
  facet normal -2.507890e-016 2.507890e-016 1.000000e+000
    outer loop
      vertex   6.542444e-001 8.034845e-002 -5.000000e-001
      vertex   6.696515e-001 9.575556e-002 -5.000000e-001
      vertex   6.427876e-001 7.660444e-001 -5.000000e-001
    endloop
  endfacet
  facet normal 2.717306e-016 2.717306e-016 1.000000e+000
    outer loop
      vertex   6.427876e-001 7.660444e-001 -5.000000e-001
      vertex   6.696515e-001 9.575556e-002 -5.000000e-001
      vertex   7.660444e-001 6.427876e-001 -5.000000e-001
    endloop
  endfacet
  facet normal -2.552943e-016 3.645981e-016 1.000000e+000
    outer loop
      vertex   7.660444e-001 6.427876e-001 -5.000000e-001
      vertex   6.696515e-001 9.575556e-002 -5.000000e-001
      vertex   6.875000e-001 1.082532e-001 -5.000000e-001
    endloop
  endfacet
  facet normal -2.642745e-016 5.667384e-016 1.000000e+000
    outer loop
      vertex   8.660254e-001 5.000000e-001 -5.000000e-001
      vertex   6.875000e-001 1.082532e-001 -5.000000e-001
      vertex   7.072475e-001 1.174616e-001 -5.000000e-001
    endloop
  endfacet
  facet normal -1.377900e-016 5.142393e-016 1.000000e+000
    outer loop
      vertex   7.282940e-001 1.231010e-001 -5.000000e-001
      vertex   8.660254e-001 5.000000e-001 -5.000000e-001
      vertex   7.072475e-001 1.174616e-001 -5.000000e-001
    endloop
  endfacet
  facet normal 5.577293e-016 2.600734e-016 1.000000e+000
    outer loop
      vertex   7.282940e-001 1.231010e-001 -5.000000e-001
      vertex   9.396926e-001 3.420201e-001 -5.000000e-001
      vertex   8.660254e-001 5.000000e-001 -5.000000e-001
    endloop
  endfacet
  facet normal -7.631996e-017 8.723412e-016 1.000000e+000
    outer loop
      vertex   7.282940e-001 1.231010e-001 -5.000000e-001
      vertex   7.500000e-001 1.250000e-001 -5.000000e-001
      vertex   9.396926e-001 3.420201e-001 -5.000000e-001
    endloop
  endfacet
  facet normal 6.547651e-017 7.483999e-016 1.000000e+000
    outer loop
      vertex   9.396926e-001 3.420201e-001 -5.000000e-001
      vertex   7.500000e-001 1.250000e-001 -5.000000e-001
      vertex   7.717060e-001 1.231010e-001 -5.000000e-001
    endloop
  endfacet
  facet normal 1.775000e-016 6.624392e-016 1.000000e+000
    outer loop
      vertex   7.927525e-001 1.174616e-001 -5.000000e-001
      vertex   9.396926e-001 3.420201e-001 -5.000000e-001
      vertex   7.717060e-001 1.231010e-001 -5.000000e-001
    endloop
  endfacet
  facet normal 8.441791e-016 2.261971e-016 1.000000e+000
    outer loop
      vertex   7.927525e-001 1.174616e-001 -5.000000e-001
      vertex   9.848078e-001 1.736482e-001 -5.000000e-001
      vertex   9.396926e-001 3.420201e-001 -5.000000e-001
    endloop
  endfacet
  facet normal 5.593969e-016 1.199631e-015 1.000000e+000
    outer loop
      vertex   7.927525e-001 1.174616e-001 -5.000000e-001
      vertex   8.125000e-001 1.082532e-001 -5.000000e-001
      vertex   9.848078e-001 1.736482e-001 -5.000000e-001
    endloop
  endfacet
  facet normal 6.580252e-016 9.397573e-016 1.000000e+000
    outer loop
      vertex   9.848078e-001 1.736482e-001 -5.000000e-001
      vertex   8.125000e-001 1.082532e-001 -5.000000e-001
      vertex   8.303485e-001 9.575556e-002 -5.000000e-001
    endloop
  endfacet
  facet normal 7.524718e-016 7.524718e-016 1.000000e+000
    outer loop
      vertex   8.457556e-001 8.034845e-002 -5.000000e-001
      vertex   9.848078e-001 1.736482e-001 -5.000000e-001
      vertex   8.303485e-001 9.575556e-002 -5.000000e-001
    endloop
  endfacet
  facet normal 8.554511e-016 5.989933e-016 1.000000e+000
    outer loop
      vertex   8.457556e-001 8.034845e-002 -5.000000e-001
      vertex   8.582532e-001 6.250000e-002 -5.000000e-001
      vertex   9.848078e-001 1.736482e-001 -5.000000e-001
    endloop
  endfacet
  facet normal 9.801240e-016 4.570393e-016 1.000000e+000
    outer loop
      vertex   9.848078e-001 1.736482e-001 -5.000000e-001
      vertex   8.582532e-001 6.250000e-002 -5.000000e-001
      vertex   8.674616e-001 4.275252e-002 -5.000000e-001
    endloop
  endfacet
  facet normal 1.443955e-015 3.869065e-016 1.000000e+000
    outer loop
      vertex   1.000000e+000 1.388517e-016 -5.000000e-001
      vertex   8.674616e-001 4.275252e-002 -5.000000e-001
      vertex   8.731010e-001 2.170602e-002 -5.000000e-001
    endloop
  endfacet
  facet normal 1.398706e-015 1.223709e-016 1.000000e+000
    outer loop
      vertex   8.750000e-001 1.082366e-016 -5.000000e-001
      vertex   1.000000e+000 1.388517e-016 -5.000000e-001
      vertex   8.731010e-001 2.170602e-002 -5.000000e-001
    endloop
  endfacet
  facet normal 1.398706e-015 -1.223709e-016 1.000000e+000
    outer loop
      vertex   8.750000e-001 1.082366e-016 -5.000000e-001
      vertex   8.731010e-001 -2.170602e-002 -5.000000e-001
      vertex   1.000000e+000 1.388517e-016 -5.000000e-001
    endloop
  endfacet
  facet normal 1.443955e-015 -3.869065e-016 1.000000e+000
    outer loop
      vertex   1.000000e+000 1.388517e-016 -5.000000e-001
      vertex   8.731010e-001 -2.170602e-002 -5.000000e-001
      vertex   8.674616e-001 -4.275252e-002 -5.000000e-001
    endloop
  endfacet
  facet normal 9.801240e-016 -4.570393e-016 1.000000e+000
    outer loop
      vertex   9.848078e-001 -1.736482e-001 -5.000000e-001
      vertex   8.674616e-001 -4.275252e-002 -5.000000e-001
      vertex   8.582532e-001 -6.250000e-002 -5.000000e-001
    endloop
  endfacet
  facet normal 8.554511e-016 -5.989933e-016 1.000000e+000
    outer loop
      vertex   8.457556e-001 -8.034845e-002 -5.000000e-001
      vertex   9.848078e-001 -1.736482e-001 -5.000000e-001
      vertex   8.582532e-001 -6.250000e-002 -5.000000e-001
    endloop
  endfacet
  facet normal 7.524718e-016 -7.524718e-016 1.000000e+000
    outer loop
      vertex   8.457556e-001 -8.034845e-002 -5.000000e-001
      vertex   8.303485e-001 -9.575556e-002 -5.000000e-001
      vertex   9.848078e-001 -1.736482e-001 -5.000000e-001
    endloop
  endfacet
  facet normal 6.580252e-016 -9.397573e-016 1.000000e+000
    outer loop
      vertex   9.848078e-001 -1.736482e-001 -5.000000e-001
      vertex   8.303485e-001 -9.575556e-002 -5.000000e-001
      vertex   8.125000e-001 -1.082532e-001 -5.000000e-001
    endloop
  endfacet
  facet normal 5.593969e-016 -1.199631e-015 1.000000e+000
    outer loop
      vertex   7.927525e-001 -1.174616e-001 -5.000000e-001
      vertex   9.848078e-001 -1.736482e-001 -5.000000e-001
      vertex   8.125000e-001 -1.082532e-001 -5.000000e-001
    endloop
  endfacet
  facet normal 8.441791e-016 -2.261971e-016 1.000000e+000
    outer loop
      vertex   7.927525e-001 -1.174616e-001 -5.000000e-001
      vertex   9.396926e-001 -3.420201e-001 -5.000000e-001
      vertex   9.848078e-001 -1.736482e-001 -5.000000e-001
    endloop
  endfacet
  facet normal 1.775000e-016 -6.624392e-016 1.000000e+000
    outer loop
      vertex   7.927525e-001 -1.174616e-001 -5.000000e-001
      vertex   7.717060e-001 -1.231010e-001 -5.000000e-001
      vertex   9.396926e-001 -3.420201e-001 -5.000000e-001
    endloop
  endfacet
  facet normal 6.547651e-017 -7.483999e-016 1.000000e+000
    outer loop
      vertex   9.396926e-001 -3.420201e-001 -5.000000e-001
      vertex   7.717060e-001 -1.231010e-001 -5.000000e-001
      vertex   7.500000e-001 -1.250000e-001 -5.000000e-001
    endloop
  endfacet
  facet normal -7.631996e-017 -8.723412e-016 1.000000e+000
    outer loop
      vertex   7.282940e-001 -1.231010e-001 -5.000000e-001
      vertex   9.396926e-001 -3.420201e-001 -5.000000e-001
      vertex   7.500000e-001 -1.250000e-001 -5.000000e-001
    endloop
  endfacet
  facet normal 5.577293e-016 -2.600734e-016 1.000000e+000
    outer loop
      vertex   7.282940e-001 -1.231010e-001 -5.000000e-001
      vertex   8.660254e-001 -5.000000e-001 -5.000000e-001
      vertex   9.396926e-001 -3.420201e-001 -5.000000e-001
    endloop
  endfacet
  facet normal -1.377900e-016 -5.142393e-016 1.000000e+000
    outer loop
      vertex   7.282940e-001 -1.231010e-001 -5.000000e-001
      vertex   7.072475e-001 -1.174616e-001 -5.000000e-001
      vertex   8.660254e-001 -5.000000e-001 -5.000000e-001
    endloop
  endfacet
  facet normal -2.642745e-016 -5.667384e-016 1.000000e+000
    outer loop
      vertex   8.660254e-001 -5.000000e-001 -5.000000e-001
      vertex   7.072475e-001 -1.174616e-001 -5.000000e-001
      vertex   6.875000e-001 -1.082532e-001 -5.000000e-001
    endloop
  endfacet
  facet normal -2.552943e-016 -3.645981e-016 1.000000e+000
    outer loop
      vertex   7.660444e-001 -6.427876e-001 -5.000000e-001
      vertex   6.875000e-001 -1.082532e-001 -5.000000e-001
      vertex   6.696515e-001 -9.575556e-002 -5.000000e-001
    endloop
  endfacet
  facet normal 1.635858e-017 -2.614958e-016 1.000000e+000
    outer loop
      vertex   6.427876e-001 -7.660444e-001 -5.000000e-001
      vertex   6.696515e-001 -9.575556e-002 -5.000000e-001
      vertex   1.000000e-001 -8.000000e-001 -5.000000e-001
    endloop
  endfacet
  facet normal 0.000000e+000 0.000000e+000 1.000000e+000
    outer loop
      vertex   5.000000e-001 -8.660254e-001 -5.000000e-001
      vertex   1.000000e-001 -8.000000e-001 -5.000000e-001
      vertex   3.420201e-001 -9.396926e-001 -5.000000e-001
    endloop
  endfacet
  facet normal 0.000000e+000 0.000000e+000 1.000000e+000
    outer loop
      vertex   5.000000e-001 -8.660254e-001 -5.000000e-001
      vertex   6.427876e-001 -7.660444e-001 -5.000000e-001
      vertex   1.000000e-001 -8.000000e-001 -5.000000e-001
    endloop
  endfacet
  facet normal -1.372469e-016 -1.372469e-016 1.000000e+000
    outer loop
      vertex   6.696515e-001 -9.575556e-002 -5.000000e-001
      vertex   6.542444e-001 -8.034845e-002 -5.000000e-001
      vertex   1.000000e-001 -8.000000e-001 -5.000000e-001
    endloop
  endfacet
  facet normal -1.652302e-016 -1.156954e-016 1.000000e+000
    outer loop
      vertex   1.000000e-001 -8.000000e-001 -5.000000e-001
      vertex   6.542444e-001 -8.034845e-002 -5.000000e-001
      vertex   6.417468e-001 -6.250000e-002 -5.000000e-001
    endloop
  endfacet
  facet normal -1.974127e-016 -9.205504e-017 1.000000e+000
    outer loop
      vertex   6.325384e-001 -4.275252e-002 -5.000000e-001
      vertex   1.000000e-001 -8.000000e-001 -5.000000e-001
      vertex   6.417468e-001 -6.250000e-002 -5.000000e-001
    endloop
  endfacet
  facet normal -2.377321e-016 -6.370014e-017 1.000000e+000
    outer loop
      vertex   6.325384e-001 -4.275252e-002 -5.000000e-001
      vertex   6.268990e-001 -2.170602e-002 -5.000000e-001
      vertex   1.000000e-001 -8.000000e-001 -5.000000e-001
    endloop
  endfacet
  facet normal -2.938503e-016 -2.570857e-017 1.000000e+000
    outer loop
      vertex   1.000000e-001 -8.000000e-001 -5.000000e-001
      vertex   6.268990e-001 -2.170602e-002 -5.000000e-001
      vertex   6.250000e-001 1.235441e-016 -5.000000e-001
    endloop
  endfacet
  facet normal -3.330253e-016 0.000000e+000 1.000000e+000
    outer loop
      vertex   1.000000e-001 8.000000e-001 -5.000000e-001
      vertex   1.000000e-001 -8.000000e-001 -5.000000e-001
      vertex   6.250000e-001 1.235441e-016 -5.000000e-001
    endloop
  endfacet
  facet normal 0.000000e+000 0.000000e+000 1.000000e+000
    outer loop
      vertex   -9.848078e-001 1.736482e-001 -5.000000e-001
      vertex   -1.000000e+000 1.639109e-017 -5.000000e-001
      vertex   -1.000000e-001 -8.000000e-001 -5.000000e-001
    endloop
  endfacet
  facet normal 0.000000e+000 0.000000e+000 1.000000e+000
    outer loop
      vertex   -1.000000e-001 8.000000e-001 -5.000000e-001
      vertex   -9.848078e-001 1.736482e-001 -5.000000e-001
      vertex   -1.000000e-001 -8.000000e-001 -5.000000e-001
    endloop
  endfacet
  facet normal 0.000000e+000 0.000000e+000 1.000000e+000
    outer loop
      vertex   -1.000000e-001 8.000000e-001 -5.000000e-001
      vertex   -9.396926e-001 3.420201e-001 -5.000000e-001
      vertex   -9.848078e-001 1.736482e-001 -5.000000e-001
    endloop
  endfacet
  facet normal 0.000000e+000 0.000000e+000 1.000000e+000
    outer loop
      vertex   -1.000000e-001 8.000000e-001 -5.000000e-001
      vertex   -8.660254e-001 5.000000e-001 -5.000000e-001
      vertex   -9.396926e-001 3.420201e-001 -5.000000e-001
    endloop
  endfacet
  facet normal 0.000000e+000 0.000000e+000 1.000000e+000
    outer loop
      vertex   -1.000000e-001 8.000000e-001 -5.000000e-001
      vertex   -7.660444e-001 6.427876e-001 -5.000000e-001
      vertex   -8.660254e-001 5.000000e-001 -5.000000e-001
    endloop
  endfacet
  facet normal 0.000000e+000 0.000000e+000 1.000000e+000
    outer loop
      vertex   -1.000000e-001 8.000000e-001 -5.000000e-001
      vertex   -6.427876e-001 7.660444e-001 -5.000000e-001
      vertex   -7.660444e-001 6.427876e-001 -5.000000e-001
    endloop
  endfacet
  facet normal 0.000000e+000 0.000000e+000 1.000000e+000
    outer loop
      vertex   -1.000000e-001 8.000000e-001 -5.000000e-001
      vertex   -5.000000e-001 8.660254e-001 -5.000000e-001
      vertex   -6.427876e-001 7.660444e-001 -5.000000e-001
    endloop
  endfacet
  facet normal 0.000000e+000 0.000000e+000 1.000000e+000
    outer loop
      vertex   -1.000000e-001 8.000000e-001 -5.000000e-001
      vertex   -3.420201e-001 9.396926e-001 -5.000000e-001
      vertex   -5.000000e-001 8.660254e-001 -5.000000e-001
    endloop
  endfacet
  facet normal 0.000000e+000 0.000000e+000 1.000000e+000
    outer loop
      vertex   -1.000000e-001 8.000000e-001 -5.000000e-001
      vertex   -1.736482e-001 9.848078e-001 -5.000000e-001
      vertex   -3.420201e-001 9.396926e-001 -5.000000e-001
    endloop
  endfacet
  facet normal 0.000000e+000 0.000000e+000 1.000000e+000
    outer loop
      vertex   -1.000000e-001 8.000000e-001 -5.000000e-001
      vertex   -7.182658e-017 1.000000e+000 -5.000000e-001
      vertex   -1.736482e-001 9.848078e-001 -5.000000e-001
    endloop
  endfacet
  facet normal 0.000000e+000 0.000000e+000 1.000000e+000
    outer loop
      vertex   -1.000000e-001 8.000000e-001 -5.000000e-001
      vertex   1.000000e-001 8.000000e-001 -5.000000e-001
      vertex   -7.182658e-017 1.000000e+000 -5.000000e-001
    endloop
  endfacet
  facet normal 0.000000e+000 0.000000e+000 1.000000e+000
    outer loop
      vertex   -7.182658e-017 1.000000e+000 -5.000000e-001
      vertex   1.000000e-001 8.000000e-001 -5.000000e-001
      vertex   1.736482e-001 9.848078e-001 -5.000000e-001
    endloop
  endfacet
  facet normal 0.000000e+000 0.000000e+000 1.000000e+000
    outer loop
      vertex   1.736482e-001 9.848078e-001 -5.000000e-001
      vertex   1.000000e-001 8.000000e-001 -5.000000e-001
      vertex   3.420201e-001 9.396926e-001 -5.000000e-001
    endloop
  endfacet
  facet normal 0.000000e+000 0.000000e+000 1.000000e+000
    outer loop
      vertex   3.420201e-001 9.396926e-001 -5.000000e-001
      vertex   1.000000e-001 8.000000e-001 -5.000000e-001
      vertex   5.000000e-001 8.660254e-001 -5.000000e-001
    endloop
  endfacet
  facet normal 0.000000e+000 0.000000e+000 1.000000e+000
    outer loop
      vertex   5.000000e-001 8.660254e-001 -5.000000e-001
      vertex   1.000000e-001 8.000000e-001 -5.000000e-001
      vertex   6.427876e-001 7.660444e-001 -5.000000e-001
    endloop
  endfacet
  facet normal 0.000000e+000 0.000000e+000 1.000000e+000
    outer loop
      vertex   -1.000000e+000 1.639109e-017 -5.000000e-001
      vertex   -9.848078e-001 -1.736482e-001 -5.000000e-001
      vertex   -1.000000e-001 -8.000000e-001 -5.000000e-001
    endloop
  endfacet
  facet normal 0.000000e+000 0.000000e+000 1.000000e+000
    outer loop
      vertex   -1.000000e-001 -8.000000e-001 -5.000000e-001
      vertex   -9.848078e-001 -1.736482e-001 -5.000000e-001
      vertex   -9.396926e-001 -3.420201e-001 -5.000000e-001
    endloop
  endfacet
  facet normal 0.000000e+000 0.000000e+000 1.000000e+000
    outer loop
      vertex   -8.660254e-001 -5.000000e-001 -5.000000e-001
      vertex   -1.000000e-001 -8.000000e-001 -5.000000e-001
      vertex   -9.396926e-001 -3.420201e-001 -5.000000e-001
    endloop
  endfacet
  facet normal 0.000000e+000 0.000000e+000 1.000000e+000
    outer loop
      vertex   -8.660254e-001 -5.000000e-001 -5.000000e-001
      vertex   -7.660444e-001 -6.427876e-001 -5.000000e-001
      vertex   -1.000000e-001 -8.000000e-001 -5.000000e-001
    endloop
  endfacet
  facet normal 0.000000e+000 0.000000e+000 1.000000e+000
    outer loop
      vertex   -1.000000e-001 -8.000000e-001 -5.000000e-001
      vertex   -7.660444e-001 -6.427876e-001 -5.000000e-001
      vertex   -6.427876e-001 -7.660444e-001 -5.000000e-001
    endloop
  endfacet
  facet normal 0.000000e+000 0.000000e+000 1.000000e+000
    outer loop
      vertex   -5.000000e-001 -8.660254e-001 -5.000000e-001
      vertex   -1.000000e-001 -8.000000e-001 -5.000000e-001
      vertex   -6.427876e-001 -7.660444e-001 -5.000000e-001
    endloop
  endfacet
  facet normal 0.000000e+000 0.000000e+000 1.000000e+000
    outer loop
      vertex   -5.000000e-001 -8.660254e-001 -5.000000e-001
      vertex   -3.420201e-001 -9.396926e-001 -5.000000e-001
      vertex   -1.000000e-001 -8.000000e-001 -5.000000e-001
    endloop
  endfacet
  facet normal 0.000000e+000 0.000000e+000 1.000000e+000
    outer loop
      vertex   -1.000000e-001 -8.000000e-001 -5.000000e-001
      vertex   -3.420201e-001 -9.396926e-001 -5.000000e-001
      vertex   -1.736482e-001 -9.848078e-001 -5.000000e-001
    endloop
  endfacet
  facet normal 0.000000e+000 0.000000e+000 1.000000e+000
    outer loop
      vertex   1.730947e-016 -1.000000e+000 -5.000000e-001
      vertex   -1.000000e-001 -8.000000e-001 -5.000000e-001
      vertex   -1.736482e-001 -9.848078e-001 -5.000000e-001
    endloop
  endfacet
  facet normal 0.000000e+000 0.000000e+000 1.000000e+000
    outer loop
      vertex   1.730947e-016 -1.000000e+000 -5.000000e-001
      vertex   1.000000e-001 -8.000000e-001 -5.000000e-001
      vertex   -1.000000e-001 -8.000000e-001 -5.000000e-001
    endloop
  endfacet
  facet normal 0.000000e+000 0.000000e+000 1.000000e+000
    outer loop
      vertex   1.730947e-016 -1.000000e+000 -5.000000e-001
      vertex   1.736482e-001 -9.848078e-001 -5.000000e-001
      vertex   1.000000e-001 -8.000000e-001 -5.000000e-001
    endloop
  endfacet
  facet normal 0.000000e+000 0.000000e+000 1.000000e+000
    outer loop
      vertex   1.000000e-001 -8.000000e-001 -5.000000e-001
      vertex   1.736482e-001 -9.848078e-001 -5.000000e-001
      vertex   3.420201e-001 -9.396926e-001 -5.000000e-001
    endloop
  endfacet
  facet normal 2.717306e-016 -2.717306e-016 1.000000e+000
    outer loop
      vertex   6.427876e-001 -7.660444e-001 -5.000000e-001
      vertex   7.660444e-001 -6.427876e-001 -5.000000e-001
      vertex   6.696515e-001 -9.575556e-002 -5.000000e-001
    endloop
  endfacet
  facet normal 3.861018e-016 -2.703514e-016 1.000000e+000
    outer loop
      vertex   7.660444e-001 -6.427876e-001 -5.000000e-001
      vertex   8.660254e-001 -5.000000e-001 -5.000000e-001
      vertex   6.875000e-001 -1.082532e-001 -5.000000e-001
    endloop
  endfacet
  facet normal 1.357460e-015 -1.187624e-016 1.000000e+000
    outer loop
      vertex   9.848078e-001 -1.736482e-001 -5.000000e-001
      vertex   1.000000e+000 1.388517e-016 -5.000000e-001
      vertex   8.674616e-001 -4.275252e-002 -5.000000e-001
    endloop
  endfacet
  facet normal 1.357460e-015 1.187624e-016 1.000000e+000
    outer loop
      vertex   1.000000e+000 1.388517e-016 -5.000000e-001
      vertex   9.848078e-001 1.736482e-001 -5.000000e-001
      vertex   8.674616e-001 4.275252e-002 -5.000000e-001
    endloop
  endfacet
  facet normal 3.861018e-016 2.703514e-016 1.000000e+000
    outer loop
      vertex   8.660254e-001 5.000000e-001 -5.000000e-001
      vertex   7.660444e-001 6.427876e-001 -5.000000e-001
      vertex   6.875000e-001 1.082532e-001 -5.000000e-001
    endloop
  endfacet
  facet normal -9.961947e-001 -8.715574e-002 -1.904770e-017
    outer loop
      vertex   -9.848078e-001 -1.736482e-001 -7.000000e-001
      vertex   -9.848078e-001 -1.736482e-001 -5.000000e-001
      vertex   -1.000000e+000 1.639109e-017 -7.000000e-001
    endloop
  endfacet
  facet normal -9.659258e-001 -2.588190e-001 -6.170165e-017
    outer loop
      vertex   -9.848078e-001 -1.736482e-001 -7.000000e-001
      vertex   -9.396926e-001 -3.420201e-001 -5.000000e-001
      vertex   -9.848078e-001 -1.736482e-001 -5.000000e-001
    endloop
  endfacet
  facet normal -9.659258e-001 -2.588190e-001 1.515054e-015
    outer loop
      vertex   -9.848078e-001 -1.736482e-001 -7.000000e-001
      vertex   -9.396926e-001 -3.420201e-001 -7.000000e-001
      vertex   -9.396926e-001 -3.420201e-001 -5.000000e-001
    endloop
  endfacet
  facet normal -9.063078e-001 -4.226183e-001 7.143378e-016
    outer loop
      vertex   -9.396926e-001 -3.420201e-001 -5.000000e-001
      vertex   -9.396926e-001 -3.420201e-001 -7.000000e-001
      vertex   -8.660254e-001 -5.000000e-001 -5.000000e-001
    endloop
  endfacet
  facet normal -9.063078e-001 -4.226183e-001 -3.085083e-016
    outer loop
      vertex   -8.660254e-001 -5.000000e-001 -5.000000e-001
      vertex   -9.396926e-001 -3.420201e-001 -7.000000e-001
      vertex   -8.660254e-001 -5.000000e-001 -7.000000e-001
    endloop
  endfacet
  facet normal -8.191520e-001 -5.735764e-001 5.553149e-016
    outer loop
      vertex   -7.660444e-001 -6.427876e-001 -5.000000e-001
      vertex   -8.660254e-001 -5.000000e-001 -7.000000e-001
      vertex   -7.660444e-001 -6.427876e-001 -7.000000e-001
    endloop
  endfacet
  facet normal -7.071068e-001 -7.071068e-001 -6.170165e-016
    outer loop
      vertex   -6.427876e-001 -7.660444e-001 -5.000000e-001
      vertex   -7.660444e-001 -6.427876e-001 -7.000000e-001
      vertex   -6.427876e-001 -7.660444e-001 -7.000000e-001
    endloop
  endfacet
  facet normal -5.735764e-001 -8.191520e-001 0.000000e+000
    outer loop
      vertex   -5.000000e-001 -8.660254e-001 -5.000000e-001
      vertex   -6.427876e-001 -7.660444e-001 -7.000000e-001
      vertex   -5.000000e-001 -8.660254e-001 -7.000000e-001
    endloop
  endfacet
  facet normal -4.226183e-001 -9.063078e-001 6.170165e-016
    outer loop
      vertex   -3.420201e-001 -9.396926e-001 -5.000000e-001
      vertex   -5.000000e-001 -8.660254e-001 -7.000000e-001
      vertex   -3.420201e-001 -9.396926e-001 -7.000000e-001
    endloop
  endfacet
  facet normal -2.588190e-001 -9.659258e-001 -2.468066e-016
    outer loop
      vertex   -1.736482e-001 -9.848078e-001 -5.000000e-001
      vertex   -3.420201e-001 -9.396926e-001 -7.000000e-001
      vertex   -1.736482e-001 -9.848078e-001 -7.000000e-001
    endloop
  endfacet
  facet normal -8.715574e-002 -9.961947e-001 1.079779e-016
    outer loop
      vertex   1.730947e-016 -1.000000e+000 -5.000000e-001
      vertex   -1.736482e-001 -9.848078e-001 -7.000000e-001
      vertex   -7.182658e-017 -1.000000e+000 -7.000000e-001
    endloop
  endfacet
  facet normal 8.715574e-002 -9.961947e-001 0.000000e+000
    outer loop
      vertex   1.736482e-001 -9.848078e-001 -5.000000e-001
      vertex   -7.182658e-017 -1.000000e+000 -7.000000e-001
      vertex   1.736482e-001 -9.848078e-001 -7.000000e-001
    endloop
  endfacet
  facet normal 2.588190e-001 -9.659258e-001 0.000000e+000
    outer loop
      vertex   3.420201e-001 -9.396926e-001 -5.000000e-001
      vertex   1.736482e-001 -9.848078e-001 -7.000000e-001
      vertex   3.420201e-001 -9.396926e-001 -7.000000e-001
    endloop
  endfacet
  facet normal 4.226183e-001 -9.063078e-001 -6.787182e-016
    outer loop
      vertex   5.000000e-001 -8.660254e-001 -5.000000e-001
      vertex   3.420201e-001 -9.396926e-001 -7.000000e-001
      vertex   5.000000e-001 -8.660254e-001 -7.000000e-001
    endloop
  endfacet
  facet normal 5.735764e-001 -8.191520e-001 -4.936132e-016
    outer loop
      vertex   6.427876e-001 -7.660444e-001 -5.000000e-001
      vertex   5.000000e-001 -8.660254e-001 -7.000000e-001
      vertex   6.427876e-001 -7.660444e-001 -7.000000e-001
    endloop
  endfacet
  facet normal 7.071068e-001 -7.071068e-001 6.170165e-016
    outer loop
      vertex   7.660444e-001 -6.427876e-001 -5.000000e-001
      vertex   6.427876e-001 -7.660444e-001 -7.000000e-001
      vertex   7.660444e-001 -6.427876e-001 -7.000000e-001
    endloop
  endfacet
  facet normal 8.191520e-001 -5.735764e-001 0.000000e+000
    outer loop
      vertex   8.660254e-001 -5.000000e-001 -5.000000e-001
      vertex   7.660444e-001 -6.427876e-001 -7.000000e-001
      vertex   8.660254e-001 -5.000000e-001 -7.000000e-001
    endloop
  endfacet
  facet normal 9.063078e-001 -4.226183e-001 -3.085083e-016
    outer loop
      vertex   9.396926e-001 -3.420201e-001 -5.000000e-001
      vertex   8.660254e-001 -5.000000e-001 -7.000000e-001
      vertex   9.396926e-001 -3.420201e-001 -7.000000e-001
    endloop
  endfacet
  facet normal 9.659258e-001 -2.588190e-001 0.000000e+000
    outer loop
      vertex   9.848078e-001 -1.736482e-001 -5.000000e-001
      vertex   9.396926e-001 -3.420201e-001 -7.000000e-001
      vertex   9.848078e-001 -1.736482e-001 -7.000000e-001
    endloop
  endfacet
  facet normal 9.961947e-001 -8.715574e-002 1.079779e-016
    outer loop
      vertex   1.000000e+000 1.388517e-016 -5.000000e-001
      vertex   9.848078e-001 -1.736482e-001 -7.000000e-001
      vertex   1.000000e+000 -1.060695e-016 -7.000000e-001
    endloop
  endfacet
  facet normal 9.961947e-001 8.715574e-002 5.861657e-016
    outer loop
      vertex   9.848078e-001 1.736482e-001 -5.000000e-001
      vertex   1.000000e+000 -1.060695e-016 -7.000000e-001
      vertex   9.848078e-001 1.736482e-001 -7.000000e-001
    endloop
  endfacet
  facet normal 9.659258e-001 2.588190e-001 5.553149e-016
    outer loop
      vertex   9.396926e-001 3.420201e-001 -5.000000e-001
      vertex   9.848078e-001 1.736482e-001 -7.000000e-001
      vertex   9.396926e-001 3.420201e-001 -7.000000e-001
    endloop
  endfacet
  facet normal 9.063078e-001 4.226183e-001 1.851050e-016
    outer loop
      vertex   8.660254e-001 5.000000e-001 -5.000000e-001
      vertex   9.396926e-001 3.420201e-001 -7.000000e-001
      vertex   8.660254e-001 5.000000e-001 -7.000000e-001
    endloop
  endfacet
  facet normal 8.191520e-001 5.735764e-001 -4.936132e-016
    outer loop
      vertex   7.660444e-001 6.427876e-001 -5.000000e-001
      vertex   8.660254e-001 5.000000e-001 -7.000000e-001
      vertex   7.660444e-001 6.427876e-001 -7.000000e-001
    endloop
  endfacet
  facet normal 7.071068e-001 7.071068e-001 6.170165e-016
    outer loop
      vertex   6.427876e-001 7.660444e-001 -5.000000e-001
      vertex   7.660444e-001 6.427876e-001 -7.000000e-001
      vertex   6.427876e-001 7.660444e-001 -7.000000e-001
    endloop
  endfacet
  facet normal 5.735764e-001 8.191520e-001 1.295735e-015
    outer loop
      vertex   5.000000e-001 8.660254e-001 -5.000000e-001
      vertex   6.427876e-001 7.660444e-001 -7.000000e-001
      vertex   5.000000e-001 8.660254e-001 -7.000000e-001
    endloop
  endfacet
  facet normal 4.226183e-001 9.063078e-001 5.553149e-016
    outer loop
      vertex   3.420201e-001 9.396926e-001 -5.000000e-001
      vertex   5.000000e-001 8.660254e-001 -7.000000e-001
      vertex   3.420201e-001 9.396926e-001 -7.000000e-001
    endloop
  endfacet
  facet normal 2.588190e-001 9.659258e-001 0.000000e+000
    outer loop
      vertex   1.736482e-001 9.848078e-001 -5.000000e-001
      vertex   3.420201e-001 9.396926e-001 -7.000000e-001
      vertex   1.736482e-001 9.848078e-001 -7.000000e-001
    endloop
  endfacet
  facet normal 8.715574e-002 9.961947e-001 1.079779e-016
    outer loop
      vertex   -7.182658e-017 1.000000e+000 -5.000000e-001
      vertex   1.736482e-001 9.848078e-001 -7.000000e-001
      vertex   1.730947e-016 1.000000e+000 -7.000000e-001
    endloop
  endfacet
  facet normal -8.715574e-002 9.961947e-001 6.632928e-016
    outer loop
      vertex   -1.736482e-001 9.848078e-001 -5.000000e-001
      vertex   1.730947e-016 1.000000e+000 -7.000000e-001
      vertex   -1.736482e-001 9.848078e-001 -7.000000e-001
    endloop
  endfacet
  facet normal -2.588190e-001 9.659258e-001 0.000000e+000
    outer loop
      vertex   -3.420201e-001 9.396926e-001 -5.000000e-001
      vertex   -1.736482e-001 9.848078e-001 -7.000000e-001
      vertex   -3.420201e-001 9.396926e-001 -7.000000e-001
    endloop
  endfacet
  facet normal -4.226183e-001 9.063078e-001 0.000000e+000
    outer loop
      vertex   -5.000000e-001 8.660254e-001 -5.000000e-001
      vertex   -3.420201e-001 9.396926e-001 -7.000000e-001
      vertex   -5.000000e-001 8.660254e-001 -7.000000e-001
    endloop
  endfacet
  facet normal -5.735764e-001 8.191520e-001 7.404199e-016
    outer loop
      vertex   -6.427876e-001 7.660444e-001 -5.000000e-001
      vertex   -5.000000e-001 8.660254e-001 -7.000000e-001
      vertex   -6.427876e-001 7.660444e-001 -7.000000e-001
    endloop
  endfacet
  facet normal -7.071068e-001 7.071068e-001 -3.085083e-016
    outer loop
      vertex   -7.660444e-001 6.427876e-001 -5.000000e-001
      vertex   -6.427876e-001 7.660444e-001 -7.000000e-001
      vertex   -7.660444e-001 6.427876e-001 -7.000000e-001
    endloop
  endfacet
  facet normal -8.191520e-001 5.735764e-001 8.021215e-016
    outer loop
      vertex   -8.660254e-001 5.000000e-001 -5.000000e-001
      vertex   -7.660444e-001 6.427876e-001 -7.000000e-001
      vertex   -8.660254e-001 5.000000e-001 -7.000000e-001
    endloop
  endfacet
  facet normal -9.063078e-001 4.226183e-001 -6.787182e-016
    outer loop
      vertex   -9.396926e-001 3.420201e-001 -5.000000e-001
      vertex   -8.660254e-001 5.000000e-001 -7.000000e-001
      vertex   -9.396926e-001 3.420201e-001 -7.000000e-001
    endloop
  endfacet
  facet normal -9.659258e-001 2.588190e-001 6.170165e-017
    outer loop
      vertex   -9.848078e-001 1.736482e-001 -5.000000e-001
      vertex   -9.396926e-001 3.420201e-001 -7.000000e-001
      vertex   -9.848078e-001 1.736482e-001 -7.000000e-001
    endloop
  endfacet
  facet normal -9.961947e-001 8.715574e-002 0.000000e+000
    outer loop
      vertex   -1.000000e+000 1.639109e-017 -5.000000e-001
      vertex   -9.848078e-001 1.736482e-001 -7.000000e-001
      vertex   -1.000000e+000 1.639109e-017 -7.000000e-001
    endloop
  endfacet
  facet normal -9.961947e-001 -8.715574e-002 0.000000e+000
    outer loop
      vertex   -9.848078e-001 -1.736482e-001 -5.000000e-001
      vertex   -1.000000e+000 1.639109e-017 -5.000000e-001
      vertex   -1.000000e+000 1.639109e-017 -7.000000e-001
    endloop
  endfacet
  facet normal -9.961947e-001 8.715574e-002 1.904770e-017
    outer loop
      vertex   -1.000000e+000 1.639109e-017 -5.000000e-001
      vertex   -9.848078e-001 1.736482e-001 -5.000000e-001
      vertex   -9.848078e-001 1.736482e-001 -7.000000e-001
    endloop
  endfacet
  facet normal -9.659258e-001 2.588190e-001 -1.515054e-015
    outer loop
      vertex   -9.848078e-001 1.736482e-001 -5.000000e-001
      vertex   -9.396926e-001 3.420201e-001 -5.000000e-001
      vertex   -9.396926e-001 3.420201e-001 -7.000000e-001
    endloop
  endfacet
  facet normal -9.063078e-001 4.226183e-001 3.160613e-016
    outer loop
      vertex   -9.396926e-001 3.420201e-001 -5.000000e-001
      vertex   -8.660254e-001 5.000000e-001 -5.000000e-001
      vertex   -8.660254e-001 5.000000e-001 -7.000000e-001
    endloop
  endfacet
  facet normal -8.191520e-001 5.735764e-001 -5.727279e-016
    outer loop
      vertex   -8.660254e-001 5.000000e-001 -5.000000e-001
      vertex   -7.660444e-001 6.427876e-001 -5.000000e-001
      vertex   -7.660444e-001 6.427876e-001 -7.000000e-001
    endloop
  endfacet
  facet normal -7.071068e-001 7.071068e-001 6.181466e-016
    outer loop
      vertex   -7.660444e-001 6.427876e-001 -5.000000e-001
      vertex   -6.427876e-001 7.660444e-001 -5.000000e-001
      vertex   -6.427876e-001 7.660444e-001 -7.000000e-001
    endloop
  endfacet
  facet normal -5.735764e-001 8.191520e-001 0.000000e+000
    outer loop
      vertex   -6.427876e-001 7.660444e-001 -5.000000e-001
      vertex   -5.000000e-001 8.660254e-001 -5.000000e-001
      vertex   -5.000000e-001 8.660254e-001 -7.000000e-001
    endloop
  endfacet
  facet normal -4.226183e-001 9.063078e-001 -5.931482e-016
    outer loop
      vertex   -5.000000e-001 8.660254e-001 -5.000000e-001
      vertex   -3.420201e-001 9.396926e-001 -5.000000e-001
      vertex   -3.420201e-001 9.396926e-001 -7.000000e-001
    endloop
  endfacet
  facet normal -2.588190e-001 9.659258e-001 2.504784e-016
    outer loop
      vertex   -3.420201e-001 9.396926e-001 -5.000000e-001
      vertex   -1.736482e-001 9.848078e-001 -5.000000e-001
      vertex   -1.736482e-001 9.848078e-001 -7.000000e-001
    endloop
  endfacet
  facet normal -8.715574e-002 9.961947e-001 -1.067315e-016
    outer loop
      vertex   -1.736482e-001 9.848078e-001 -5.000000e-001
      vertex   -7.182658e-017 1.000000e+000 -5.000000e-001
      vertex   1.730947e-016 1.000000e+000 -7.000000e-001
    endloop
  endfacet
  facet normal 8.715574e-002 9.961947e-001 0.000000e+000
    outer loop
      vertex   -7.182658e-017 1.000000e+000 -5.000000e-001
      vertex   1.736482e-001 9.848078e-001 -5.000000e-001
      vertex   1.736482e-001 9.848078e-001 -7.000000e-001
    endloop
  endfacet
  facet normal 2.588190e-001 9.659258e-001 4.061137e-018
    outer loop
      vertex   1.736482e-001 9.848078e-001 -5.000000e-001
      vertex   3.420201e-001 9.396926e-001 -5.000000e-001
      vertex   3.420201e-001 9.396926e-001 -7.000000e-001
    endloop
  endfacet
  facet normal 4.226183e-001 9.063078e-001 6.855105e-016
    outer loop
      vertex   3.420201e-001 9.396926e-001 -5.000000e-001
      vertex   5.000000e-001 8.660254e-001 -5.000000e-001
      vertex   5.000000e-001 8.660254e-001 -7.000000e-001
    endloop
  endfacet
  facet normal 5.735764e-001 8.191520e-001 5.014156e-016
    outer loop
      vertex   5.000000e-001 8.660254e-001 -5.000000e-001
      vertex   6.427876e-001 7.660444e-001 -5.000000e-001
      vertex   6.427876e-001 7.660444e-001 -7.000000e-001
    endloop
  endfacet
  facet normal 7.071068e-001 7.071068e-001 -6.181466e-016
    outer loop
      vertex   6.427876e-001 7.660444e-001 -5.000000e-001
      vertex   7.660444e-001 6.427876e-001 -5.000000e-001
      vertex   7.660444e-001 6.427876e-001 -7.000000e-001
    endloop
  endfacet
  facet normal 8.191520e-001 5.735764e-001 -3.602771e-017
    outer loop
      vertex   7.660444e-001 6.427876e-001 -5.000000e-001
      vertex   8.660254e-001 5.000000e-001 -5.000000e-001
      vertex   8.660254e-001 5.000000e-001 -7.000000e-001
    endloop
  endfacet
  facet normal 9.063078e-001 4.226183e-001 3.304749e-016
    outer loop
      vertex   8.660254e-001 5.000000e-001 -5.000000e-001
      vertex   9.396926e-001 3.420201e-001 -5.000000e-001
      vertex   9.396926e-001 3.420201e-001 -7.000000e-001
    endloop
  endfacet
  facet normal 9.659258e-001 2.588190e-001 -4.061137e-018
    outer loop
      vertex   9.396926e-001 3.420201e-001 -5.000000e-001
      vertex   9.848078e-001 1.736482e-001 -5.000000e-001
      vertex   9.848078e-001 1.736482e-001 -7.000000e-001
    endloop
  endfacet
  facet normal 9.961947e-001 8.715574e-002 -1.067315e-016
    outer loop
      vertex   9.848078e-001 1.736482e-001 -5.000000e-001
      vertex   1.000000e+000 1.388517e-016 -5.000000e-001
      vertex   1.000000e+000 -1.060695e-016 -7.000000e-001
    endloop
  endfacet
  facet normal 9.961947e-001 -8.715574e-002 -5.851493e-016
    outer loop
      vertex   1.000000e+000 1.388517e-016 -5.000000e-001
      vertex   9.848078e-001 -1.736482e-001 -5.000000e-001
      vertex   9.848078e-001 -1.736482e-001 -7.000000e-001
    endloop
  endfacet
  facet normal 9.659258e-001 -2.588190e-001 -5.615823e-016
    outer loop
      vertex   9.848078e-001 -1.736482e-001 -5.000000e-001
      vertex   9.396926e-001 -3.420201e-001 -5.000000e-001
      vertex   9.396926e-001 -3.420201e-001 -7.000000e-001
    endloop
  endfacet
  facet normal 9.063078e-001 -4.226183e-001 -2.381126e-016
    outer loop
      vertex   9.396926e-001 -3.420201e-001 -5.000000e-001
      vertex   8.660254e-001 -5.000000e-001 -5.000000e-001
      vertex   8.660254e-001 -5.000000e-001 -7.000000e-001
    endloop
  endfacet
  facet normal 8.191520e-001 -5.735764e-001 5.014156e-016
    outer loop
      vertex   8.660254e-001 -5.000000e-001 -5.000000e-001
      vertex   7.660444e-001 -6.427876e-001 -5.000000e-001
      vertex   7.660444e-001 -6.427876e-001 -7.000000e-001
    endloop
  endfacet
  facet normal 7.071068e-001 -7.071068e-001 -6.181466e-016
    outer loop
      vertex   7.660444e-001 -6.427876e-001 -5.000000e-001
      vertex   6.427876e-001 -7.660444e-001 -5.000000e-001
      vertex   6.427876e-001 -7.660444e-001 -7.000000e-001
    endloop
  endfacet
  facet normal 5.735764e-001 -8.191520e-001 -1.289567e-015
    outer loop
      vertex   6.427876e-001 -7.660444e-001 -5.000000e-001
      vertex   5.000000e-001 -8.660254e-001 -5.000000e-001
      vertex   5.000000e-001 -8.660254e-001 -7.000000e-001
    endloop
  endfacet
  facet normal 4.226183e-001 -9.063078e-001 -5.931482e-016
    outer loop
      vertex   5.000000e-001 -8.660254e-001 -5.000000e-001
      vertex   3.420201e-001 -9.396926e-001 -5.000000e-001
      vertex   3.420201e-001 -9.396926e-001 -7.000000e-001
    endloop
  endfacet
  facet normal 2.588190e-001 -9.659258e-001 0.000000e+000
    outer loop
      vertex   3.420201e-001 -9.396926e-001 -5.000000e-001
      vertex   1.736482e-001 -9.848078e-001 -5.000000e-001
      vertex   1.736482e-001 -9.848078e-001 -7.000000e-001
    endloop
  endfacet
  facet normal 8.715574e-002 -9.961947e-001 -1.067315e-016
    outer loop
      vertex   1.736482e-001 -9.848078e-001 -5.000000e-001
      vertex   1.730947e-016 -1.000000e+000 -5.000000e-001
      vertex   -7.182658e-017 -1.000000e+000 -7.000000e-001
    endloop
  endfacet
  facet normal -8.715574e-002 -9.961947e-001 -6.708640e-016
    outer loop
      vertex   1.730947e-016 -1.000000e+000 -5.000000e-001
      vertex   -1.736482e-001 -9.848078e-001 -5.000000e-001
      vertex   -1.736482e-001 -9.848078e-001 -7.000000e-001
    endloop
  endfacet
  facet normal -2.588190e-001 -9.659258e-001 4.061137e-018
    outer loop
      vertex   -1.736482e-001 -9.848078e-001 -5.000000e-001
      vertex   -3.420201e-001 -9.396926e-001 -5.000000e-001
      vertex   -3.420201e-001 -9.396926e-001 -7.000000e-001
    endloop
  endfacet
  facet normal -4.226183e-001 -9.063078e-001 0.000000e+000
    outer loop
      vertex   -3.420201e-001 -9.396926e-001 -5.000000e-001
      vertex   -5.000000e-001 -8.660254e-001 -5.000000e-001
      vertex   -5.000000e-001 -8.660254e-001 -7.000000e-001
    endloop
  endfacet
  facet normal -5.735764e-001 -8.191520e-001 -7.160956e-016
    outer loop
      vertex   -5.000000e-001 -8.660254e-001 -5.000000e-001
      vertex   -6.427876e-001 -7.660444e-001 -5.000000e-001
      vertex   -6.427876e-001 -7.660444e-001 -7.000000e-001
    endloop
  endfacet
  facet normal -7.071068e-001 -7.071068e-001 3.090733e-016
    outer loop
      vertex   -6.427876e-001 -7.660444e-001 -5.000000e-001
      vertex   -7.660444e-001 -6.427876e-001 -5.000000e-001
      vertex   -7.660444e-001 -6.427876e-001 -7.000000e-001
    endloop
  endfacet
  facet normal -8.191520e-001 -5.735764e-001 -7.881511e-016
    outer loop
      vertex   -7.660444e-001 -6.427876e-001 -5.000000e-001
      vertex   -8.660254e-001 -5.000000e-001 -5.000000e-001
      vertex   -8.660254e-001 -5.000000e-001 -7.000000e-001
    endloop
  endfacet
  facet normal -1.075928e-016 -9.413149e-018 -1.000000e+000
    outer loop
      vertex   6.268990e-001 -2.170602e-002 -7.000000e-001
      vertex   -9.848078e-001 -1.736482e-001 -7.000000e-001
      vertex   6.250000e-001 9.292899e-017 -7.000000e-001
    endloop
  endfacet
  facet normal -1.058074e-016 -2.835102e-017 -1.000000e+000
    outer loop
      vertex   6.268990e-001 -2.170602e-002 -7.000000e-001
      vertex   6.325384e-001 -4.275252e-002 -7.000000e-001
      vertex   -9.848078e-001 -1.736482e-001 -7.000000e-001
    endloop
  endfacet
  facet normal -1.041706e-016 -4.857555e-017 -1.000000e+000
    outer loop
      vertex   -9.848078e-001 -1.736482e-001 -7.000000e-001
      vertex   6.325384e-001 -4.275252e-002 -7.000000e-001
      vertex   6.417468e-001 -6.250000e-002 -7.000000e-001
    endloop
  endfacet
  facet normal -1.021382e-016 -4.762781e-017 -1.000000e+000
    outer loop
      vertex   -9.396926e-001 -3.420201e-001 -7.000000e-001
      vertex   6.417468e-001 -6.250000e-002 -7.000000e-001
      vertex   -8.660254e-001 -5.000000e-001 -7.000000e-001
    endloop
  endfacet
  facet normal -1.055572e-016 -2.828397e-017 -1.000000e+000
    outer loop
      vertex   -9.396926e-001 -3.420201e-001 -7.000000e-001
      vertex   -9.848078e-001 -1.736482e-001 -7.000000e-001
      vertex   6.417468e-001 -6.250000e-002 -7.000000e-001
    endloop
  endfacet
  facet normal 1.773672e-017 -2.027316e-016 -1.000000e+000
    outer loop
      vertex   1.736482e-001 -9.848078e-001 -7.000000e-001
      vertex   -7.182658e-017 -1.000000e+000 -7.000000e-001
      vertex   6.542444e-001 -8.034845e-002 -7.000000e-001
    endloop
  endfacet
  facet normal 1.142252e-016 -2.449568e-016 -1.000000e+000
    outer loop
      vertex   3.420201e-001 -9.396926e-001 -7.000000e-001
      vertex   6.542444e-001 -8.034845e-002 -7.000000e-001
      vertex   5.000000e-001 -8.660254e-001 -7.000000e-001
    endloop
  endfacet
  facet normal 6.039544e-017 -2.253989e-016 -1.000000e+000
    outer loop
      vertex   3.420201e-001 -9.396926e-001 -7.000000e-001
      vertex   1.736482e-001 -9.848078e-001 -7.000000e-001
      vertex   6.542444e-001 -8.034845e-002 -7.000000e-001
    endloop
  endfacet
  facet normal -1.860137e-016 -1.860137e-016 -1.000000e+000
    outer loop
      vertex   6.542444e-001 -8.034845e-002 -7.000000e-001
      vertex   6.696515e-001 -9.575556e-002 -7.000000e-001
      vertex   5.000000e-001 -8.660254e-001 -7.000000e-001
    endloop
  endfacet
  facet normal 1.879157e-016 -2.683715e-016 -1.000000e+000
    outer loop
      vertex   5.000000e-001 -8.660254e-001 -7.000000e-001
      vertex   6.696515e-001 -9.575556e-002 -7.000000e-001
      vertex   6.427876e-001 -7.660444e-001 -7.000000e-001
    endloop
  endfacet
  facet normal -1.776567e-016 -2.537200e-016 -1.000000e+000
    outer loop
      vertex   6.427876e-001 -7.660444e-001 -7.000000e-001
      vertex   6.696515e-001 -9.575556e-002 -7.000000e-001
      vertex   6.875000e-001 -1.082532e-001 -7.000000e-001
    endloop
  endfacet
  facet normal -1.637418e-016 -3.511453e-016 -1.000000e+000
    outer loop
      vertex   7.660444e-001 -6.427876e-001 -7.000000e-001
      vertex   6.875000e-001 -1.082532e-001 -7.000000e-001
      vertex   7.072475e-001 -1.174616e-001 -7.000000e-001
    endloop
  endfacet
  facet normal -1.377900e-016 -5.142393e-016 -1.000000e+000
    outer loop
      vertex   8.660254e-001 -5.000000e-001 -7.000000e-001
      vertex   7.072475e-001 -1.174616e-001 -7.000000e-001
      vertex   7.282940e-001 -1.231010e-001 -7.000000e-001
    endloop
  endfacet
  facet normal -4.192519e-017 -4.792071e-016 -1.000000e+000
    outer loop
      vertex   7.500000e-001 -1.250000e-001 -7.000000e-001
      vertex   8.660254e-001 -5.000000e-001 -7.000000e-001
      vertex   7.282940e-001 -1.231010e-001 -7.000000e-001
    endloop
  endfacet
  facet normal 6.010444e-016 -2.802716e-016 -1.000000e+000
    outer loop
      vertex   7.500000e-001 -1.250000e-001 -7.000000e-001
      vertex   9.396926e-001 -3.420201e-001 -7.000000e-001
      vertex   8.660254e-001 -5.000000e-001 -7.000000e-001
    endloop
  endfacet
  facet normal 6.547651e-017 -7.483999e-016 -1.000000e+000
    outer loop
      vertex   7.500000e-001 -1.250000e-001 -7.000000e-001
      vertex   7.717060e-001 -1.231010e-001 -7.000000e-001
      vertex   9.396926e-001 -3.420201e-001 -7.000000e-001
    endloop
  endfacet
  facet normal 1.775000e-016 -6.624392e-016 -1.000000e+000
    outer loop
      vertex   9.396926e-001 -3.420201e-001 -7.000000e-001
      vertex   7.717060e-001 -1.231010e-001 -7.000000e-001
      vertex   7.927525e-001 -1.174616e-001 -7.000000e-001
    endloop
  endfacet
  facet normal 5.593969e-016 -1.199631e-015 -1.000000e+000
    outer loop
      vertex   9.848078e-001 -1.736482e-001 -7.000000e-001
      vertex   7.927525e-001 -1.174616e-001 -7.000000e-001
      vertex   8.125000e-001 -1.082532e-001 -7.000000e-001
    endloop
  endfacet
  facet normal 6.580252e-016 -9.397573e-016 -1.000000e+000
    outer loop
      vertex   8.303485e-001 -9.575556e-002 -7.000000e-001
      vertex   9.848078e-001 -1.736482e-001 -7.000000e-001
      vertex   8.125000e-001 -1.082532e-001 -7.000000e-001
    endloop
  endfacet
  facet normal 7.524718e-016 -7.524718e-016 -1.000000e+000
    outer loop
      vertex   8.303485e-001 -9.575556e-002 -7.000000e-001
      vertex   8.457556e-001 -8.034845e-002 -7.000000e-001
      vertex   9.848078e-001 -1.736482e-001 -7.000000e-001
    endloop
  endfacet
  facet normal 8.554511e-016 -5.989933e-016 -1.000000e+000
    outer loop
      vertex   9.848078e-001 -1.736482e-001 -7.000000e-001
      vertex   8.457556e-001 -8.034845e-002 -7.000000e-001
      vertex   8.582532e-001 -6.250000e-002 -7.000000e-001
    endloop
  endfacet
  facet normal 9.801240e-016 -4.570393e-016 -1.000000e+000
    outer loop
      vertex   8.674616e-001 -4.275252e-002 -7.000000e-001
      vertex   9.848078e-001 -1.736482e-001 -7.000000e-001
      vertex   8.582532e-001 -6.250000e-002 -7.000000e-001
    endloop
  endfacet
  facet normal 1.357460e-015 -1.187624e-016 -1.000000e+000
    outer loop
      vertex   8.674616e-001 -4.275252e-002 -7.000000e-001
      vertex   1.000000e+000 -1.060695e-016 -7.000000e-001
      vertex   9.848078e-001 -1.736482e-001 -7.000000e-001
    endloop
  endfacet
  facet normal 1.443955e-015 -3.869065e-016 -1.000000e+000
    outer loop
      vertex   8.674616e-001 -4.275252e-002 -7.000000e-001
      vertex   8.731010e-001 -2.170602e-002 -7.000000e-001
      vertex   1.000000e+000 -1.060695e-016 -7.000000e-001
    endloop
  endfacet
  facet normal 1.398706e-015 -1.223709e-016 -1.000000e+000
    outer loop
      vertex   1.000000e+000 -1.060695e-016 -7.000000e-001
      vertex   8.731010e-001 -2.170602e-002 -7.000000e-001
      vertex   8.750000e-001 1.082366e-016 -7.000000e-001
    endloop
  endfacet
  facet normal 1.398706e-015 1.223709e-016 -1.000000e+000
    outer loop
      vertex   8.731010e-001 2.170602e-002 -7.000000e-001
      vertex   1.000000e+000 -1.060695e-016 -7.000000e-001
      vertex   8.750000e-001 1.082366e-016 -7.000000e-001
    endloop
  endfacet
  facet normal 1.443955e-015 3.869065e-016 -1.000000e+000
    outer loop
      vertex   8.731010e-001 2.170602e-002 -7.000000e-001
      vertex   8.674616e-001 4.275252e-002 -7.000000e-001
      vertex   1.000000e+000 -1.060695e-016 -7.000000e-001
    endloop
  endfacet
  facet normal 1.357460e-015 1.187624e-016 -1.000000e+000
    outer loop
      vertex   1.000000e+000 -1.060695e-016 -7.000000e-001
      vertex   8.674616e-001 4.275252e-002 -7.000000e-001
      vertex   9.848078e-001 1.736482e-001 -7.000000e-001
    endloop
  endfacet
  facet normal 9.801240e-016 4.570393e-016 -1.000000e+000
    outer loop
      vertex   9.848078e-001 1.736482e-001 -7.000000e-001
      vertex   8.674616e-001 4.275252e-002 -7.000000e-001
      vertex   8.582532e-001 6.250000e-002 -7.000000e-001
    endloop
  endfacet
  facet normal 8.554511e-016 5.989933e-016 -1.000000e+000
    outer loop
      vertex   8.457556e-001 8.034845e-002 -7.000000e-001
      vertex   9.848078e-001 1.736482e-001 -7.000000e-001
      vertex   8.582532e-001 6.250000e-002 -7.000000e-001
    endloop
  endfacet
  facet normal 7.524718e-016 7.524718e-016 -1.000000e+000
    outer loop
      vertex   8.457556e-001 8.034845e-002 -7.000000e-001
      vertex   8.303485e-001 9.575556e-002 -7.000000e-001
      vertex   9.848078e-001 1.736482e-001 -7.000000e-001
    endloop
  endfacet
  facet normal 6.580252e-016 9.397573e-016 -1.000000e+000
    outer loop
      vertex   9.848078e-001 1.736482e-001 -7.000000e-001
      vertex   8.303485e-001 9.575556e-002 -7.000000e-001
      vertex   8.125000e-001 1.082532e-001 -7.000000e-001
    endloop
  endfacet
  facet normal 5.593969e-016 1.199631e-015 -1.000000e+000
    outer loop
      vertex   7.927525e-001 1.174616e-001 -7.000000e-001
      vertex   9.848078e-001 1.736482e-001 -7.000000e-001
      vertex   8.125000e-001 1.082532e-001 -7.000000e-001
    endloop
  endfacet
  facet normal 8.441791e-016 2.261971e-016 -1.000000e+000
    outer loop
      vertex   7.927525e-001 1.174616e-001 -7.000000e-001
      vertex   9.396926e-001 3.420201e-001 -7.000000e-001
      vertex   9.848078e-001 1.736482e-001 -7.000000e-001
    endloop
  endfacet
  facet normal 1.775000e-016 6.624392e-016 -1.000000e+000
    outer loop
      vertex   7.927525e-001 1.174616e-001 -7.000000e-001
      vertex   7.717060e-001 1.231010e-001 -7.000000e-001
      vertex   9.396926e-001 3.420201e-001 -7.000000e-001
    endloop
  endfacet
  facet normal 6.547651e-017 7.483999e-016 -1.000000e+000
    outer loop
      vertex   9.396926e-001 3.420201e-001 -7.000000e-001
      vertex   7.717060e-001 1.231010e-001 -7.000000e-001
      vertex   7.500000e-001 1.250000e-001 -7.000000e-001
    endloop
  endfacet
  facet normal -4.192519e-017 4.792071e-016 -1.000000e+000
    outer loop
      vertex   8.660254e-001 5.000000e-001 -7.000000e-001
      vertex   7.500000e-001 1.250000e-001 -7.000000e-001
      vertex   7.282940e-001 1.231010e-001 -7.000000e-001
    endloop
  endfacet
  facet normal -1.377900e-016 5.142393e-016 -1.000000e+000
    outer loop
      vertex   7.072475e-001 1.174616e-001 -7.000000e-001
      vertex   8.660254e-001 5.000000e-001 -7.000000e-001
      vertex   7.282940e-001 1.231010e-001 -7.000000e-001
    endloop
  endfacet
  facet normal 4.098084e-016 2.869509e-016 -1.000000e+000
    outer loop
      vertex   7.072475e-001 1.174616e-001 -7.000000e-001
      vertex   7.660444e-001 6.427876e-001 -7.000000e-001
      vertex   8.660254e-001 5.000000e-001 -7.000000e-001
    endloop
  endfacet
  facet normal -1.637418e-016 3.511453e-016 -1.000000e+000
    outer loop
      vertex   7.072475e-001 1.174616e-001 -7.000000e-001
      vertex   6.875000e-001 1.082532e-001 -7.000000e-001
      vertex   7.660444e-001 6.427876e-001 -7.000000e-001
    endloop
  endfacet
  facet normal 2.851807e-016 2.851807e-016 -1.000000e+000
    outer loop
      vertex   7.660444e-001 6.427876e-001 -7.000000e-001
      vertex   6.875000e-001 1.082532e-001 -7.000000e-001
      vertex   6.427876e-001 7.660444e-001 -7.000000e-001
    endloop
  endfacet
  facet normal -1.776567e-016 2.537200e-016 -1.000000e+000
    outer loop
      vertex   6.427876e-001 7.660444e-001 -7.000000e-001
      vertex   6.875000e-001 1.082532e-001 -7.000000e-001
      vertex   6.696515e-001 9.575556e-002 -7.000000e-001
    endloop
  endfacet
  facet normal -1.860137e-016 1.860137e-016 -1.000000e+000
    outer loop
      vertex   5.000000e-001 8.660254e-001 -7.000000e-001
      vertex   6.696515e-001 9.575556e-002 -7.000000e-001
      vertex   6.542444e-001 8.034845e-002 -7.000000e-001
    endloop
  endfacet
  facet normal 6.039544e-017 2.253989e-016 -1.000000e+000
    outer loop
      vertex   3.420201e-001 9.396926e-001 -7.000000e-001
      vertex   6.542444e-001 8.034845e-002 -7.000000e-001
      vertex   1.736482e-001 9.848078e-001 -7.000000e-001
    endloop
  endfacet
  facet normal 1.142252e-016 2.449568e-016 -1.000000e+000
    outer loop
      vertex   3.420201e-001 9.396926e-001 -7.000000e-001
      vertex   5.000000e-001 8.660254e-001 -7.000000e-001
      vertex   6.542444e-001 8.034845e-002 -7.000000e-001
    endloop
  endfacet
  facet normal -6.102744e-017 1.308738e-016 -1.000000e+000
    outer loop
      vertex   -5.000000e-001 8.660254e-001 -7.000000e-001
      vertex   -3.420201e-001 9.396926e-001 -7.000000e-001
      vertex   6.417468e-001 6.250000e-002 -7.000000e-001
    endloop
  endfacet
  facet normal -8.794333e-017 8.794333e-017 -1.000000e+000
    outer loop
      vertex   -6.427876e-001 7.660444e-001 -7.000000e-001
      vertex   6.417468e-001 6.250000e-002 -7.000000e-001
      vertex   -7.660444e-001 6.427876e-001 -7.000000e-001
    endloop
  endfacet
  facet normal -7.637193e-017 1.090704e-016 -1.000000e+000
    outer loop
      vertex   -6.427876e-001 7.660444e-001 -7.000000e-001
      vertex   -5.000000e-001 8.660254e-001 -7.000000e-001
      vertex   6.417468e-001 6.250000e-002 -7.000000e-001
    endloop
  endfacet
  facet normal -1.078528e-016 2.889906e-017 -1.000000e+000
    outer loop
      vertex   6.268990e-001 2.170602e-002 -7.000000e-001
      vertex   -1.000000e+000 1.639109e-017 -7.000000e-001
      vertex   6.325384e-001 4.275252e-002 -7.000000e-001
    endloop
  endfacet
  facet normal -1.075928e-016 9.413149e-018 -1.000000e+000
    outer loop
      vertex   6.268990e-001 2.170602e-002 -7.000000e-001
      vertex   6.250000e-001 9.292899e-017 -7.000000e-001
      vertex   -1.000000e+000 1.639109e-017 -7.000000e-001
    endloop
  endfacet
  facet normal -1.075928e-016 -9.413149e-018 -1.000000e+000
    outer loop
      vertex   -1.000000e+000 1.639109e-017 -7.000000e-001
      vertex   6.250000e-001 9.292899e-017 -7.000000e-001
      vertex   -9.848078e-001 -1.736482e-001 -7.000000e-001
    endloop
  endfacet
  facet normal -1.073419e-016 9.391199e-018 -1.000000e+000
    outer loop
      vertex   -1.000000e+000 1.639109e-017 -7.000000e-001
      vertex   -9.848078e-001 1.736482e-001 -7.000000e-001
      vertex   6.325384e-001 4.275252e-002 -7.000000e-001
    endloop
  endfacet
  facet normal -1.041706e-016 4.857555e-017 -1.000000e+000
    outer loop
      vertex   6.325384e-001 4.275252e-002 -7.000000e-001
      vertex   -9.848078e-001 1.736482e-001 -7.000000e-001
      vertex   6.417468e-001 6.250000e-002 -7.000000e-001
    endloop
  endfacet
  facet normal -1.055572e-016 2.828397e-017 -1.000000e+000
    outer loop
      vertex   6.417468e-001 6.250000e-002 -7.000000e-001
      vertex   -9.848078e-001 1.736482e-001 -7.000000e-001
      vertex   -9.396926e-001 3.420201e-001 -7.000000e-001
    endloop
  endfacet
  facet normal -1.021382e-016 4.762781e-017 -1.000000e+000
    outer loop
      vertex   -8.660254e-001 5.000000e-001 -7.000000e-001
      vertex   6.417468e-001 6.250000e-002 -7.000000e-001
      vertex   -9.396926e-001 3.420201e-001 -7.000000e-001
    endloop
  endfacet
  facet normal -9.637672e-017 6.748371e-017 -1.000000e+000
    outer loop
      vertex   -8.660254e-001 5.000000e-001 -7.000000e-001
      vertex   -7.660444e-001 6.427876e-001 -7.000000e-001
      vertex   6.417468e-001 6.250000e-002 -7.000000e-001
    endloop
  endfacet
  facet normal -4.106600e-017 1.532604e-016 -1.000000e+000
    outer loop
      vertex   -3.420201e-001 9.396926e-001 -7.000000e-001
      vertex   -1.736482e-001 9.848078e-001 -7.000000e-001
      vertex   6.417468e-001 6.250000e-002 -7.000000e-001
    endloop
  endfacet
  facet normal -1.196537e-016 8.378245e-017 -1.000000e+000
    outer loop
      vertex   6.417468e-001 6.250000e-002 -7.000000e-001
      vertex   -1.736482e-001 9.848078e-001 -7.000000e-001
      vertex   6.542444e-001 8.034845e-002 -7.000000e-001
    endloop
  endfacet
  facet normal -1.565822e-017 1.789743e-016 -1.000000e+000
    outer loop
      vertex   6.542444e-001 8.034845e-002 -7.000000e-001
      vertex   -1.736482e-001 9.848078e-001 -7.000000e-001
      vertex   1.730947e-016 1.000000e+000 -7.000000e-001
    endloop
  endfacet
  facet normal 1.773672e-017 2.027316e-016 -1.000000e+000
    outer loop
      vertex   1.736482e-001 9.848078e-001 -7.000000e-001
      vertex   6.542444e-001 8.034845e-002 -7.000000e-001
      vertex   1.730947e-016 1.000000e+000 -7.000000e-001
    endloop
  endfacet
  facet normal 1.879157e-016 2.683715e-016 -1.000000e+000
    outer loop
      vertex   5.000000e-001 8.660254e-001 -7.000000e-001
      vertex   6.427876e-001 7.660444e-001 -7.000000e-001
      vertex   6.696515e-001 9.575556e-002 -7.000000e-001
    endloop
  endfacet
  facet normal 6.010444e-016 2.802716e-016 -1.000000e+000
    outer loop
      vertex   8.660254e-001 5.000000e-001 -7.000000e-001
      vertex   9.396926e-001 3.420201e-001 -7.000000e-001
      vertex   7.500000e-001 1.250000e-001 -7.000000e-001
    endloop
  endfacet
  facet normal 8.441791e-016 -2.261971e-016 -1.000000e+000
    outer loop
      vertex   9.848078e-001 -1.736482e-001 -7.000000e-001
      vertex   9.396926e-001 -3.420201e-001 -7.000000e-001
      vertex   7.927525e-001 -1.174616e-001 -7.000000e-001
    endloop
  endfacet
  facet normal 4.098084e-016 -2.869509e-016 -1.000000e+000
    outer loop
      vertex   8.660254e-001 -5.000000e-001 -7.000000e-001
      vertex   7.660444e-001 -6.427876e-001 -7.000000e-001
      vertex   7.072475e-001 -1.174616e-001 -7.000000e-001
    endloop
  endfacet
  facet normal 2.851807e-016 -2.851807e-016 -1.000000e+000
    outer loop
      vertex   7.660444e-001 -6.427876e-001 -7.000000e-001
      vertex   6.427876e-001 -7.660444e-001 -7.000000e-001
      vertex   6.875000e-001 -1.082532e-001 -7.000000e-001
    endloop
  endfacet
  facet normal -1.565822e-017 -1.789743e-016 -1.000000e+000
    outer loop
      vertex   -7.182658e-017 -1.000000e+000 -7.000000e-001
      vertex   -1.736482e-001 -9.848078e-001 -7.000000e-001
      vertex   6.542444e-001 -8.034845e-002 -7.000000e-001
    endloop
  endfacet
  facet normal -1.196537e-016 -8.378245e-017 -1.000000e+000
    outer loop
      vertex   6.542444e-001 -8.034845e-002 -7.000000e-001
      vertex   -1.736482e-001 -9.848078e-001 -7.000000e-001
      vertex   6.417468e-001 -6.250000e-002 -7.000000e-001
    endloop
  endfacet
  facet normal -4.106600e-017 -1.532604e-016 -1.000000e+000
    outer loop
      vertex   6.417468e-001 -6.250000e-002 -7.000000e-001
      vertex   -1.736482e-001 -9.848078e-001 -7.000000e-001
      vertex   -3.420201e-001 -9.396926e-001 -7.000000e-001
    endloop
  endfacet
  facet normal -6.102744e-017 -1.308738e-016 -1.000000e+000
    outer loop
      vertex   -5.000000e-001 -8.660254e-001 -7.000000e-001
      vertex   6.417468e-001 -6.250000e-002 -7.000000e-001
      vertex   -3.420201e-001 -9.396926e-001 -7.000000e-001
    endloop
  endfacet
  facet normal -7.637193e-017 -1.090704e-016 -1.000000e+000
    outer loop
      vertex   -5.000000e-001 -8.660254e-001 -7.000000e-001
      vertex   -6.427876e-001 -7.660444e-001 -7.000000e-001
      vertex   6.417468e-001 -6.250000e-002 -7.000000e-001
    endloop
  endfacet
  facet normal -8.794333e-017 -8.794333e-017 -1.000000e+000
    outer loop
      vertex   6.417468e-001 -6.250000e-002 -7.000000e-001
      vertex   -6.427876e-001 -7.660444e-001 -7.000000e-001
      vertex   -7.660444e-001 -6.427876e-001 -7.000000e-001
    endloop
  endfacet
  facet normal -9.637672e-017 -6.748371e-017 -1.000000e+000
    outer loop
      vertex   -8.660254e-001 -5.000000e-001 -7.000000e-001
      vertex   6.417468e-001 -6.250000e-002 -7.000000e-001
      vertex   -7.660444e-001 -6.427876e-001 -7.000000e-001
    endloop
  endfacet
  facet normal 0.000000e+000 0.000000e+000 1.000000e+000
    outer loop
      vertex   1.000000e-002 8.000000e-001 0.000000e+000
      vertex   -1.000000e-002 8.000000e-001 0.000000e+000
      vertex   1.000000e-002 -8.000000e-001 0.000000e+000
    endloop
  endfacet
  facet normal 0.000000e+000 0.000000e+000 1.000000e+000
    outer loop
      vertex   1.000000e-002 -8.000000e-001 0.000000e+000
      vertex   -1.000000e-002 8.000000e-001 0.000000e+000
      vertex   -1.000000e-002 -8.000000e-001 0.000000e+000
    endloop
  endfacet
endsolid
