solid ascii
  facet normal -1.353110e-016 -1.000000e+000 2.185478e-016
    outer loop
      vertex   -9.539392e-001 -3.000000e-001 6.000000e-001
      vertex   -1.600000e+000 -3.000000e-001 6.000000e-001
      vertex   -9.539392e-001 -3.000000e-001 4.000000e-001
    endloop
  endfacet
  facet normal -2.029665e-016 -1.000000e+000 0.000000e+000
    outer loop
      vertex   -9.539392e-001 -3.000000e-001 4.000000e-001
      vertex   -1.600000e+000 -3.000000e-001 6.000000e-001
      vertex   -1.600000e+000 -3.000000e-001 4.000000e-001
    endloop
  endfacet
  facet normal -6.765550e-017 -1.000000e+000 2.185478e-016
    outer loop
      vertex   9.539392e-001 -3.000000e-001 4.000000e-001
      vertex   1.600000e+000 -3.000000e-001 4.000000e-001
      vertex   9.539392e-001 -3.000000e-001 6.000000e-001
    endloop
  endfacet
  facet normal -1.353110e-016 -1.000000e+000 0.000000e+000
    outer loop
      vertex   9.539392e-001 -3.000000e-001 6.000000e-001
      vertex   1.600000e+000 -3.000000e-001 4.000000e-001
      vertex   1.600000e+000 -3.000000e-001 6.000000e-001
    endloop
  endfacet
  facet normal 0.000000e+000 1.000000e+000 0.000000e+000
    outer loop
      vertex   -9.539392e-001 3.000000e-001 4.000000e-001
      vertex   -1.600000e+000 3.000000e-001 4.000000e-001
      vertex   -9.539392e-001 3.000000e-001 6.000000e-001
    endloop
  endfacet
  facet normal 0.000000e+000 1.000000e+000 0.000000e+000
    outer loop
      vertex   -9.539392e-001 3.000000e-001 6.000000e-001
      vertex   -1.600000e+000 3.000000e-001 4.000000e-001
      vertex   -1.600000e+000 3.000000e-001 6.000000e-001
    endloop
  endfacet
  facet normal -1.000000e+000 0.000000e+000 0.000000e+000
    outer loop
      vertex   -1.600000e+000 -3.000000e-001 6.000000e-001
      vertex   -1.600000e+000 3.000000e-001 6.000000e-001
      vertex   -1.600000e+000 -3.000000e-001 4.000000e-001
    endloop
  endfacet
  facet normal -1.000000e+000 0.000000e+000 0.000000e+000
    outer loop
      vertex   -1.600000e+000 -3.000000e-001 4.000000e-001
      vertex   -1.600000e+000 3.000000e-001 6.000000e-001
      vertex   -1.600000e+000 3.000000e-001 4.000000e-001
    endloop
  endfacet
  facet normal 0.000000e+000 1.000000e+000 0.000000e+000
    outer loop
      vertex   9.539392e-001 3.000000e-001 6.000000e-001
      vertex   1.600000e+000 3.000000e-001 6.000000e-001
      vertex   9.539392e-001 3.000000e-001 4.000000e-001
    endloop
  endfacet
  facet normal 0.000000e+000 1.000000e+000 0.000000e+000
    outer loop
      vertex   9.539392e-001 3.000000e-001 4.000000e-001
      vertex   1.600000e+000 3.000000e-001 6.000000e-001
      vertex   1.600000e+000 3.000000e-001 4.000000e-001
    endloop
  endfacet
  facet normal 1.000000e+000 0.000000e+000 0.000000e+000
    outer loop
      vertex   1.600000e+000 3.000000e-001 6.000000e-001
      vertex   1.600000e+000 -3.000000e-001 6.000000e-001
      vertex   1.600000e+000 3.000000e-001 4.000000e-001
    endloop
  endfacet
  facet normal 1.000000e+000 0.000000e+000 0.000000e+000
    outer loop
      vertex   1.600000e+000 3.000000e-001 4.000000e-001
      vertex   1.600000e+000 -3.000000e-001 6.000000e-001
      vertex   1.600000e+000 -3.000000e-001 4.000000e-001
    endloop
  endfacet
  facet normal 2.970283e-016 -6.821264e-016 1.000000e+000
    outer loop
      vertex   8.899748e-001 -4.560098e-001 6.000000e-001
      vertex   9.539392e-001 -3.000000e-001 6.000000e-001
      vertex   1.000000e-001 -8.000000e-001 6.000000e-001
    endloop
  endfacet
  facet normal 0.000000e+000 0.000000e+000 1.000000e+000
    outer loop
      vertex   8.007079e-001 -5.990549e-001 6.000000e-001
      vertex   1.000000e-001 -8.000000e-001 6.000000e-001
      vertex   6.886766e-001 -7.250687e-001 6.000000e-001
    endloop
  endfacet
  facet normal 0.000000e+000 0.000000e+000 1.000000e+000
    outer loop
      vertex   8.007079e-001 -5.990549e-001 6.000000e-001
      vertex   8.899748e-001 -4.560098e-001 6.000000e-001
      vertex   1.000000e-001 -8.000000e-001 6.000000e-001
    endloop
  endfacet
  facet normal 0.000000e+000 0.000000e+000 1.000000e+000
    outer loop
      vertex   -2.505233e-001 -9.681106e-001 6.000000e-001
      vertex   -8.430672e-002 -9.964399e-001 6.000000e-001
      vertex   -1.000000e-001 -8.000000e-001 6.000000e-001
    endloop
  endfacet
  facet normal 0.000000e+000 0.000000e+000 1.000000e+000
    outer loop
      vertex   -4.096173e-001 -9.122574e-001 6.000000e-001
      vertex   -1.000000e-001 -8.000000e-001 6.000000e-001
      vertex   -5.570658e-001 -8.304684e-001 6.000000e-001
    endloop
  endfacet
  facet normal 0.000000e+000 0.000000e+000 1.000000e+000
    outer loop
      vertex   -4.096173e-001 -9.122574e-001 6.000000e-001
      vertex   -2.505233e-001 -9.681106e-001 6.000000e-001
      vertex   -1.000000e-001 -8.000000e-001 6.000000e-001
    endloop
  endfacet
  facet normal 0.000000e+000 0.000000e+000 1.000000e+000
    outer loop
      vertex   -8.007079e-001 5.990549e-001 6.000000e-001
      vertex   -8.899748e-001 4.560098e-001 6.000000e-001
      vertex   -1.000000e-001 8.000000e-001 6.000000e-001
    endloop
  endfacet
  facet normal 0.000000e+000 0.000000e+000 1.000000e+000
    outer loop
      vertex   -6.886766e-001 7.250687e-001 6.000000e-001
      vertex   -1.000000e-001 8.000000e-001 6.000000e-001
      vertex   -5.570658e-001 8.304684e-001 6.000000e-001
    endloop
  endfacet
  facet normal 0.000000e+000 0.000000e+000 1.000000e+000
    outer loop
      vertex   -6.886766e-001 7.250687e-001 6.000000e-001
      vertex   -8.007079e-001 5.990549e-001 6.000000e-001
      vertex   -1.000000e-001 8.000000e-001 6.000000e-001
    endloop
  endfacet
  facet normal 0.000000e+000 0.000000e+000 1.000000e+000
    outer loop
      vertex   2.505233e-001 9.681106e-001 6.000000e-001
      vertex   8.430672e-002 9.964399e-001 6.000000e-001
      vertex   1.000000e-001 8.000000e-001 6.000000e-001
    endloop
  endfacet
  facet normal 0.000000e+000 0.000000e+000 1.000000e+000
    outer loop
      vertex   4.096173e-001 9.122574e-001 6.000000e-001
      vertex   1.000000e-001 8.000000e-001 6.000000e-001
      vertex   5.570658e-001 8.304684e-001 6.000000e-001
    endloop
  endfacet
  facet normal 0.000000e+000 0.000000e+000 1.000000e+000
    outer loop
      vertex   4.096173e-001 9.122574e-001 6.000000e-001
      vertex   2.505233e-001 9.681106e-001 6.000000e-001
      vertex   1.000000e-001 8.000000e-001 6.000000e-001
    endloop
  endfacet
  facet normal -2.970283e-016 -6.821264e-016 1.000000e+000
    outer loop
      vertex   -8.899748e-001 -4.560098e-001 6.000000e-001
      vertex   -1.000000e-001 -8.000000e-001 6.000000e-001
      vertex   -9.539392e-001 -3.000000e-001 6.000000e-001
    endloop
  endfacet
  facet normal 0.000000e+000 0.000000e+000 1.000000e+000
    outer loop
      vertex   -8.899748e-001 -4.560098e-001 6.000000e-001
      vertex   -8.007079e-001 -5.990549e-001 6.000000e-001
      vertex   -1.000000e-001 -8.000000e-001 6.000000e-001
    endloop
  endfacet
  facet normal 0.000000e+000 0.000000e+000 1.000000e+000
    outer loop
      vertex   -1.000000e-001 -8.000000e-001 6.000000e-001
      vertex   -8.007079e-001 -5.990549e-001 6.000000e-001
      vertex   -6.886766e-001 -7.250687e-001 6.000000e-001
    endloop
  endfacet
  facet normal 0.000000e+000 0.000000e+000 1.000000e+000
    outer loop
      vertex   -5.570658e-001 -8.304684e-001 6.000000e-001
      vertex   -1.000000e-001 -8.000000e-001 6.000000e-001
      vertex   -6.886766e-001 -7.250687e-001 6.000000e-001
    endloop
  endfacet
  facet normal 0.000000e+000 0.000000e+000 1.000000e+000
    outer loop
      vertex   -8.430672e-002 -9.964399e-001 6.000000e-001
      vertex   8.430672e-002 -9.964399e-001 6.000000e-001
      vertex   -1.000000e-001 -8.000000e-001 6.000000e-001
    endloop
  endfacet
  facet normal 0.000000e+000 0.000000e+000 1.000000e+000
    outer loop
      vertex   -1.000000e-001 -8.000000e-001 6.000000e-001
      vertex   8.430672e-002 -9.964399e-001 6.000000e-001
      vertex   1.000000e-001 -8.000000e-001 6.000000e-001
    endloop
  endfacet
  facet normal 0.000000e+000 0.000000e+000 1.000000e+000
    outer loop
      vertex   1.000000e-001 -8.000000e-001 6.000000e-001
      vertex   8.430672e-002 -9.964399e-001 6.000000e-001
      vertex   2.505233e-001 -9.681106e-001 6.000000e-001
    endloop
  endfacet
  facet normal 0.000000e+000 0.000000e+000 1.000000e+000
    outer loop
      vertex   4.096173e-001 -9.122574e-001 6.000000e-001
      vertex   1.000000e-001 -8.000000e-001 6.000000e-001
      vertex   2.505233e-001 -9.681106e-001 6.000000e-001
    endloop
  endfacet
  facet normal 0.000000e+000 0.000000e+000 1.000000e+000
    outer loop
      vertex   4.096173e-001 -9.122574e-001 6.000000e-001
      vertex   5.570658e-001 -8.304684e-001 6.000000e-001
      vertex   1.000000e-001 -8.000000e-001 6.000000e-001
    endloop
  endfacet
  facet normal 0.000000e+000 0.000000e+000 1.000000e+000
    outer loop
      vertex   1.000000e-001 -8.000000e-001 6.000000e-001
      vertex   5.570658e-001 -8.304684e-001 6.000000e-001
      vertex   6.886766e-001 -7.250687e-001 6.000000e-001
    endloop
  endfacet
  facet normal -1.023716e-016 -2.983079e-032 1.000000e+000
    outer loop
      vertex   1.000000e-001 -8.000000e-001 6.000000e-001
      vertex   9.539392e-001 -3.000000e-001 6.000000e-001
      vertex   9.539392e-001 3.000000e-001 6.000000e-001
    endloop
  endfacet
  facet normal -2.970283e-016 -6.821264e-016 1.000000e+000
    outer loop
      vertex   1.000000e-001 8.000000e-001 6.000000e-001
      vertex   9.539392e-001 3.000000e-001 6.000000e-001
      vertex   8.899748e-001 4.560098e-001 6.000000e-001
    endloop
  endfacet
  facet normal 0.000000e+000 0.000000e+000 1.000000e+000
    outer loop
      vertex   8.007079e-001 5.990549e-001 6.000000e-001
      vertex   1.000000e-001 8.000000e-001 6.000000e-001
      vertex   8.899748e-001 4.560098e-001 6.000000e-001
    endloop
  endfacet
  facet normal 0.000000e+000 0.000000e+000 1.000000e+000
    outer loop
      vertex   8.007079e-001 5.990549e-001 6.000000e-001
      vertex   6.886766e-001 7.250687e-001 6.000000e-001
      vertex   1.000000e-001 8.000000e-001 6.000000e-001
    endloop
  endfacet
  facet normal 0.000000e+000 0.000000e+000 1.000000e+000
    outer loop
      vertex   1.000000e-001 8.000000e-001 6.000000e-001
      vertex   6.886766e-001 7.250687e-001 6.000000e-001
      vertex   5.570658e-001 8.304684e-001 6.000000e-001
    endloop
  endfacet
  facet normal 0.000000e+000 0.000000e+000 1.000000e+000
    outer loop
      vertex   1.600000e+000 3.000000e-001 6.000000e-001
      vertex   9.539392e-001 3.000000e-001 6.000000e-001
      vertex   1.600000e+000 -3.000000e-001 6.000000e-001
    endloop
  endfacet
  facet normal 0.000000e+000 0.000000e+000 1.000000e+000
    outer loop
      vertex   1.600000e+000 -3.000000e-001 6.000000e-001
      vertex   9.539392e-001 3.000000e-001 6.000000e-001
      vertex   9.539392e-001 -3.000000e-001 6.000000e-001
    endloop
  endfacet
  facet normal 0.000000e+000 0.000000e+000 1.000000e+000
    outer loop
      vertex   8.430672e-002 9.964399e-001 6.000000e-001
      vertex   -8.430672e-002 9.964399e-001 6.000000e-001
      vertex   1.000000e-001 8.000000e-001 6.000000e-001
    endloop
  endfacet
  facet normal 0.000000e+000 0.000000e+000 1.000000e+000
    outer loop
      vertex   1.000000e-001 8.000000e-001 6.000000e-001
      vertex   -8.430672e-002 9.964399e-001 6.000000e-001
      vertex   -1.000000e-001 8.000000e-001 6.000000e-001
    endloop
  endfacet
  facet normal 0.000000e+000 0.000000e+000 1.000000e+000
    outer loop
      vertex   -1.000000e-001 8.000000e-001 6.000000e-001
      vertex   -8.430672e-002 9.964399e-001 6.000000e-001
      vertex   -2.505233e-001 9.681106e-001 6.000000e-001
    endloop
  endfacet
  facet normal 0.000000e+000 0.000000e+000 1.000000e+000
    outer loop
      vertex   -4.096173e-001 9.122574e-001 6.000000e-001
      vertex   -1.000000e-001 8.000000e-001 6.000000e-001
      vertex   -2.505233e-001 9.681106e-001 6.000000e-001
    endloop
  endfacet
  facet normal 0.000000e+000 0.000000e+000 1.000000e+000
    outer loop
      vertex   -4.096173e-001 9.122574e-001 6.000000e-001
      vertex   -5.570658e-001 8.304684e-001 6.000000e-001
      vertex   -1.000000e-001 8.000000e-001 6.000000e-001
    endloop
  endfacet
  facet normal 2.970283e-016 -6.821264e-016 1.000000e+000
    outer loop
      vertex   -8.899748e-001 4.560098e-001 6.000000e-001
      vertex   -9.539392e-001 3.000000e-001 6.000000e-001
      vertex   -1.000000e-001 8.000000e-001 6.000000e-001
    endloop
  endfacet
  facet normal -3.838936e-017 -1.092739e-016 1.000000e+000
    outer loop
      vertex   -1.000000e-001 8.000000e-001 6.000000e-001
      vertex   -9.539392e-001 3.000000e-001 6.000000e-001
      vertex   -1.000000e-001 -8.000000e-001 6.000000e-001
    endloop
  endfacet
  facet normal 1.023716e-016 -2.983079e-032 1.000000e+000
    outer loop
      vertex   -1.000000e-001 -8.000000e-001 6.000000e-001
      vertex   -9.539392e-001 3.000000e-001 6.000000e-001
      vertex   -9.539392e-001 -3.000000e-001 6.000000e-001
    endloop
  endfacet
  facet normal 0.000000e+000 0.000000e+000 1.000000e+000
    outer loop
      vertex   -9.539392e-001 -3.000000e-001 6.000000e-001
      vertex   -9.539392e-001 3.000000e-001 6.000000e-001
      vertex   -1.600000e+000 3.000000e-001 6.000000e-001
    endloop
  endfacet
  facet normal 0.000000e+000 0.000000e+000 1.000000e+000
    outer loop
      vertex   -1.600000e+000 -3.000000e-001 6.000000e-001
      vertex   -9.539392e-001 -3.000000e-001 6.000000e-001
      vertex   -1.600000e+000 3.000000e-001 6.000000e-001
    endloop
  endfacet
  facet normal 3.838936e-017 -1.092739e-016 1.000000e+000
    outer loop
      vertex   1.000000e-001 -8.000000e-001 6.000000e-001
      vertex   9.539392e-001 3.000000e-001 6.000000e-001
      vertex   1.000000e-001 8.000000e-001 6.000000e-001
    endloop
  endfacet
  facet normal 9.252510e-001 3.793554e-001 0.000000e+000
    outer loop
      vertex   9.539392e-001 3.000000e-001 6.000000e-001
      vertex   9.539392e-001 3.000000e-001 4.000000e-001
      vertex   8.899748e-001 4.560098e-001 6.000000e-001
    endloop
  endfacet
  facet normal 9.252510e-001 3.793554e-001 3.189339e-016
    outer loop
      vertex   8.899748e-001 4.560098e-001 6.000000e-001
      vertex   9.539392e-001 3.000000e-001 4.000000e-001
      vertex   8.899748e-001 4.560098e-001 4.000000e-001
    endloop
  endfacet
  facet normal 8.483616e-001 5.294172e-001 7.016545e-016
    outer loop
      vertex   8.007079e-001 5.990549e-001 6.000000e-001
      vertex   8.899748e-001 4.560098e-001 4.000000e-001
      vertex   8.007079e-001 5.990549e-001 4.000000e-001
    endloop
  endfacet
  facet normal 7.473529e-001 6.644273e-001 3.827206e-016
    outer loop
      vertex   6.886766e-001 7.250687e-001 6.000000e-001
      vertex   8.007079e-001 5.990549e-001 4.000000e-001
      vertex   6.886766e-001 7.250687e-001 4.000000e-001
    endloop
  endfacet
  facet normal 6.250966e-001 7.805474e-001 -9.568016e-016
    outer loop
      vertex   5.570658e-001 8.304684e-001 6.000000e-001
      vertex   6.886766e-001 7.250687e-001 4.000000e-001
      vertex   5.570658e-001 8.304684e-001 4.000000e-001
    endloop
  endfacet
  facet normal 4.850685e-001 8.744762e-001 -1.275735e-016
    outer loop
      vertex   4.096173e-001 9.122574e-001 6.000000e-001
      vertex   5.570658e-001 8.304684e-001 4.000000e-001
      vertex   4.096173e-001 9.122574e-001 4.000000e-001
    endloop
  endfacet
  facet normal 3.312496e-001 9.435432e-001 -1.275735e-016
    outer loop
      vertex   2.505233e-001 9.681106e-001 6.000000e-001
      vertex   4.096173e-001 9.122574e-001 4.000000e-001
      vertex   2.505233e-001 9.681106e-001 4.000000e-001
    endloop
  endfacet
  facet normal 1.680132e-001 9.857848e-001 -1.594669e-016
    outer loop
      vertex   8.430672e-002 9.964399e-001 6.000000e-001
      vertex   2.505233e-001 9.681106e-001 4.000000e-001
      vertex   8.430672e-002 9.964399e-001 4.000000e-001
    endloop
  endfacet
  facet normal 0.000000e+000 1.000000e+000 0.000000e+000
    outer loop
      vertex   -8.430672e-002 9.964399e-001 6.000000e-001
      vertex   8.430672e-002 9.964399e-001 4.000000e-001
      vertex   -8.430672e-002 9.964399e-001 4.000000e-001
    endloop
  endfacet
  facet normal -1.680132e-001 9.857848e-001 1.913603e-016
    outer loop
      vertex   -2.505233e-001 9.681106e-001 6.000000e-001
      vertex   -8.430672e-002 9.964399e-001 4.000000e-001
      vertex   -2.505233e-001 9.681106e-001 4.000000e-001
    endloop
  endfacet
  facet normal -3.312496e-001 9.435432e-001 3.189339e-017
    outer loop
      vertex   -4.096173e-001 9.122574e-001 6.000000e-001
      vertex   -2.505233e-001 9.681106e-001 4.000000e-001
      vertex   -4.096173e-001 9.122574e-001 4.000000e-001
    endloop
  endfacet
  facet normal -4.850685e-001 8.744762e-001 0.000000e+000
    outer loop
      vertex   -5.570658e-001 8.304684e-001 6.000000e-001
      vertex   -4.096173e-001 9.122574e-001 4.000000e-001
      vertex   -5.570658e-001 8.304684e-001 4.000000e-001
    endloop
  endfacet
  facet normal -6.250966e-001 7.805474e-001 -3.189339e-016
    outer loop
      vertex   -6.886766e-001 7.250687e-001 6.000000e-001
      vertex   -5.570658e-001 8.304684e-001 4.000000e-001
      vertex   -6.886766e-001 7.250687e-001 4.000000e-001
    endloop
  endfacet
  facet normal -7.473529e-001 6.644273e-001 -1.275735e-016
    outer loop
      vertex   -8.007079e-001 5.990549e-001 6.000000e-001
      vertex   -6.886766e-001 7.250687e-001 4.000000e-001
      vertex   -8.007079e-001 5.990549e-001 4.000000e-001
    endloop
  endfacet
  facet normal -8.483616e-001 5.294172e-001 -6.378677e-016
    outer loop
      vertex   -8.899748e-001 4.560098e-001 6.000000e-001
      vertex   -8.007079e-001 5.990549e-001 4.000000e-001
      vertex   -8.899748e-001 4.560098e-001 4.000000e-001
    endloop
  endfacet
  facet normal -9.252510e-001 3.793554e-001 0.000000e+000
    outer loop
      vertex   -9.539392e-001 3.000000e-001 6.000000e-001
      vertex   -8.899748e-001 4.560098e-001 4.000000e-001
      vertex   -9.539392e-001 3.000000e-001 4.000000e-001
    endloop
  endfacet
  facet normal -9.252510e-001 3.793554e-001 -1.860413e-016
    outer loop
      vertex   -9.539392e-001 3.000000e-001 6.000000e-001
      vertex   -8.899748e-001 4.560098e-001 6.000000e-001
      vertex   -8.899748e-001 4.560098e-001 4.000000e-001
    endloop
  endfacet
  facet normal -8.483616e-001 5.294172e-001 3.262311e-016
    outer loop
      vertex   -8.899748e-001 4.560098e-001 6.000000e-001
      vertex   -8.007079e-001 5.990549e-001 6.000000e-001
      vertex   -8.007079e-001 5.990549e-001 4.000000e-001
    endloop
  endfacet
  facet normal -7.473529e-001 6.644273e-001 1.812322e-016
    outer loop
      vertex   -8.007079e-001 5.990549e-001 6.000000e-001
      vertex   -6.886766e-001 7.250687e-001 6.000000e-001
      vertex   -6.886766e-001 7.250687e-001 4.000000e-001
    endloop
  endfacet
  facet normal -6.250966e-001 7.805474e-001 0.000000e+000
    outer loop
      vertex   -6.886766e-001 7.250687e-001 6.000000e-001
      vertex   -5.570658e-001 8.304684e-001 6.000000e-001
      vertex   -5.570658e-001 8.304684e-001 4.000000e-001
    endloop
  endfacet
  facet normal -4.850685e-001 8.744762e-001 5.076685e-016
    outer loop
      vertex   -5.570658e-001 8.304684e-001 6.000000e-001
      vertex   -4.096173e-001 9.122574e-001 6.000000e-001
      vertex   -4.096173e-001 9.122574e-001 4.000000e-001
    endloop
  endfacet
  facet normal -3.312496e-001 9.435432e-001 3.619694e-016
    outer loop
      vertex   -4.096173e-001 9.122574e-001 6.000000e-001
      vertex   -2.505233e-001 9.681106e-001 6.000000e-001
      vertex   -2.505233e-001 9.681106e-001 4.000000e-001
    endloop
  endfacet
  facet normal -1.680132e-001 9.857848e-001 5.324242e-016
    outer loop
      vertex   -2.505233e-001 9.681106e-001 6.000000e-001
      vertex   -8.430672e-002 9.964399e-001 6.000000e-001
      vertex   -8.430672e-002 9.964399e-001 4.000000e-001
    endloop
  endfacet
  facet normal 0.000000e+000 1.000000e+000 0.000000e+000
    outer loop
      vertex   -8.430672e-002 9.964399e-001 6.000000e-001
      vertex   8.430672e-002 9.964399e-001 6.000000e-001
      vertex   8.430672e-002 9.964399e-001 4.000000e-001
    endloop
  endfacet
  facet normal 1.680132e-001 9.857848e-001 3.844187e-016
    outer loop
      vertex   8.430672e-002 9.964399e-001 6.000000e-001
      vertex   2.505233e-001 9.681106e-001 6.000000e-001
      vertex   2.505233e-001 9.681106e-001 4.000000e-001
    endloop
  endfacet
  facet normal 3.312496e-001 9.435432e-001 -3.904740e-016
    outer loop
      vertex   2.505233e-001 9.681106e-001 6.000000e-001
      vertex   4.096173e-001 9.122574e-001 6.000000e-001
      vertex   4.096173e-001 9.122574e-001 4.000000e-001
    endloop
  endfacet
  facet normal 4.850685e-001 8.744762e-001 -5.076685e-016
    outer loop
      vertex   4.096173e-001 9.122574e-001 6.000000e-001
      vertex   5.570658e-001 8.304684e-001 6.000000e-001
      vertex   5.570658e-001 8.304684e-001 4.000000e-001
    endloop
  endfacet
  facet normal 6.250966e-001 7.805474e-001 1.090029e-015
    outer loop
      vertex   5.570658e-001 8.304684e-001 6.000000e-001
      vertex   6.886766e-001 7.250687e-001 6.000000e-001
      vertex   6.886766e-001 7.250687e-001 4.000000e-001
    endloop
  endfacet
  facet normal 7.473529e-001 6.644273e-001 8.712549e-016
    outer loop
      vertex   6.886766e-001 7.250687e-001 6.000000e-001
      vertex   8.007079e-001 5.990549e-001 6.000000e-001
      vertex   8.007079e-001 5.990549e-001 4.000000e-001
    endloop
  endfacet
  facet normal 8.483616e-001 5.294172e-001 4.741257e-017
    outer loop
      vertex   8.007079e-001 5.990549e-001 6.000000e-001
      vertex   8.899748e-001 4.560098e-001 6.000000e-001
      vertex   8.899748e-001 4.560098e-001 4.000000e-001
    endloop
  endfacet
  facet normal -7.071068e-001 -7.922032e-017 7.071068e-001
    outer loop
      vertex   -1.000000e-002 8.000000e-001 1.000000e+000
      vertex   -1.000000e-001 8.000000e-001 9.100000e-001
      vertex   -1.000000e-002 -8.000000e-001 1.000000e+000
    endloop
  endfacet
  facet normal -7.071068e-001 -7.726833e-017 7.071068e-001
    outer loop
      vertex   -1.000000e-002 -8.000000e-001 1.000000e+000
      vertex   -1.000000e-001 8.000000e-001 9.100000e-001
      vertex   -1.000000e-001 -8.000000e-001 9.100000e-001
    endloop
  endfacet
  facet normal 0.000000e+000 -1.092739e-016 1.000000e+000
    outer loop
      vertex   -1.000000e-002 -8.000000e-001 1.000000e+000
      vertex   1.000000e-002 -8.000000e-001 1.000000e+000
      vertex   -1.000000e-002 8.000000e-001 1.000000e+000
    endloop
  endfacet
  facet normal 0.000000e+000 -1.092739e-016 1.000000e+000
    outer loop
      vertex   -1.000000e-002 8.000000e-001 1.000000e+000
      vertex   1.000000e-002 -8.000000e-001 1.000000e+000
      vertex   1.000000e-002 8.000000e-001 1.000000e+000
    endloop
  endfacet
  facet normal 0.000000e+000 -1.000000e+000 0.000000e+000
    outer loop
      vertex   1.000000e-002 -8.000000e-001 1.000000e+000
      vertex   -1.000000e-002 -8.000000e-001 1.000000e+000
      vertex   1.000000e-001 -8.000000e-001 6.000000e-001
    endloop
  endfacet
  facet normal 0.000000e+000 -1.000000e+000 0.000000e+000
    outer loop
      vertex   1.000000e-001 -8.000000e-001 9.100000e-001
      vertex   1.000000e-002 -8.000000e-001 1.000000e+000
      vertex   1.000000e-001 -8.000000e-001 6.000000e-001
    endloop
  endfacet
  facet normal 0.000000e+000 -1.000000e+000 0.000000e+000
    outer loop
      vertex   -1.000000e-001 -8.000000e-001 6.000000e-001
      vertex   1.000000e-001 -8.000000e-001 6.000000e-001
      vertex   -1.000000e-001 -8.000000e-001 9.100000e-001
    endloop
  endfacet
  facet normal 0.000000e+000 -1.000000e+000 0.000000e+000
    outer loop
      vertex   -1.000000e-001 -8.000000e-001 9.100000e-001
      vertex   1.000000e-001 -8.000000e-001 6.000000e-001
      vertex   -1.000000e-002 -8.000000e-001 1.000000e+000
    endloop
  endfacet
  facet normal 7.071068e-001 -7.393896e-017 7.071068e-001
    outer loop
      vertex   1.000000e-002 -8.000000e-001 1.000000e+000
      vertex   1.000000e-001 -8.000000e-001 9.100000e-001
      vertex   1.000000e-002 8.000000e-001 1.000000e+000
    endloop
  endfacet
  facet normal 7.071068e-001 -7.726833e-017 7.071068e-001
    outer loop
      vertex   1.000000e-002 8.000000e-001 1.000000e+000
      vertex   1.000000e-001 -8.000000e-001 9.100000e-001
      vertex   1.000000e-001 8.000000e-001 9.100000e-001
    endloop
  endfacet
  facet normal 0.000000e+000 1.000000e+000 0.000000e+000
    outer loop
      vertex   -1.000000e-001 8.000000e-001 9.100000e-001
      vertex   -1.000000e-002 8.000000e-001 1.000000e+000
      vertex   -1.000000e-001 8.000000e-001 6.000000e-001
    endloop
  endfacet
  facet normal 0.000000e+000 1.000000e+000 0.000000e+000
    outer loop
      vertex   -1.000000e-001 8.000000e-001 6.000000e-001
      vertex   -1.000000e-002 8.000000e-001 1.000000e+000
      vertex   1.000000e-002 8.000000e-001 1.000000e+000
    endloop
  endfacet
  facet normal 0.000000e+000 1.000000e+000 0.000000e+000
    outer loop
      vertex   1.000000e-001 8.000000e-001 9.100000e-001
      vertex   -1.000000e-001 8.000000e-001 6.000000e-001
      vertex   1.000000e-002 8.000000e-001 1.000000e+000
    endloop
  endfacet
  facet normal 0.000000e+000 1.000000e+000 0.000000e+000
    outer loop
      vertex   1.000000e-001 8.000000e-001 9.100000e-001
      vertex   1.000000e-001 8.000000e-001 6.000000e-001
      vertex   -1.000000e-001 8.000000e-001 6.000000e-001
    endloop
  endfacet
  facet normal 1.000000e+000 0.000000e+000 0.000000e+000
    outer loop
      vertex   1.000000e-001 8.000000e-001 9.100000e-001
      vertex   1.000000e-001 -8.000000e-001 9.100000e-001
      vertex   1.000000e-001 8.000000e-001 6.000000e-001
    endloop
  endfacet
  facet normal 1.000000e+000 0.000000e+000 0.000000e+000
    outer loop
      vertex   1.000000e-001 8.000000e-001 6.000000e-001
      vertex   1.000000e-001 -8.000000e-001 9.100000e-001
      vertex   1.000000e-001 -8.000000e-001 6.000000e-001
    endloop
  endfacet
  facet normal -1.000000e+000 0.000000e+000 0.000000e+000
    outer loop
      vertex   -1.000000e-001 -8.000000e-001 9.100000e-001
      vertex   -1.000000e-001 8.000000e-001 9.100000e-001
      vertex   -1.000000e-001 -8.000000e-001 6.000000e-001
    endloop
  endfacet
  facet normal -1.000000e+000 0.000000e+000 0.000000e+000
    outer loop
      vertex   -1.000000e-001 -8.000000e-001 6.000000e-001
      vertex   -1.000000e-001 8.000000e-001 9.100000e-001
      vertex   -1.000000e-001 8.000000e-001 6.000000e-001
    endloop
  endfacet
  facet normal -2.970283e-016 6.821264e-016 -1.000000e+000
    outer loop
      vertex   8.899748e-001 -4.560098e-001 4.000000e-001
      vertex   1.000000e-001 -8.000000e-001 4.000000e-001
      vertex   9.539392e-001 -3.000000e-001 4.000000e-001
    endloop
  endfacet
  facet normal 0.000000e+000 0.000000e+000 -1.000000e+000
    outer loop
      vertex   8.899748e-001 -4.560098e-001 4.000000e-001
      vertex   8.007079e-001 -5.990549e-001 4.000000e-001
      vertex   1.000000e-001 -8.000000e-001 4.000000e-001
    endloop
  endfacet
  facet normal 0.000000e+000 0.000000e+000 -1.000000e+000
    outer loop
      vertex   1.000000e-001 -8.000000e-001 4.000000e-001
      vertex   8.007079e-001 -5.990549e-001 4.000000e-001
      vertex   6.886766e-001 -7.250687e-001 4.000000e-001
    endloop
  endfacet
  facet normal 0.000000e+000 0.000000e+000 -1.000000e+000
    outer loop
      vertex   5.570658e-001 -8.304684e-001 4.000000e-001
      vertex   1.000000e-001 -8.000000e-001 4.000000e-001
      vertex   6.886766e-001 -7.250687e-001 4.000000e-001
    endloop
  endfacet
  facet normal 0.000000e+000 0.000000e+000 -1.000000e+000
    outer loop
      vertex   5.570658e-001 -8.304684e-001 4.000000e-001
      vertex   4.096173e-001 -9.122574e-001 4.000000e-001
      vertex   1.000000e-001 -8.000000e-001 4.000000e-001
    endloop
  endfacet
  facet normal 0.000000e+000 0.000000e+000 -1.000000e+000
    outer loop
      vertex   1.000000e-001 -8.000000e-001 4.000000e-001
      vertex   4.096173e-001 -9.122574e-001 4.000000e-001
      vertex   2.505233e-001 -9.681106e-001 4.000000e-001
    endloop
  endfacet
  facet normal 0.000000e+000 0.000000e+000 -1.000000e+000
    outer loop
      vertex   8.430672e-002 -9.964399e-001 4.000000e-001
      vertex   1.000000e-001 -8.000000e-001 4.000000e-001
      vertex   2.505233e-001 -9.681106e-001 4.000000e-001
    endloop
  endfacet
  facet normal 0.000000e+000 0.000000e+000 -1.000000e+000
    outer loop
      vertex   8.430672e-002 -9.964399e-001 4.000000e-001
      vertex   -8.430672e-002 -9.964399e-001 4.000000e-001
      vertex   1.000000e-001 -8.000000e-001 4.000000e-001
    endloop
  endfacet
  facet normal 0.000000e+000 0.000000e+000 -1.000000e+000
    outer loop
      vertex   1.000000e-001 -8.000000e-001 4.000000e-001
      vertex   -8.430672e-002 -9.964399e-001 4.000000e-001
      vertex   -1.000000e-001 -8.000000e-001 4.000000e-001
    endloop
  endfacet
  facet normal 0.000000e+000 0.000000e+000 -1.000000e+000
    outer loop
      vertex   -1.000000e-001 -8.000000e-001 4.000000e-001
      vertex   -8.430672e-002 -9.964399e-001 4.000000e-001
      vertex   -2.505233e-001 -9.681106e-001 4.000000e-001
    endloop
  endfacet
  facet normal 0.000000e+000 0.000000e+000 -1.000000e+000
    outer loop
      vertex   -4.096173e-001 -9.122574e-001 4.000000e-001
      vertex   -1.000000e-001 -8.000000e-001 4.000000e-001
      vertex   -2.505233e-001 -9.681106e-001 4.000000e-001
    endloop
  endfacet
  facet normal 0.000000e+000 0.000000e+000 -1.000000e+000
    outer loop
      vertex   -4.096173e-001 -9.122574e-001 4.000000e-001
      vertex   -5.570658e-001 -8.304684e-001 4.000000e-001
      vertex   -1.000000e-001 -8.000000e-001 4.000000e-001
    endloop
  endfacet
  facet normal 0.000000e+000 0.000000e+000 -1.000000e+000
    outer loop
      vertex   -1.000000e-001 -8.000000e-001 4.000000e-001
      vertex   -5.570658e-001 -8.304684e-001 4.000000e-001
      vertex   -6.886766e-001 -7.250687e-001 4.000000e-001
    endloop
  endfacet
  facet normal 0.000000e+000 0.000000e+000 -1.000000e+000
    outer loop
      vertex   -8.007079e-001 -5.990549e-001 4.000000e-001
      vertex   -1.000000e-001 -8.000000e-001 4.000000e-001
      vertex   -6.886766e-001 -7.250687e-001 4.000000e-001
    endloop
  endfacet
  facet normal 0.000000e+000 0.000000e+000 -1.000000e+000
    outer loop
      vertex   -8.007079e-001 -5.990549e-001 4.000000e-001
      vertex   -8.899748e-001 -4.560098e-001 4.000000e-001
      vertex   -1.000000e-001 -8.000000e-001 4.000000e-001
    endloop
  endfacet
  facet normal 2.970283e-016 6.821264e-016 -1.000000e+000
    outer loop
      vertex   -1.000000e-001 -8.000000e-001 4.000000e-001
      vertex   -8.899748e-001 -4.560098e-001 4.000000e-001
      vertex   -9.539392e-001 -3.000000e-001 4.000000e-001
    endloop
  endfacet
  facet normal 0.000000e+000 0.000000e+000 -1.000000e+000
    outer loop
      vertex   -9.539392e-001 3.000000e-001 4.000000e-001
      vertex   -9.539392e-001 -3.000000e-001 4.000000e-001
      vertex   -1.600000e+000 -3.000000e-001 4.000000e-001
    endloop
  endfacet
  facet normal 0.000000e+000 0.000000e+000 -1.000000e+000
    outer loop
      vertex   -1.600000e+000 3.000000e-001 4.000000e-001
      vertex   -9.539392e-001 3.000000e-001 4.000000e-001
      vertex   -1.600000e+000 -3.000000e-001 4.000000e-001
    endloop
  endfacet
  facet normal -2.970283e-016 6.821264e-016 -1.000000e+000
    outer loop
      vertex   -8.899748e-001 4.560098e-001 4.000000e-001
      vertex   -1.000000e-001 8.000000e-001 4.000000e-001
      vertex   -9.539392e-001 3.000000e-001 4.000000e-001
    endloop
  endfacet
  facet normal 0.000000e+000 0.000000e+000 -1.000000e+000
    outer loop
      vertex   -8.899748e-001 4.560098e-001 4.000000e-001
      vertex   -8.007079e-001 5.990549e-001 4.000000e-001
      vertex   -1.000000e-001 8.000000e-001 4.000000e-001
    endloop
  endfacet
  facet normal 0.000000e+000 0.000000e+000 -1.000000e+000
    outer loop
      vertex   -1.000000e-001 8.000000e-001 4.000000e-001
      vertex   -8.007079e-001 5.990549e-001 4.000000e-001
      vertex   -6.886766e-001 7.250687e-001 4.000000e-001
    endloop
  endfacet
  facet normal 0.000000e+000 0.000000e+000 -1.000000e+000
    outer loop
      vertex   -5.570658e-001 8.304684e-001 4.000000e-001
      vertex   -1.000000e-001 8.000000e-001 4.000000e-001
      vertex   -6.886766e-001 7.250687e-001 4.000000e-001
    endloop
  endfacet
  facet normal 0.000000e+000 0.000000e+000 -1.000000e+000
    outer loop
      vertex   -5.570658e-001 8.304684e-001 4.000000e-001
      vertex   -4.096173e-001 9.122574e-001 4.000000e-001
      vertex   -1.000000e-001 8.000000e-001 4.000000e-001
    endloop
  endfacet
  facet normal 0.000000e+000 0.000000e+000 -1.000000e+000
    outer loop
      vertex   -1.000000e-001 8.000000e-001 4.000000e-001
      vertex   -4.096173e-001 9.122574e-001 4.000000e-001
      vertex   -2.505233e-001 9.681106e-001 4.000000e-001
    endloop
  endfacet
  facet normal 0.000000e+000 0.000000e+000 -1.000000e+000
    outer loop
      vertex   -8.430672e-002 9.964399e-001 4.000000e-001
      vertex   -1.000000e-001 8.000000e-001 4.000000e-001
      vertex   -2.505233e-001 9.681106e-001 4.000000e-001
    endloop
  endfacet
  facet normal 0.000000e+000 0.000000e+000 -1.000000e+000
    outer loop
      vertex   -8.430672e-002 9.964399e-001 4.000000e-001
      vertex   8.430672e-002 9.964399e-001 4.000000e-001
      vertex   -1.000000e-001 8.000000e-001 4.000000e-001
    endloop
  endfacet
  facet normal 0.000000e+000 0.000000e+000 -1.000000e+000
    outer loop
      vertex   -1.000000e-001 8.000000e-001 4.000000e-001
      vertex   8.430672e-002 9.964399e-001 4.000000e-001
      vertex   1.000000e-001 8.000000e-001 4.000000e-001
    endloop
  endfacet
  facet normal 0.000000e+000 0.000000e+000 -1.000000e+000
    outer loop
      vertex   1.000000e-001 8.000000e-001 4.000000e-001
      vertex   8.430672e-002 9.964399e-001 4.000000e-001
      vertex   2.505233e-001 9.681106e-001 4.000000e-001
    endloop
  endfacet
  facet normal 0.000000e+000 0.000000e+000 -1.000000e+000
    outer loop
      vertex   4.096173e-001 9.122574e-001 4.000000e-001
      vertex   1.000000e-001 8.000000e-001 4.000000e-001
      vertex   2.505233e-001 9.681106e-001 4.000000e-001
    endloop
  endfacet
  facet normal 0.000000e+000 0.000000e+000 -1.000000e+000
    outer loop
      vertex   4.096173e-001 9.122574e-001 4.000000e-001
      vertex   5.570658e-001 8.304684e-001 4.000000e-001
      vertex   1.000000e-001 8.000000e-001 4.000000e-001
    endloop
  endfacet
  facet normal 0.000000e+000 0.000000e+000 -1.000000e+000
    outer loop
      vertex   1.000000e-001 8.000000e-001 4.000000e-001
      vertex   5.570658e-001 8.304684e-001 4.000000e-001
      vertex   6.886766e-001 7.250687e-001 4.000000e-001
    endloop
  endfacet
  facet normal 0.000000e+000 0.000000e+000 -1.000000e+000
    outer loop
      vertex   8.007079e-001 5.990549e-001 4.000000e-001
      vertex   1.000000e-001 8.000000e-001 4.000000e-001
      vertex   6.886766e-001 7.250687e-001 4.000000e-001
    endloop
  endfacet
  facet normal 0.000000e+000 0.000000e+000 -1.000000e+000
    outer loop
      vertex   8.007079e-001 5.990549e-001 4.000000e-001
      vertex   8.899748e-001 4.560098e-001 4.000000e-001
      vertex   1.000000e-001 8.000000e-001 4.000000e-001
    endloop
  endfacet
  facet normal 2.970283e-016 6.821264e-016 -1.000000e+000
    outer loop
      vertex   1.000000e-001 8.000000e-001 4.000000e-001
      vertex   8.899748e-001 4.560098e-001 4.000000e-001
      vertex   9.539392e-001 3.000000e-001 4.000000e-001
    endloop
  endfacet
  facet normal 1.023716e-016 2.983079e-032 -1.000000e+000
    outer loop
      vertex   1.000000e-001 -8.000000e-001 4.000000e-001
      vertex   9.539392e-001 3.000000e-001 4.000000e-001
      vertex   9.539392e-001 -3.000000e-001 4.000000e-001
    endloop
  endfacet
  facet normal -3.838936e-017 1.092739e-016 -1.000000e+000
    outer loop
      vertex   1.000000e-001 -8.000000e-001 4.000000e-001
      vertex   1.000000e-001 8.000000e-001 4.000000e-001
      vertex   9.539392e-001 3.000000e-001 4.000000e-001
    endloop
  endfacet
  facet normal 0.000000e+000 0.000000e+000 -1.000000e+000
    outer loop
      vertex   9.539392e-001 3.000000e-001 4.000000e-001
      vertex   1.600000e+000 3.000000e-001 4.000000e-001
      vertex   9.539392e-001 -3.000000e-001 4.000000e-001
    endloop
  endfacet
  facet normal 0.000000e+000 0.000000e+000 -1.000000e+000
    outer loop
      vertex   9.539392e-001 -3.000000e-001 4.000000e-001
      vertex   1.600000e+000 3.000000e-001 4.000000e-001
      vertex   1.600000e+000 -3.000000e-001 4.000000e-001
    endloop
  endfacet
  facet normal 3.838936e-017 1.092739e-016 -1.000000e+000
    outer loop
      vertex   -1.000000e-001 8.000000e-001 4.000000e-001
      vertex   -1.000000e-001 -8.000000e-001 4.000000e-001
      vertex   -9.539392e-001 3.000000e-001 4.000000e-001
    endloop
  endfacet
  facet normal -1.023716e-016 2.983079e-032 -1.000000e+000
    outer loop
      vertex   -9.539392e-001 3.000000e-001 4.000000e-001
      vertex   -1.000000e-001 -8.000000e-001 4.000000e-001
      vertex   -9.539392e-001 -3.000000e-001 4.000000e-001
    endloop
  endfacet
  facet normal 9.252510e-001 -3.793554e-001 8.290731e-017
    outer loop
      vertex   9.539392e-001 -3.000000e-001 4.000000e-001
      vertex   9.539392e-001 -3.000000e-001 6.000000e-001
      vertex   8.899748e-001 -4.560098e-001 4.000000e-001
    endloop
  endfacet
  facet normal 9.252510e-001 -3.793554e-001 -2.551471e-016
    outer loop
      vertex   8.899748e-001 -4.560098e-001 4.000000e-001
      vertex   9.539392e-001 -3.000000e-001 6.000000e-001
      vertex   8.899748e-001 -4.560098e-001 6.000000e-001
    endloop
  endfacet
  facet normal 8.483616e-001 -5.294172e-001 3.189339e-016
    outer loop
      vertex   8.007079e-001 -5.990549e-001 4.000000e-001
      vertex   8.899748e-001 -4.560098e-001 6.000000e-001
      vertex   8.007079e-001 -5.990549e-001 6.000000e-001
    endloop
  endfacet
  facet normal 7.473529e-001 -6.644273e-001 -1.913603e-016
    outer loop
      vertex   6.886766e-001 -7.250687e-001 4.000000e-001
      vertex   8.007079e-001 -5.990549e-001 6.000000e-001
      vertex   6.886766e-001 -7.250687e-001 6.000000e-001
    endloop
  endfacet
  facet normal 6.250966e-001 -7.805474e-001 1.339522e-015
    outer loop
      vertex   5.570658e-001 -8.304684e-001 4.000000e-001
      vertex   6.886766e-001 -7.250687e-001 6.000000e-001
      vertex   5.570658e-001 -8.304684e-001 6.000000e-001
    endloop
  endfacet
  facet normal 4.850685e-001 -8.744762e-001 -3.189339e-016
    outer loop
      vertex   4.096173e-001 -9.122574e-001 4.000000e-001
      vertex   5.570658e-001 -8.304684e-001 6.000000e-001
      vertex   4.096173e-001 -9.122574e-001 6.000000e-001
    endloop
  endfacet
  facet normal 3.312496e-001 -9.435432e-001 -6.059743e-016
    outer loop
      vertex   2.505233e-001 -9.681106e-001 4.000000e-001
      vertex   4.096173e-001 -9.122574e-001 6.000000e-001
      vertex   2.505233e-001 -9.681106e-001 6.000000e-001
    endloop
  endfacet
  facet normal 1.680132e-001 -9.857848e-001 -1.913603e-016
    outer loop
      vertex   8.430672e-002 -9.964399e-001 4.000000e-001
      vertex   2.505233e-001 -9.681106e-001 6.000000e-001
      vertex   8.430672e-002 -9.964399e-001 6.000000e-001
    endloop
  endfacet
  facet normal 0.000000e+000 -1.000000e+000 0.000000e+000
    outer loop
      vertex   -8.430672e-002 -9.964399e-001 4.000000e-001
      vertex   8.430672e-002 -9.964399e-001 6.000000e-001
      vertex   -8.430672e-002 -9.964399e-001 6.000000e-001
    endloop
  endfacet
  facet normal -1.680132e-001 -9.857848e-001 2.232537e-016
    outer loop
      vertex   -2.505233e-001 -9.681106e-001 4.000000e-001
      vertex   -8.430672e-002 -9.964399e-001 6.000000e-001
      vertex   -2.505233e-001 -9.681106e-001 6.000000e-001
    endloop
  endfacet
  facet normal -3.312496e-001 -9.435432e-001 -9.568016e-017
    outer loop
      vertex   -4.096173e-001 -9.122574e-001 4.000000e-001
      vertex   -2.505233e-001 -9.681106e-001 6.000000e-001
      vertex   -4.096173e-001 -9.122574e-001 6.000000e-001
    endloop
  endfacet
  facet normal -4.850685e-001 -8.744762e-001 -8.930148e-016
    outer loop
      vertex   -5.570658e-001 -8.304684e-001 4.000000e-001
      vertex   -4.096173e-001 -9.122574e-001 6.000000e-001
      vertex   -5.570658e-001 -8.304684e-001 6.000000e-001
    endloop
  endfacet
  facet normal -6.250966e-001 -7.805474e-001 -1.020588e-015
    outer loop
      vertex   -6.886766e-001 -7.250687e-001 4.000000e-001
      vertex   -5.570658e-001 -8.304684e-001 6.000000e-001
      vertex   -6.886766e-001 -7.250687e-001 6.000000e-001
    endloop
  endfacet
  facet normal -7.473529e-001 -6.644273e-001 -9.568016e-016
    outer loop
      vertex   -8.007079e-001 -5.990549e-001 4.000000e-001
      vertex   -6.886766e-001 -7.250687e-001 6.000000e-001
      vertex   -8.007079e-001 -5.990549e-001 6.000000e-001
    endloop
  endfacet
  facet normal -8.483616e-001 -5.294172e-001 1.275735e-016
    outer loop
      vertex   -8.899748e-001 -4.560098e-001 4.000000e-001
      vertex   -8.007079e-001 -5.990549e-001 6.000000e-001
      vertex   -8.899748e-001 -4.560098e-001 6.000000e-001
    endloop
  endfacet
  facet normal -9.252510e-001 -3.793554e-001 6.378677e-017
    outer loop
      vertex   -9.539392e-001 -3.000000e-001 4.000000e-001
      vertex   -8.899748e-001 -4.560098e-001 6.000000e-001
      vertex   -9.539392e-001 -3.000000e-001 6.000000e-001
    endloop
  endfacet
  facet normal -9.252510e-001 -3.793554e-001 6.228051e-016
    outer loop
      vertex   -9.539392e-001 -3.000000e-001 4.000000e-001
      vertex   -8.899748e-001 -4.560098e-001 4.000000e-001
      vertex   -8.899748e-001 -4.560098e-001 6.000000e-001
    endloop
  endfacet
  facet normal -8.483616e-001 -5.294172e-001 -8.916823e-017
    outer loop
      vertex   -8.899748e-001 -4.560098e-001 4.000000e-001
      vertex   -8.007079e-001 -5.990549e-001 4.000000e-001
      vertex   -8.007079e-001 -5.990549e-001 6.000000e-001
    endloop
  endfacet
  facet normal -7.473529e-001 -6.644273e-001 -8.712549e-016
    outer loop
      vertex   -8.007079e-001 -5.990549e-001 4.000000e-001
      vertex   -6.886766e-001 -7.250687e-001 4.000000e-001
      vertex   -6.886766e-001 -7.250687e-001 6.000000e-001
    endloop
  endfacet
  facet normal -6.250966e-001 -7.805474e-001 2.879102e-018
    outer loop
      vertex   -6.886766e-001 -7.250687e-001 4.000000e-001
      vertex   -5.570658e-001 -8.304684e-001 4.000000e-001
      vertex   -5.570658e-001 -8.304684e-001 6.000000e-001
    endloop
  endfacet
  facet normal -4.850685e-001 -8.744762e-001 2.956472e-016
    outer loop
      vertex   -5.570658e-001 -8.304684e-001 4.000000e-001
      vertex   -4.096173e-001 -9.122574e-001 4.000000e-001
      vertex   -4.096173e-001 -9.122574e-001 6.000000e-001
    endloop
  endfacet
  facet normal -3.312496e-001 -9.435432e-001 4.343633e-016
    outer loop
      vertex   -4.096173e-001 -9.122574e-001 4.000000e-001
      vertex   -2.505233e-001 -9.681106e-001 4.000000e-001
      vertex   -2.505233e-001 -9.681106e-001 6.000000e-001
    endloop
  endfacet
  facet normal -1.680132e-001 -9.857848e-001 5.783229e-016
    outer loop
      vertex   -2.505233e-001 -9.681106e-001 4.000000e-001
      vertex   -8.430672e-002 -9.964399e-001 4.000000e-001
      vertex   -8.430672e-002 -9.964399e-001 6.000000e-001
    endloop
  endfacet
  facet normal 0.000000e+000 -1.000000e+000 0.000000e+000
    outer loop
      vertex   -8.430672e-002 -9.964399e-001 4.000000e-001
      vertex   8.430672e-002 -9.964399e-001 4.000000e-001
      vertex   8.430672e-002 -9.964399e-001 6.000000e-001
    endloop
  endfacet
  facet normal 1.680132e-001 -9.857848e-001 1.273863e-016
    outer loop
      vertex   8.430672e-002 -9.964399e-001 4.000000e-001
      vertex   2.505233e-001 -9.681106e-001 4.000000e-001
      vertex   2.505233e-001 -9.681106e-001 6.000000e-001
    endloop
  endfacet
  facet normal 3.312496e-001 -9.435432e-001 1.008984e-016
    outer loop
      vertex   2.505233e-001 -9.681106e-001 4.000000e-001
      vertex   4.096173e-001 -9.122574e-001 4.000000e-001
      vertex   4.096173e-001 -9.122574e-001 6.000000e-001
    endloop
  endfacet
  facet normal 4.850685e-001 -8.744762e-001 1.528919e-015
    outer loop
      vertex   4.096173e-001 -9.122574e-001 4.000000e-001
      vertex   5.570658e-001 -8.304684e-001 4.000000e-001
      vertex   5.570658e-001 -8.304684e-001 6.000000e-001
    endloop
  endfacet
  facet normal 6.250966e-001 -7.805474e-001 3.397343e-016
    outer loop
      vertex   5.570658e-001 -8.304684e-001 4.000000e-001
      vertex   6.886766e-001 -7.250687e-001 4.000000e-001
      vertex   6.886766e-001 -7.250687e-001 6.000000e-001
    endloop
  endfacet
  facet normal 7.473529e-001 -6.644273e-001 1.234613e-015
    outer loop
      vertex   6.886766e-001 -7.250687e-001 4.000000e-001
      vertex   8.007079e-001 -5.990549e-001 4.000000e-001
      vertex   8.007079e-001 -5.990549e-001 6.000000e-001
    endloop
  endfacet
  facet normal 8.483616e-001 -5.294172e-001 3.679868e-016
    outer loop
      vertex   8.007079e-001 -5.990549e-001 4.000000e-001
      vertex   8.899748e-001 -4.560098e-001 4.000000e-001
      vertex   8.899748e-001 -4.560098e-001 6.000000e-001
    endloop
  endfacet
  facet normal -7.071068e-001 0.000000e+000 -7.071068e-001
    outer loop
      vertex   -1.000000e-002 -8.000000e-001 0.000000e+000
      vertex   -1.000000e-001 -8.000000e-001 9.000000e-002
      vertex   -1.000000e-002 8.000000e-001 0.000000e+000
    endloop
  endfacet
  facet normal -7.071068e-001 4.829271e-018 -7.071068e-001
    outer loop
      vertex   -1.000000e-002 8.000000e-001 0.000000e+000
      vertex   -1.000000e-001 -8.000000e-001 9.000000e-002
      vertex   -1.000000e-001 8.000000e-001 9.000000e-002
    endloop
  endfacet
  facet normal 0.000000e+000 0.000000e+000 -1.000000e+000
    outer loop
      vertex   -1.000000e-002 -8.000000e-001 0.000000e+000
      vertex   -1.000000e-002 8.000000e-001 0.000000e+000
      vertex   1.000000e-002 -8.000000e-001 0.000000e+000
    endloop
  endfacet
  facet normal 0.000000e+000 0.000000e+000 -1.000000e+000
    outer loop
      vertex   1.000000e-002 -8.000000e-001 0.000000e+000
      vertex   -1.000000e-002 8.000000e-001 0.000000e+000
      vertex   1.000000e-002 8.000000e-001 0.000000e+000
    endloop
  endfacet
  facet normal 0.000000e+000 1.000000e+000 0.000000e+000
    outer loop
      vertex   -1.000000e-001 8.000000e-001 9.000000e-002
      vertex   -1.000000e-001 8.000000e-001 4.000000e-001
      vertex   -1.000000e-002 8.000000e-001 0.000000e+000
    endloop
  endfacet
  facet normal 0.000000e+000 1.000000e+000 0.000000e+000
    outer loop
      vertex   -1.000000e-002 8.000000e-001 0.000000e+000
      vertex   -1.000000e-001 8.000000e-001 4.000000e-001
      vertex   1.000000e-002 8.000000e-001 0.000000e+000
    endloop
  endfacet
  facet normal 0.000000e+000 1.000000e+000 0.000000e+000
    outer loop
      vertex   1.000000e-002 8.000000e-001 0.000000e+000
      vertex   -1.000000e-001 8.000000e-001 4.000000e-001
      vertex   1.000000e-001 8.000000e-001 9.000000e-002
    endloop
  endfacet
  facet normal 0.000000e+000 1.000000e+000 0.000000e+000
    outer loop
      vertex   1.000000e-001 8.000000e-001 9.000000e-002
      vertex   -1.000000e-001 8.000000e-001 4.000000e-001
      vertex   1.000000e-001 8.000000e-001 4.000000e-001
    endloop
  endfacet
  facet normal 7.071068e-001 0.000000e+000 -7.071068e-001
    outer loop
      vertex   1.000000e-001 -8.000000e-001 9.000000e-002
      vertex   1.000000e-002 -8.000000e-001 0.000000e+000
      vertex   1.000000e-001 8.000000e-001 9.000000e-002
    endloop
  endfacet
  facet normal 7.071068e-001 0.000000e+000 -7.071068e-001
    outer loop
      vertex   1.000000e-001 8.000000e-001 9.000000e-002
      vertex   1.000000e-002 -8.000000e-001 0.000000e+000
      vertex   1.000000e-002 8.000000e-001 0.000000e+000
    endloop
  endfacet
  facet normal 1.000000e+000 0.000000e+000 0.000000e+000
    outer loop
      vertex   1.000000e-001 8.000000e-001 9.000000e-002
      vertex   1.000000e-001 8.000000e-001 4.000000e-001
      vertex   1.000000e-001 -8.000000e-001 9.000000e-002
    endloop
  endfacet
  facet normal 1.000000e+000 0.000000e+000 0.000000e+000
    outer loop
      vertex   1.000000e-001 -8.000000e-001 9.000000e-002
      vertex   1.000000e-001 8.000000e-001 4.000000e-001
      vertex   1.000000e-001 -8.000000e-001 4.000000e-001
    endloop
  endfacet
  facet normal 0.000000e+000 -1.000000e+000 0.000000e+000
    outer loop
      vertex   -1.000000e-001 -8.000000e-001 9.000000e-002
      vertex   -1.000000e-002 -8.000000e-001 0.000000e+000
      vertex   -1.000000e-001 -8.000000e-001 4.000000e-001
    endloop
  endfacet
  facet normal 0.000000e+000 -1.000000e+000 0.000000e+000
    outer loop
      vertex   -1.000000e-001 -8.000000e-001 4.000000e-001
      vertex   -1.000000e-002 -8.000000e-001 0.000000e+000
      vertex   1.000000e-002 -8.000000e-001 0.000000e+000
    endloop
  endfacet
  facet normal 0.000000e+000 -1.000000e+000 0.000000e+000
    outer loop
      vertex   1.000000e-001 -8.000000e-001 9.000000e-002
      vertex   -1.000000e-001 -8.000000e-001 4.000000e-001
      vertex   1.000000e-002 -8.000000e-001 0.000000e+000
    endloop
  endfacet
  facet normal 0.000000e+000 -1.000000e+000 0.000000e+000
    outer loop
      vertex   1.000000e-001 -8.000000e-001 9.000000e-002
      vertex   1.000000e-001 -8.000000e-001 4.000000e-001
      vertex   -1.000000e-001 -8.000000e-001 4.000000e-001
    endloop
  endfacet
  facet normal -1.000000e+000 0.000000e+000 0.000000e+000
    outer loop
      vertex   -1.000000e-001 -8.000000e-001 9.000000e-002
      vertex   -1.000000e-001 -8.000000e-001 4.000000e-001
      vertex   -1.000000e-001 8.000000e-001 9.000000e-002
    endloop
  endfacet
  facet normal -1.000000e+000 0.000000e+000 0.000000e+000
    outer loop
      vertex   -1.000000e-001 8.000000e-001 9.000000e-002
      vertex   -1.000000e-001 -8.000000e-001 4.000000e-001
      vertex   -1.000000e-001 8.000000e-001 4.000000e-001
    endloop
  endfacet
endsolid
